;TYPE=PLATED
;Layer: PTH_Through
;EasyEDA Pro v3.2.148, 2026-06-28 11:37:26
;Gerber Generator version 0.3
M48
METRIC,LZ,0000.00000
;Hole size 1 = 0.30500 METRIC
T01C0.30500
;Hole size 2 = 0.60000 METRIC
T02C0.60000
;Hole size 3 = 0.70002 METRIC
T03C0.70002
%
G05
G90
T01
X41.62862Y10.10518
X42.80291Y7.15289
X48.99461Y7.07909
X51.2806Y5.55509
X51.0266Y7.35519
X56.10659Y7.35519
X52.6776Y28.98904
X55.21759Y29.75104
X58.06168Y29.66004
X57.80768Y31.15234
X52.6776Y28.20494
X57.80768Y28.76304
X27.68604Y17.53147
X28.44804Y13.01597
X13.33497Y12.49508
X14.09697Y14.27308
X54.29359Y26.60115
X33.52803Y9.33598
X34.79803Y9.33598
T02
X37.71207Y5.95804G85X37.71207Y5.05804
X46.36209Y5.95803G85X46.36209Y5.058
X37.71202Y1.60797G85X37.71202Y1.00797
X46.36199Y1.60797G85X46.36199Y1.00797
X52.31707Y6.21204G85X52.31707Y5.31204
X60.96709Y6.21203G85X60.96709Y5.312
X52.31702Y1.86197G85X52.31702Y1.26197
X60.96699Y1.86197G85X60.96699Y1.26197
X56.89162Y25.83924G85X57.79162Y25.83924
X56.89163Y34.48926G85X57.79165Y34.48926
X61.24169Y25.83919G85X61.84168Y25.83919
X61.24169Y34.48916G85X61.84168Y34.48916
T03
X30.32608Y2.85502G85X30.32608Y1.05505
X17.42592Y2.85502G85X17.42592Y1.05505
X16.10208Y2.85502G85X16.10208Y1.05505
X3.20192Y2.85502G85X3.20192Y1.05505
M30