G04 Layer: TopSilkscreenLayer*
G04 EasyEDA Pro v3.2.148, 2026-06-28 11:37:26*
G04 Gerber Generator version 0.3*
G04 Scale: 100 percent, Rotated: No, Reflected: No*
G04 Dimensions in millimeters*
G04 Leading zeros omitted, absolute positions, 4 integers and 5 decimals*
G04 Generated by one-click*
G04 Object Configs: Pad,Via,Track,Text,Image,Dimension,BoardOutline,BoardCutout,CopperFilled,SolidRegion,FPCStiffener,Line,PlaneZone,ComponentProperty,ComponentSilkscreen,TearDrop*
G04 Layer Configs: 1,2,3,4,5,6,7,8,9,10,11,13,14,56*
G04 Copper Areas: 0*
%FSLAX45Y45*%
%MOMM*%
%ADD10C,0.1524*%
%ADD11C,0.254*%
%ADD12C,0.0136*%
G75*


G04 Text Start*
G54D10*
G01X1522613Y1324811D02*
G01X1516263Y1321763D01*
G01X1510167Y1315413D01*
G01X1507119Y1309317D01*
G01X1507119Y1296871D01*
G01X1510167Y1290775D01*
G01X1516263Y1284425D01*
G01X1522613Y1281377D01*
G01X1531757Y1278329D01*
G01X1547251Y1278329D01*
G01X1556649Y1281377D01*
G01X1562745Y1284425D01*
G01X1569095Y1290775D01*
G01X1572143Y1296871D01*
G01X1572143Y1309317D01*
G01X1569095Y1315413D01*
G01X1562745Y1321763D01*
G01X1556649Y1324811D01*
G01X1519565Y1355037D02*
G01X1516263Y1361133D01*
G01X1507119Y1370277D01*
G01X1572143Y1370277D01*
G01X2579487Y1494589D02*
G01X2585837Y1497637D01*
G01X2591933Y1503987D01*
G01X2594981Y1510083D01*
G01X2594981Y1522529D01*
G01X2591933Y1528625D01*
G01X2585837Y1534975D01*
G01X2579487Y1538023D01*
G01X2570343Y1541071D01*
G01X2554849Y1541071D01*
G01X2545451Y1538023D01*
G01X2539355Y1534975D01*
G01X2533005Y1528625D01*
G01X2529957Y1522529D01*
G01X2529957Y1510083D01*
G01X2533005Y1503987D01*
G01X2539355Y1497637D01*
G01X2545451Y1494589D01*
G01X2579487Y1461315D02*
G01X2582535Y1461315D01*
G01X2588885Y1458267D01*
G01X2591933Y1455219D01*
G01X2594981Y1449123D01*
G01X2594981Y1436677D01*
G01X2591933Y1430327D01*
G01X2588885Y1427279D01*
G01X2582535Y1424231D01*
G01X2576439Y1424231D01*
G01X2570343Y1427279D01*
G01X2560945Y1433629D01*
G01X2529957Y1464363D01*
G01X2529957Y1421183D01*
G01X3785987Y961189D02*
G01X3792337Y964237D01*
G01X3798433Y970587D01*
G01X3801481Y976683D01*
G01X3801481Y989129D01*
G01X3798433Y995225D01*
G01X3792337Y1001575D01*
G01X3785987Y1004623D01*
G01X3776843Y1007671D01*
G01X3761349Y1007671D01*
G01X3751951Y1004623D01*
G01X3745855Y1001575D01*
G01X3739505Y995225D01*
G01X3736457Y989129D01*
G01X3736457Y976683D01*
G01X3739505Y970587D01*
G01X3745855Y964237D01*
G01X3751951Y961189D01*
G01X3801481Y924867D02*
G01X3801481Y890831D01*
G01X3776843Y909373D01*
G01X3776843Y900229D01*
G01X3773795Y893879D01*
G01X3770493Y890831D01*
G01X3761349Y887783D01*
G01X3754999Y887783D01*
G01X3745855Y890831D01*
G01X3739505Y896927D01*
G01X3736457Y906325D01*
G01X3736457Y915723D01*
G01X3739505Y924867D01*
G01X3742807Y927915D01*
G01X3748903Y930963D01*
G01X3533902Y2974340D02*
G01X3530854Y2980690D01*
G01X3524504Y2986786D01*
G01X3518408Y2989834D01*
G01X3505962Y2989834D01*
G01X3499866Y2986786D01*
G01X3493516Y2980690D01*
G01X3490468Y2974340D01*
G01X3487420Y2965196D01*
G01X3487420Y2949702D01*
G01X3490468Y2940304D01*
G01X3493516Y2934208D01*
G01X3499866Y2927858D01*
G01X3505962Y2924810D01*
G01X3518408Y2924810D01*
G01X3524504Y2927858D01*
G01X3530854Y2934208D01*
G01X3533902Y2940304D01*
G01X3594862Y2989834D02*
G01X3564128Y2946654D01*
G01X3610356Y2946654D01*
G01X3594862Y2989834D02*
G01X3594862Y2924810D01*
G01X3533902Y2745740D02*
G01X3530854Y2752090D01*
G01X3524504Y2758186D01*
G01X3518408Y2761234D01*
G01X3505962Y2761234D01*
G01X3499866Y2758186D01*
G01X3493516Y2752090D01*
G01X3490468Y2745740D01*
G01X3487420Y2736596D01*
G01X3487420Y2721102D01*
G01X3490468Y2711704D01*
G01X3493516Y2705608D01*
G01X3499866Y2699258D01*
G01X3505962Y2696210D01*
G01X3518408Y2696210D01*
G01X3524504Y2699258D01*
G01X3530854Y2705608D01*
G01X3533902Y2711704D01*
G01X3601212Y2761234D02*
G01X3570224Y2761234D01*
G01X3567176Y2733548D01*
G01X3570224Y2736596D01*
G01X3579368Y2739644D01*
G01X3588766Y2739644D01*
G01X3598164Y2736596D01*
G01X3604260Y2730246D01*
G01X3607308Y2721102D01*
G01X3607308Y2714752D01*
G01X3604260Y2705608D01*
G01X3598164Y2699258D01*
G01X3588766Y2696210D01*
G01X3579368Y2696210D01*
G01X3570224Y2699258D01*
G01X3567176Y2702560D01*
G01X3564128Y2708656D01*
G01X2676408Y3147068D02*
G01X2679456Y3140718D01*
G01X2685806Y3134622D01*
G01X2691902Y3131574D01*
G01X2704348Y3131574D01*
G01X2710444Y3134622D01*
G01X2716794Y3140718D01*
G01X2719842Y3147068D01*
G01X2722890Y3156212D01*
G01X2722890Y3171706D01*
G01X2719842Y3181104D01*
G01X2716794Y3187200D01*
G01X2710444Y3193550D01*
G01X2704348Y3196598D01*
G01X2691902Y3196598D01*
G01X2685806Y3193550D01*
G01X2679456Y3187200D01*
G01X2676408Y3181104D01*
G01X2609098Y3140718D02*
G01X2612146Y3134622D01*
G01X2621544Y3131574D01*
G01X2627640Y3131574D01*
G01X2637038Y3134622D01*
G01X2643134Y3144020D01*
G01X2646182Y3159260D01*
G01X2646182Y3174754D01*
G01X2643134Y3187200D01*
G01X2637038Y3193550D01*
G01X2627640Y3196598D01*
G01X2624592Y3196598D01*
G01X2615448Y3193550D01*
G01X2609098Y3187200D01*
G01X2606050Y3178056D01*
G01X2606050Y3174754D01*
G01X2609098Y3165610D01*
G01X2615448Y3159260D01*
G01X2624592Y3156212D01*
G01X2627640Y3156212D01*
G01X2637038Y3159260D01*
G01X2643134Y3165610D01*
G01X2646182Y3174754D01*
G01X3546602Y3177540D02*
G01X3543554Y3183890D01*
G01X3537204Y3189986D01*
G01X3531108Y3193034D01*
G01X3518662Y3193034D01*
G01X3512566Y3189986D01*
G01X3506216Y3183890D01*
G01X3503168Y3177540D01*
G01X3500120Y3168396D01*
G01X3500120Y3152902D01*
G01X3503168Y3143504D01*
G01X3506216Y3137408D01*
G01X3512566Y3131058D01*
G01X3518662Y3128010D01*
G01X3531108Y3128010D01*
G01X3537204Y3131058D01*
G01X3543554Y3137408D01*
G01X3546602Y3143504D01*
G01X3620008Y3193034D02*
G01X3589020Y3128010D01*
G01X3576828Y3193034D02*
G01X3620008Y3193034D01*
G01X2676408Y2715268D02*
G01X2679456Y2708918D01*
G01X2685806Y2702822D01*
G01X2691902Y2699774D01*
G01X2704348Y2699774D01*
G01X2710444Y2702822D01*
G01X2716794Y2708918D01*
G01X2719842Y2715268D01*
G01X2722890Y2724412D01*
G01X2722890Y2739906D01*
G01X2719842Y2749304D01*
G01X2716794Y2755400D01*
G01X2710444Y2761750D01*
G01X2704348Y2764798D01*
G01X2691902Y2764798D01*
G01X2685806Y2761750D01*
G01X2679456Y2755400D01*
G01X2676408Y2749304D01*
G01X2630942Y2699774D02*
G01X2640086Y2702822D01*
G01X2643134Y2708918D01*
G01X2643134Y2715268D01*
G01X2640086Y2721364D01*
G01X2633990Y2724412D01*
G01X2621544Y2727460D01*
G01X2612146Y2730762D01*
G01X2606050Y2736858D01*
G01X2603002Y2742954D01*
G01X2603002Y2752352D01*
G01X2606050Y2758448D01*
G01X2609098Y2761750D01*
G01X2618496Y2764798D01*
G01X2630942Y2764798D01*
G01X2640086Y2761750D01*
G01X2643134Y2758448D01*
G01X2646182Y2752352D01*
G01X2646182Y2742954D01*
G01X2643134Y2736858D01*
G01X2637038Y2730762D01*
G01X2627640Y2727460D01*
G01X2615448Y2724412D01*
G01X2609098Y2721364D01*
G01X2606050Y2715268D01*
G01X2606050Y2708918D01*
G01X2609098Y2702822D01*
G01X2618496Y2699774D01*
G01X2630942Y2699774D01*
G01X2663708Y2918468D02*
G01X2666756Y2912118D01*
G01X2673106Y2906022D01*
G01X2679202Y2902974D01*
G01X2691648Y2902974D01*
G01X2697744Y2906022D01*
G01X2704094Y2912118D01*
G01X2707142Y2918468D01*
G01X2710190Y2927612D01*
G01X2710190Y2943106D01*
G01X2707142Y2952504D01*
G01X2704094Y2958600D01*
G01X2697744Y2964950D01*
G01X2691648Y2967998D01*
G01X2679202Y2967998D01*
G01X2673106Y2964950D01*
G01X2666756Y2958600D01*
G01X2663708Y2952504D01*
G01X2593350Y2924564D02*
G01X2596398Y2933962D01*
G01X2602748Y2940058D01*
G01X2611892Y2943106D01*
G01X2614940Y2943106D01*
G01X2624338Y2940058D01*
G01X2630434Y2933962D01*
G01X2633482Y2924564D01*
G01X2633482Y2921516D01*
G01X2630434Y2912118D01*
G01X2624338Y2906022D01*
G01X2614940Y2902974D01*
G01X2611892Y2902974D01*
G01X2602748Y2906022D01*
G01X2596398Y2912118D01*
G01X2593350Y2924564D01*
G01X2593350Y2940058D01*
G01X2596398Y2955552D01*
G01X2602748Y2964950D01*
G01X2611892Y2967998D01*
G01X2618242Y2967998D01*
G01X2627386Y2964950D01*
G01X2630434Y2958600D01*
G01X5131308Y2771140D02*
G01X5128260Y2777490D01*
G01X5121910Y2783586D01*
G01X5115814Y2786634D01*
G01X5103368Y2786634D01*
G01X5097272Y2783586D01*
G01X5090922Y2777490D01*
G01X5087874Y2771140D01*
G01X5084826Y2761996D01*
G01X5084826Y2746502D01*
G01X5087874Y2737104D01*
G01X5090922Y2731008D01*
G01X5097272Y2724658D01*
G01X5103368Y2721610D01*
G01X5115814Y2721610D01*
G01X5121910Y2724658D01*
G01X5128260Y2731008D01*
G01X5131308Y2737104D01*
G01X5161534Y2774188D02*
G01X5167630Y2777490D01*
G01X5176774Y2786634D01*
G01X5176774Y2721610D01*
G01X5225542Y2786634D02*
G01X5216144Y2783586D01*
G01X5210048Y2774188D01*
G01X5207000Y2758948D01*
G01X5207000Y2749550D01*
G01X5210048Y2734056D01*
G01X5216144Y2724658D01*
G01X5225542Y2721610D01*
G01X5231638Y2721610D01*
G01X5241036Y2724658D01*
G01X5247132Y2734056D01*
G01X5250180Y2749550D01*
G01X5250180Y2758948D01*
G01X5247132Y2774188D01*
G01X5241036Y2783586D01*
G01X5231638Y2786634D01*
G01X5225542Y2786634D01*
G01X5176520Y2939034D02*
G01X5176520Y2874010D01*
G01X5176520Y2939034D02*
G01X5204460Y2939034D01*
G01X5213604Y2935986D01*
G01X5216652Y2932938D01*
G01X5219954Y2926588D01*
G01X5219954Y2920492D01*
G01X5216652Y2914396D01*
G01X5213604Y2911348D01*
G01X5204460Y2908046D01*
G01X5176520Y2908046D01*
G01X5198110Y2908046D02*
G01X5219954Y2874010D01*
G01X5250180Y2926588D02*
G01X5256276Y2929890D01*
G01X5265420Y2939034D01*
G01X5265420Y2874010D01*
G01X5176520Y3243834D02*
G01X5176520Y3178810D01*
G01X5176520Y3243834D02*
G01X5204460Y3243834D01*
G01X5213604Y3240786D01*
G01X5216652Y3237738D01*
G01X5219954Y3231388D01*
G01X5219954Y3225292D01*
G01X5216652Y3219196D01*
G01X5213604Y3216148D01*
G01X5204460Y3212846D01*
G01X5176520Y3212846D01*
G01X5198110Y3212846D02*
G01X5219954Y3178810D01*
G01X5253228Y3228340D02*
G01X5253228Y3231388D01*
G01X5256276Y3237738D01*
G01X5259324Y3240786D01*
G01X5265420Y3243834D01*
G01X5277866Y3243834D01*
G01X5284216Y3240786D01*
G01X5287264Y3237738D01*
G01X5290312Y3231388D01*
G01X5290312Y3225292D01*
G01X5287264Y3219196D01*
G01X5280914Y3209798D01*
G01X5250180Y3178810D01*
G01X5293360Y3178810D01*
G01X4494296Y737791D02*
G01X4559320Y737791D01*
G01X4494296Y737791D02*
G01X4494296Y765731D01*
G01X4497344Y774875D01*
G01X4500392Y777923D01*
G01X4506742Y781225D01*
G01X4512838Y781225D01*
G01X4518934Y777923D01*
G01X4521982Y774875D01*
G01X4525284Y765731D01*
G01X4525284Y737791D01*
G01X4525284Y759381D02*
G01X4559320Y781225D01*
G01X4494296Y817547D02*
G01X4494296Y851583D01*
G01X4518934Y833041D01*
G01X4518934Y842185D01*
G01X4521982Y848535D01*
G01X4525284Y851583D01*
G01X4534428Y854631D01*
G01X4540778Y854631D01*
G01X4549922Y851583D01*
G01X4556272Y845487D01*
G01X4559320Y836089D01*
G01X4559320Y826691D01*
G01X4556272Y817547D01*
G01X4552970Y814499D01*
G01X4546874Y811451D01*
G01X4735596Y737791D02*
G01X4800620Y737791D01*
G01X4735596Y737791D02*
G01X4735596Y765731D01*
G01X4738644Y774875D01*
G01X4741692Y777923D01*
G01X4748042Y781225D01*
G01X4754138Y781225D01*
G01X4760234Y777923D01*
G01X4763282Y774875D01*
G01X4766584Y765731D01*
G01X4766584Y737791D01*
G01X4766584Y759381D02*
G01X4800620Y781225D01*
G01X4735596Y842185D02*
G01X4778776Y811451D01*
G01X4778776Y857679D01*
G01X4735596Y842185D02*
G01X4800620Y842185D01*
G01X5392166Y1112520D02*
G01X5457190Y1112520D01*
G01X5392166Y1112520D02*
G01X5392166Y1140460D01*
G01X5395214Y1149604D01*
G01X5398262Y1152652D01*
G01X5404612Y1155954D01*
G01X5410708Y1155954D01*
G01X5416804Y1152652D01*
G01X5419852Y1149604D01*
G01X5423154Y1140460D01*
G01X5423154Y1112520D01*
G01X5423154Y1134110D02*
G01X5457190Y1155954D01*
G01X5392166Y1223264D02*
G01X5392166Y1192276D01*
G01X5419852Y1189228D01*
G01X5416804Y1192276D01*
G01X5413756Y1201420D01*
G01X5413756Y1210818D01*
G01X5416804Y1220216D01*
G01X5423154Y1226312D01*
G01X5432298Y1229360D01*
G01X5438648Y1229360D01*
G01X5447792Y1226312D01*
G01X5454142Y1220216D01*
G01X5457190Y1210818D01*
G01X5457190Y1201420D01*
G01X5454142Y1192276D01*
G01X5450840Y1189228D01*
G01X5444744Y1186180D01*
G01X5620766Y1125220D02*
G01X5685790Y1125220D01*
G01X5620766Y1125220D02*
G01X5620766Y1153160D01*
G01X5623814Y1162304D01*
G01X5626862Y1165352D01*
G01X5633212Y1168654D01*
G01X5639308Y1168654D01*
G01X5645404Y1165352D01*
G01X5648452Y1162304D01*
G01X5651754Y1153160D01*
G01X5651754Y1125220D01*
G01X5651754Y1146810D02*
G01X5685790Y1168654D01*
G01X5629910Y1235964D02*
G01X5623814Y1232916D01*
G01X5620766Y1223518D01*
G01X5620766Y1217422D01*
G01X5623814Y1208024D01*
G01X5633212Y1201928D01*
G01X5648452Y1198880D01*
G01X5663946Y1198880D01*
G01X5676392Y1201928D01*
G01X5682742Y1208024D01*
G01X5685790Y1217422D01*
G01X5685790Y1220470D01*
G01X5682742Y1229614D01*
G01X5676392Y1235964D01*
G01X5667248Y1239012D01*
G01X5663946Y1239012D01*
G01X5654802Y1235964D01*
G01X5648452Y1229614D01*
G01X5645404Y1220470D01*
G01X5645404Y1217422D01*
G01X5648452Y1208024D01*
G01X5654802Y1201928D01*
G01X5663946Y1198880D01*
G01X3718568Y-231813D02*
G01X3718568Y-278295D01*
G01X3721616Y-287439D01*
G01X3727966Y-293789D01*
G01X3737110Y-296837D01*
G01X3743460Y-296837D01*
G01X3752604Y-293789D01*
G01X3758700Y-287439D01*
G01X3762002Y-278295D01*
G01X3762002Y-231813D01*
G01X3835408Y-240957D02*
G01X3829312Y-234861D01*
G01X3819914Y-231813D01*
G01X3807468Y-231813D01*
G01X3798324Y-234861D01*
G01X3792228Y-240957D01*
G01X3792228Y-247307D01*
G01X3795276Y-253403D01*
G01X3798324Y-256451D01*
G01X3804420Y-259499D01*
G01X3822962Y-265849D01*
G01X3829312Y-268897D01*
G01X3832360Y-271945D01*
G01X3835408Y-278295D01*
G01X3835408Y-287439D01*
G01X3829312Y-293789D01*
G01X3819914Y-296837D01*
G01X3807468Y-296837D01*
G01X3798324Y-293789D01*
G01X3792228Y-287439D01*
G01X3865634Y-231813D02*
G01X3865634Y-296837D01*
G01X3865634Y-231813D02*
G01X3893320Y-231813D01*
G01X3902718Y-234861D01*
G01X3905766Y-237909D01*
G01X3908814Y-244259D01*
G01X3908814Y-250355D01*
G01X3905766Y-256451D01*
G01X3902718Y-259499D01*
G01X3893320Y-262801D01*
G01X3865634Y-262801D02*
G01X3893320Y-262801D01*
G01X3902718Y-265849D01*
G01X3905766Y-268897D01*
G01X3908814Y-274993D01*
G01X3908814Y-284391D01*
G01X3905766Y-290487D01*
G01X3902718Y-293789D01*
G01X3893320Y-296837D01*
G01X3865634Y-296837D01*
G01X3939040Y-244259D02*
G01X3945136Y-240957D01*
G01X3954280Y-231813D01*
G01X3954280Y-296837D01*
G01X5179068Y-206413D02*
G01X5179068Y-252895D01*
G01X5182116Y-262039D01*
G01X5188466Y-268389D01*
G01X5197610Y-271437D01*
G01X5203960Y-271437D01*
G01X5213104Y-268389D01*
G01X5219200Y-262039D01*
G01X5222502Y-252895D01*
G01X5222502Y-206413D01*
G01X5295908Y-215557D02*
G01X5289812Y-209461D01*
G01X5280414Y-206413D01*
G01X5267968Y-206413D01*
G01X5258824Y-209461D01*
G01X5252728Y-215557D01*
G01X5252728Y-221907D01*
G01X5255776Y-228003D01*
G01X5258824Y-231051D01*
G01X5264920Y-234099D01*
G01X5283462Y-240449D01*
G01X5289812Y-243497D01*
G01X5292860Y-246545D01*
G01X5295908Y-252895D01*
G01X5295908Y-262039D01*
G01X5289812Y-268389D01*
G01X5280414Y-271437D01*
G01X5267968Y-271437D01*
G01X5258824Y-268389D01*
G01X5252728Y-262039D01*
G01X5326134Y-206413D02*
G01X5326134Y-271437D01*
G01X5326134Y-206413D02*
G01X5353820Y-206413D01*
G01X5363218Y-209461D01*
G01X5366266Y-212509D01*
G01X5369314Y-218859D01*
G01X5369314Y-224955D01*
G01X5366266Y-231051D01*
G01X5363218Y-234099D01*
G01X5353820Y-237401D01*
G01X5326134Y-237401D02*
G01X5353820Y-237401D01*
G01X5363218Y-240449D01*
G01X5366266Y-243497D01*
G01X5369314Y-249593D01*
G01X5369314Y-258991D01*
G01X5366266Y-265087D01*
G01X5363218Y-268389D01*
G01X5353820Y-271437D01*
G01X5326134Y-271437D01*
G01X5402588Y-221907D02*
G01X5402588Y-218859D01*
G01X5405636Y-212509D01*
G01X5408684Y-209461D01*
G01X5414780Y-206413D01*
G01X5427226Y-206413D01*
G01X5433576Y-209461D01*
G01X5436624Y-212509D01*
G01X5439672Y-218859D01*
G01X5439672Y-224955D01*
G01X5436624Y-231051D01*
G01X5430274Y-240449D01*
G01X5399540Y-271437D01*
G01X5442720Y-271437D01*
G01X1689959Y-166116D02*
G01X1689959Y-212598D01*
G01X1693007Y-221742D01*
G01X1699357Y-228092D01*
G01X1708501Y-231140D01*
G01X1714851Y-231140D01*
G01X1723995Y-228092D01*
G01X1730091Y-221742D01*
G01X1733393Y-212598D01*
G01X1733393Y-166116D01*
G01X1806799Y-175260D02*
G01X1800703Y-169164D01*
G01X1791305Y-166116D01*
G01X1778859Y-166116D01*
G01X1769715Y-169164D01*
G01X1763619Y-175260D01*
G01X1763619Y-181610D01*
G01X1766667Y-187706D01*
G01X1769715Y-190754D01*
G01X1775811Y-193802D01*
G01X1794353Y-200152D01*
G01X1800703Y-203200D01*
G01X1803751Y-206248D01*
G01X1806799Y-212598D01*
G01X1806799Y-221742D01*
G01X1800703Y-228092D01*
G01X1791305Y-231140D01*
G01X1778859Y-231140D01*
G01X1769715Y-228092D01*
G01X1763619Y-221742D01*
G01X1837025Y-166116D02*
G01X1837025Y-231140D01*
G01X1837025Y-166116D02*
G01X1864711Y-166116D01*
G01X1874109Y-169164D01*
G01X1877157Y-172212D01*
G01X1880205Y-178562D01*
G01X1880205Y-184658D01*
G01X1877157Y-190754D01*
G01X1874109Y-193802D01*
G01X1864711Y-197104D01*
G01X1837025Y-197104D02*
G01X1864711Y-197104D01*
G01X1874109Y-200152D01*
G01X1877157Y-203200D01*
G01X1880205Y-209296D01*
G01X1880205Y-218694D01*
G01X1877157Y-224790D01*
G01X1874109Y-228092D01*
G01X1864711Y-231140D01*
G01X1837025Y-231140D01*
G01X1916527Y-166116D02*
G01X1950563Y-166116D01*
G01X1932021Y-190754D01*
G01X1941165Y-190754D01*
G01X1947515Y-193802D01*
G01X1950563Y-197104D01*
G01X1953611Y-206248D01*
G01X1953611Y-212598D01*
G01X1950563Y-221742D01*
G01X1944467Y-228092D01*
G01X1935069Y-231140D01*
G01X1925671Y-231140D01*
G01X1916527Y-228092D01*
G01X1913479Y-224790D01*
G01X1910431Y-218694D01*
G01X267559Y-166116D02*
G01X267559Y-212598D01*
G01X270607Y-221742D01*
G01X276957Y-228092D01*
G01X286101Y-231140D01*
G01X292451Y-231140D01*
G01X301595Y-228092D01*
G01X307691Y-221742D01*
G01X310993Y-212598D01*
G01X310993Y-166116D01*
G01X384399Y-175260D02*
G01X378303Y-169164D01*
G01X368905Y-166116D01*
G01X356459Y-166116D01*
G01X347315Y-169164D01*
G01X341219Y-175260D01*
G01X341219Y-181610D01*
G01X344267Y-187706D01*
G01X347315Y-190754D01*
G01X353411Y-193802D01*
G01X371953Y-200152D01*
G01X378303Y-203200D01*
G01X381351Y-206248D01*
G01X384399Y-212598D01*
G01X384399Y-221742D01*
G01X378303Y-228092D01*
G01X368905Y-231140D01*
G01X356459Y-231140D01*
G01X347315Y-228092D01*
G01X341219Y-221742D01*
G01X414625Y-166116D02*
G01X414625Y-231140D01*
G01X414625Y-166116D02*
G01X442311Y-166116D01*
G01X451709Y-169164D01*
G01X454757Y-172212D01*
G01X457805Y-178562D01*
G01X457805Y-184658D01*
G01X454757Y-190754D01*
G01X451709Y-193802D01*
G01X442311Y-197104D01*
G01X414625Y-197104D02*
G01X442311Y-197104D01*
G01X451709Y-200152D01*
G01X454757Y-203200D01*
G01X457805Y-209296D01*
G01X457805Y-218694D01*
G01X454757Y-224790D01*
G01X451709Y-228092D01*
G01X442311Y-231140D01*
G01X414625Y-231140D01*
G01X518765Y-166116D02*
G01X488031Y-209296D01*
G01X534259Y-209296D01*
G01X518765Y-166116D02*
G01X518765Y-231140D01*
G01X6120013Y842211D02*
G01X6113663Y839163D01*
G01X6107567Y832813D01*
G01X6104519Y826717D01*
G01X6104519Y814271D01*
G01X6107567Y808175D01*
G01X6113663Y801825D01*
G01X6120013Y798777D01*
G01X6129157Y795729D01*
G01X6144651Y795729D01*
G01X6154049Y798777D01*
G01X6160145Y801825D01*
G01X6166495Y808175D01*
G01X6169543Y814271D01*
G01X6169543Y826717D01*
G01X6166495Y832813D01*
G01X6160145Y839163D01*
G01X6154049Y842211D01*
G01X6116965Y872437D02*
G01X6113663Y878533D01*
G01X6104519Y887677D01*
G01X6169543Y887677D01*
G01X6116965Y917903D02*
G01X6113663Y923999D01*
G01X6104519Y933143D01*
G01X6169543Y933143D01*
G04 Text End*

G04 PolygonModel Start*
G54D11*
G01X1404457Y1394381D02*
G01X1404457Y1314384D01*
G01X1404503Y1450426D02*
G01X1404503Y1530424D01*
G01X1262489Y1394381D02*
G01X1262489Y1314384D01*
G01X1262537Y1450426D02*
G01X1262537Y1530424D01*
G01X1373475Y1283409D02*
G01X1293470Y1283409D01*
G01X1293523Y1561402D02*
G01X1373525Y1561402D01*
G01X1262537Y1530419D02*
G02X1293523Y1561402I30983J0D01*
G01X1373520Y1561402D02*
G02X1404503Y1530419I0J-30983D01*
G01X1404457Y1314389D02*
G02X1373475Y1283409I-30983J3D01*
G01X1293477Y1283409D02*
G02X1262489Y1314389I-5J30983D01*
G01X2697643Y1425019D02*
G01X2697643Y1505016D01*
G01X2697597Y1368974D02*
G01X2697597Y1288976D01*
G01X2839611Y1425019D02*
G01X2839611Y1505016D01*
G01X2839563Y1368974D02*
G01X2839563Y1288976D01*
G01X2728625Y1535991D02*
G01X2808630Y1535991D01*
G01X2808577Y1257999D02*
G01X2728575Y1257999D01*
G01X2839563Y1288981D02*
G02X2808577Y1257999I-30983J0D01*
G01X2728580Y1257999D02*
G02X2697597Y1288981I0J30983D01*
G01X2697643Y1505011D02*
G02X2728625Y1535991I30983J-3D01*
G01X2808623Y1535991D02*
G02X2839611Y1505011I5J-30983D01*
G01X3904143Y891619D02*
G01X3904143Y971616D01*
G01X3904097Y835574D02*
G01X3904097Y755576D01*
G01X4046111Y891619D02*
G01X4046111Y971616D01*
G01X4046063Y835574D02*
G01X4046063Y755576D01*
G01X3935125Y1002591D02*
G01X4015130Y1002591D01*
G01X4015077Y724599D02*
G01X3935075Y724599D01*
G01X4046063Y755581D02*
G02X4015077Y724599I-30983J0D01*
G01X3935080Y724599D02*
G02X3904097Y755581I0J30983D01*
G01X3904143Y971611D02*
G02X3935125Y1002591I30983J-3D01*
G01X4015123Y1002591D02*
G02X4046111Y971611I5J-30983D01*
G01X3215188Y2881622D02*
G01X3135191Y2881622D01*
G01X3271233Y2881576D02*
G01X3351230Y2881576D01*
G01X3215188Y3023590D02*
G01X3135191Y3023590D01*
G01X3271233Y3023542D02*
G01X3351230Y3023542D01*
G01X3104215Y2912605D02*
G01X3104215Y2992610D01*
G01X3382208Y2992556D02*
G01X3382208Y2912554D01*
G01X3351225Y3023542D02*
G02X3382208Y2992556I0J-30983D01*
G01X3382208Y2912559D02*
G02X3351225Y2881576I-30983J0D01*
G01X3135196Y2881622D02*
G02X3104215Y2912605I3J30983D01*
G01X3104215Y2992602D02*
G02X3135196Y3023590I30983J5D01*
G01X3223181Y2672243D02*
G01X3143184Y2672243D01*
G01X3279226Y2672197D02*
G01X3359224Y2672197D01*
G01X3223181Y2814211D02*
G01X3143184Y2814211D01*
G01X3279226Y2814163D02*
G01X3359224Y2814163D01*
G01X3112209Y2703225D02*
G01X3112209Y2783230D01*
G01X3390202Y2783177D02*
G01X3390202Y2703175D01*
G01X3359219Y2814163D02*
G02X3390202Y2783177I0J-30983D01*
G01X3390202Y2703180D02*
G02X3359219Y2672197I-30983J0D01*
G01X3143189Y2672243D02*
G02X3112209Y2703225I3J30983D01*
G01X3112209Y2783223D02*
G02X3143189Y2814211I30983J5D01*
G01X2428329Y3220565D02*
G01X2508326Y3220565D01*
G01X2372284Y3220611D02*
G01X2292286Y3220611D01*
G01X2428329Y3078597D02*
G01X2508326Y3078597D01*
G01X2372284Y3078645D02*
G01X2292286Y3078645D01*
G01X2539301Y3189582D02*
G01X2539301Y3109577D01*
G01X2261309Y3109631D02*
G01X2261309Y3189633D01*
G01X2292292Y3078645D02*
G02X2261309Y3109631I0J30983D01*
G01X2261309Y3189628D02*
G02X2292292Y3220611I30983J0D01*
G01X2508321Y3220565D02*
G02X2539301Y3189582I-3J-30983D01*
G01X2539301Y3109585D02*
G02X2508321Y3078597I-30983J-5D01*
G01X3210481Y3116743D02*
G01X3130484Y3116743D01*
G01X3266526Y3116697D02*
G01X3346524Y3116697D01*
G01X3210481Y3258711D02*
G01X3130484Y3258711D01*
G01X3266526Y3258663D02*
G01X3346524Y3258663D01*
G01X3099509Y3147725D02*
G01X3099509Y3227730D01*
G01X3377502Y3227677D02*
G01X3377502Y3147675D01*
G01X3346519Y3258663D02*
G02X3377502Y3227677I0J-30983D01*
G01X3377502Y3147680D02*
G02X3346519Y3116697I-30983J0D01*
G01X3130489Y3116743D02*
G02X3099509Y3147725I3J30983D01*
G01X3099509Y3227723D02*
G02X3130489Y3258711I30983J5D01*
G01X2428329Y2826865D02*
G01X2508326Y2826865D01*
G01X2372284Y2826911D02*
G01X2292286Y2826911D01*
G01X2428329Y2684897D02*
G01X2508326Y2684897D01*
G01X2372284Y2684945D02*
G01X2292286Y2684945D01*
G01X2539301Y2795882D02*
G01X2539301Y2715877D01*
G01X2261309Y2715931D02*
G01X2261309Y2795933D01*
G01X2292292Y2684945D02*
G02X2261309Y2715931I0J30983D01*
G01X2261309Y2795928D02*
G02X2292292Y2826911I30983J0D01*
G01X2508321Y2826865D02*
G02X2539301Y2795882I-3J-30983D01*
G01X2539301Y2715885D02*
G02X2508321Y2684897I-30983J-5D01*
G01X2428329Y3030065D02*
G01X2508326Y3030065D01*
G01X2372284Y3030111D02*
G01X2292286Y3030111D01*
G01X2428329Y2888097D02*
G01X2508326Y2888097D01*
G01X2372284Y2888145D02*
G01X2292286Y2888145D01*
G01X2539301Y2999082D02*
G01X2539301Y2919077D01*
G01X2261309Y2919131D02*
G01X2261309Y2999133D01*
G01X2292292Y2888145D02*
G02X2261309Y2919131I0J30983D01*
G01X2261309Y2999128D02*
G02X2292292Y3030111I30983J0D01*
G01X2508321Y3030065D02*
G02X2539301Y2999082I-3J-30983D01*
G01X2539301Y2919085D02*
G02X2508321Y2888097I-30983J-5D01*
G01X5463619Y2814157D02*
G01X5543616Y2814157D01*
G01X5407574Y2814203D02*
G01X5327576Y2814203D01*
G01X5463619Y2672189D02*
G01X5543616Y2672189D01*
G01X5407574Y2672237D02*
G01X5327576Y2672237D01*
G01X5574591Y2783175D02*
G01X5574591Y2703170D01*
G01X5296599Y2703223D02*
G01X5296599Y2783225D01*
G01X5327581Y2672237D02*
G02X5296599Y2703223I0J30983D01*
G01X5296599Y2783220D02*
G02X5327581Y2814203I30983J0D01*
G01X5543611Y2814157D02*
G02X5574591Y2783175I-3J-30983D01*
G01X5574591Y2703177D02*
G02X5543611Y2672189I-30983J-5D01*
G54D10*
G01X5478221Y2829540D02*
G01X5574109Y2829540D01*
G01X5574109Y2829540D02*
G01X5574109Y2961660D01*
G01X5574109Y2961660D02*
G01X5478221Y2961660D01*
G01X5392979Y2829540D02*
G01X5297091Y2829540D01*
G01X5297091Y2829540D02*
G01X5297091Y2961660D01*
G01X5297091Y2961660D02*
G01X5392979Y2961660D01*
G01X5503621Y3159740D02*
G01X5599509Y3159740D01*
G01X5599509Y3159740D02*
G01X5599509Y3291860D01*
G01X5599509Y3291860D02*
G01X5503621Y3291860D01*
G01X5418379Y3159740D02*
G01X5322491Y3159740D01*
G01X5322491Y3159740D02*
G01X5322491Y3291860D01*
G01X5322491Y3291860D02*
G01X5418379Y3291860D01*
G01X4396760Y918921D02*
G01X4396760Y1014809D01*
G01X4396760Y1014809D02*
G01X4264640Y1014809D01*
G01X4264640Y1014809D02*
G01X4264640Y918921D01*
G01X4396760Y833679D02*
G01X4396760Y737791D01*
G01X4396760Y737791D02*
G01X4264640Y737791D01*
G01X4264640Y737791D02*
G01X4264640Y833679D01*
G01X4638060Y918921D02*
G01X4638060Y1014809D01*
G01X4638060Y1014809D02*
G01X4505940Y1014809D01*
G01X4505940Y1014809D02*
G01X4505940Y918921D01*
G01X4638060Y833679D02*
G01X4638060Y737791D01*
G01X4638060Y737791D02*
G01X4505940Y737791D01*
G01X4505940Y737791D02*
G01X4505940Y833679D01*
G01X5514360Y944321D02*
G01X5514360Y1040209D01*
G01X5514360Y1040209D02*
G01X5382240Y1040209D01*
G01X5382240Y1040209D02*
G01X5382240Y944321D01*
G01X5514360Y859079D02*
G01X5514360Y763191D01*
G01X5514360Y763191D02*
G01X5382240Y763191D01*
G01X5382240Y763191D02*
G01X5382240Y859079D01*
G01X5768360Y944321D02*
G01X5768360Y1040209D01*
G01X5768360Y1040209D02*
G01X5636240Y1040209D01*
G01X5636240Y1040209D02*
G01X5636240Y944321D01*
G01X5768360Y859079D02*
G01X5768360Y763191D01*
G01X5768360Y763191D02*
G01X5636240Y763191D01*
G01X5636240Y763191D02*
G01X5636240Y859079D01*
G54D11*
G01X2949400Y2365799D02*
G01X2869400Y2365799D01*
G01X2689400Y2365799D02*
G01X2769400Y2365799D01*
G01X2949400Y2815801D02*
G01X2949400Y2811912D01*
G01X2949400Y2365799D02*
G01X2949400Y2369685D01*
G01X2689400Y2811912D02*
G01X2689400Y2815801D01*
G01X2689400Y2365799D02*
G01X2689400Y2369688D01*
G01X2689400Y2815801D02*
G01X2949400Y2815801D01*
G01X2869400Y2365799D02*
G03X2769362Y2365756I-50019J-377D01*
G01X4660908Y228605D02*
G01X4660908Y428000D01*
G01X4660908Y-114297D02*
G01X4660908Y33000D01*
G01X3753709Y228918D02*
G01X3753709Y427690D01*
G01X3753709Y-129197D02*
G01X3753709Y32687D01*
G01X4653707Y-129197D02*
G01X3753709Y-129197D01*
G01X6121408Y254005D02*
G01X6121408Y453400D01*
G01X6121408Y-88897D02*
G01X6121408Y58400D01*
G01X5214209Y254318D02*
G01X5214209Y453090D01*
G01X5214209Y-103797D02*
G01X5214209Y58087D01*
G01X6114207Y-103797D02*
G01X5214209Y-103797D01*
G01X3048000Y372176D02*
G01X3048000Y939800D01*
G01X3048000Y939800D02*
G01X2816713Y939800D01*
G01X1727200Y18832D02*
G01X1727200Y-63500D01*
G01X1727200Y-63500D02*
G01X3048000Y-63500D01*
G01X3048000Y-63500D02*
G01X3048000Y18832D01*
G01X1958487Y939797D02*
G01X1727200Y939797D01*
G01X1727200Y939797D02*
G01X1727200Y372176D01*
G01X2566713Y939797D02*
G01X2658486Y939797D01*
G01X2366714Y939797D02*
G01X2408486Y939797D01*
G01X2116714Y939797D02*
G01X2208487Y939797D01*
G01X2645407Y347957D02*
G01X2848409Y347957D01*
G01X2631410Y468973D02*
G01X2857424Y468973D01*
G01X1957301Y357866D02*
G01X2160295Y357866D01*
G01X1943303Y478864D02*
G01X2169312Y478864D01*
G01X2238121Y705391D02*
G01X2202564Y131338D01*
G01X2202564Y131338D02*
G01X1912998Y131338D01*
G01X1912998Y131338D02*
G01X1864741Y705391D01*
G01X1864741Y705391D02*
G01X1915541Y705391D01*
G01X1915541Y705391D02*
G01X1966062Y191874D01*
G01X1966062Y191874D02*
G01X2141090Y191874D01*
G01X2141090Y191874D02*
G01X2200021Y705391D01*
G01X2200021Y705391D02*
G01X2238121Y705391D01*
G01X2921000Y698497D02*
G01X2886199Y124838D01*
G01X2886199Y124838D02*
G01X2597676Y125334D01*
G01X2597676Y125334D02*
G01X2548179Y698838D01*
G01X2548179Y698838D02*
G01X2599052Y698447D01*
G01X2599052Y698447D02*
G01X2650084Y244422D01*
G01X2650084Y244422D02*
G01X2657599Y176599D01*
G01X2657599Y176599D02*
G01X2832583Y177678D01*
G01X2832583Y177678D02*
G01X2879979Y655498D01*
G01X2879979Y655498D02*
G01X2882974Y698497D01*
G01X2882974Y698497D02*
G01X2921000Y698497D01*
G01X1625600Y372176D02*
G01X1625600Y939800D01*
G01X1625600Y939800D02*
G01X1394313Y939800D01*
G01X304800Y18832D02*
G01X304800Y-63500D01*
G01X304800Y-63500D02*
G01X1625600Y-63500D01*
G01X1625600Y-63500D02*
G01X1625600Y18832D01*
G01X536087Y939797D02*
G01X304800Y939797D01*
G01X304800Y939797D02*
G01X304800Y372176D01*
G01X1144313Y939797D02*
G01X1236086Y939797D01*
G01X944314Y939797D02*
G01X986086Y939797D01*
G01X694314Y939797D02*
G01X786087Y939797D01*
G01X1223007Y347957D02*
G01X1426009Y347957D01*
G01X1209010Y468973D02*
G01X1435024Y468973D01*
G01X534901Y357866D02*
G01X737895Y357866D01*
G01X520903Y478864D02*
G01X746912Y478864D01*
G01X815721Y705391D02*
G01X780164Y131338D01*
G01X780164Y131338D02*
G01X490598Y131338D01*
G01X490598Y131338D02*
G01X442341Y705391D01*
G01X442341Y705391D02*
G01X493141Y705391D01*
G01X493141Y705391D02*
G01X543662Y191874D01*
G01X543662Y191874D02*
G01X718690Y191874D01*
G01X718690Y191874D02*
G01X777621Y705391D01*
G01X777621Y705391D02*
G01X815721Y705391D01*
G01X1498600Y698497D02*
G01X1463799Y124838D01*
G01X1463799Y124838D02*
G01X1175276Y125334D01*
G01X1175276Y125334D02*
G01X1125779Y698838D01*
G01X1125779Y698838D02*
G01X1176652Y698447D01*
G01X1176652Y698447D02*
G01X1227684Y244422D01*
G01X1227684Y244422D02*
G01X1235199Y176599D01*
G01X1235199Y176599D02*
G01X1410183Y177678D01*
G01X1410183Y177678D02*
G01X1457579Y655498D01*
G01X1457579Y655498D02*
G01X1460574Y698497D01*
G01X1460574Y698497D02*
G01X1498600Y698497D01*
G01X6056361Y3473625D02*
G01X5856966Y3473625D01*
G01X6399263Y3473625D02*
G01X6251966Y3473625D01*
G01X6056048Y2566426D02*
G01X5857276Y2566426D01*
G01X6414163Y2566426D02*
G01X6252279Y2566426D01*
G01X6414163Y3466424D02*
G01X6414163Y2566426D01*
G01X6001857Y911781D02*
G01X6001857Y831784D01*
G01X6001903Y967826D02*
G01X6001903Y1047824D01*
G01X5859889Y911781D02*
G01X5859889Y831784D01*
G01X5859937Y967826D02*
G01X5859937Y1047824D01*
G01X5970875Y800809D02*
G01X5890870Y800809D01*
G01X5890923Y1078802D02*
G01X5970925Y1078802D01*
G01X5859937Y1047819D02*
G02X5890923Y1078802I30983J0D01*
G01X5970920Y1078802D02*
G02X6001903Y1047819I0J-30983D01*
G01X6001857Y831789D02*
G02X5970875Y800809I-30983J3D01*
G01X5890877Y800809D02*
G02X5859889Y831789I-5J30983D01*

G04 Circle Start*
G01X2992882Y2358796D02*
G03X3017926Y2358796I12522J0D01*
G03X2992882Y2358796I-12522J0D01*
G04 Circle End*

M02*

