G04 Layer: TopSolderMaskLayer*
G04 EasyEDA Pro v3.2.148, 2026-06-28 11:37:26*
G04 Gerber Generator version 0.3*
G04 Scale: 100 percent, Rotated: No, Reflected: No*
G04 Dimensions in millimeters*
G04 Leading zeros omitted, absolute positions, 4 integers and 5 decimals*
G04 Generated by one-click*
G04 Object Configs: Pad,Via,Track,Text,Image,Dimension,BoardOutline,BoardCutout,CopperFilled,SolidRegion,FPCStiffener,Line,PlaneZone,ComponentProperty,ComponentSilkscreen,TearDrop*
G04 Layer Configs: 1,2,3,4,5,6,7,8,9,10,11,13,14,56*
G04 Copper Areas: 0*
%FSLAX45Y45*%
%MOMM*%
%AMRoundRect*1,1,$1,$2,$3*1,1,$1,$4,$5*1,1,$1,0-$2,0-$3*1,1,$1,0-$4,0-$5*20,1,$1,$2,$3,$4,$5,0*20,1,$1,$4,$5,0-$2,0-$3,0*20,1,$1,0-$2,0-$3,0-$4,0-$5,0*20,1,$1,0-$4,0-$5,$2,$3,0*4,1,4,$2,$3,$4,$5,0-$2,0-$3,0-$4,0-$5,$2,$3,0*%
%ADD10RoundRect,0.1016X-0.45X-0.4X-0.45X0.4*%
%ADD11RoundRect,0.1016X-0.4X0.45X0.4X0.45*%
%ADD12RoundRect,0.1016X-0.40324X0.432X0.40324X0.432*%
%ADD13RoundRect,0.1016X-0.432X-0.40324X-0.432X0.40324*%
%ADD14RoundRect,0.10003X-0.6X0.12501X0.6X0.12501*%
%ADD15RoundRect,0.10003X-0.27501X0.55X0.27501X0.55*%
%ADD16RoundRect,0.1052X-0.15X0.55X0.15X0.55*%
%ADD17RoundRect,0.10003X-0.15X0.55X0.15X0.55*%
%ADD18O,1.20002X2.10002*%
%ADD19O,1.30002X1.90002*%
%ADD20RoundRect,0.1016X-0.55999X1.44X0.55999X1.44*%
%ADD21O,1.3016X3.20159*%
%ADD22RoundRect,0.10003X-0.55X-0.27501X-0.55X0.27501*%
%ADD23RoundRect,0.10003X-0.55X-0.15X-0.55X0.15*%
%ADD24O,2.10002X1.20002*%
%ADD25O,1.90002X1.30002*%
G75*


G04 Pad Start*
G54D10*
G01X1333500Y1492402D03*
G01X1333500Y1352398D03*
G01X2768600Y1326998D03*
G01X2768600Y1467002D03*
G01X3975100Y793598D03*
G01X3975100Y933602D03*
G54D11*
G01X3313209Y2952579D03*
G01X3173204Y2952579D03*
G01X3321202Y2743200D03*
G01X3181198Y2743200D03*
G01X2330308Y3149608D03*
G01X2470313Y3149608D03*
G01X3308502Y3187700D03*
G01X3168498Y3187700D03*
G01X2330308Y2755908D03*
G01X2470313Y2755908D03*
G01X2330308Y2959108D03*
G01X2470313Y2959108D03*
G01X5365598Y2743200D03*
G01X5505602Y2743200D03*
G54D12*
G01X5510936Y2895600D03*
G01X5360264Y2895600D03*
G01X5536336Y3225800D03*
G01X5385664Y3225800D03*
G54D13*
G01X4330700Y951636D03*
G01X4330700Y800964D03*
G01X4572000Y951636D03*
G01X4572000Y800964D03*
G01X5448300Y977036D03*
G01X5448300Y826364D03*
G01X5702300Y977036D03*
G01X5702300Y826364D03*
G54D14*
G01X2999410Y2405304D03*
G01X2999410Y2458314D03*
G01X2999410Y2511298D03*
G01X2999410Y2564308D03*
G01X2999410Y2617292D03*
G01X2999410Y2670302D03*
G01X2999410Y2723312D03*
G01X2999410Y2776296D03*
G01X2639390Y2776296D03*
G01X2639390Y2723312D03*
G01X2639390Y2670302D03*
G01X2639390Y2617292D03*
G01X2639390Y2564308D03*
G01X2639390Y2511298D03*
G01X2639390Y2458314D03*
G01X2639390Y2405304D03*
G54D15*
G01X3883698Y605803D03*
G01X3963708Y605803D03*
G54D17*
G01X4028707Y605803D03*
G01X4078719Y605803D03*
G01X4128707Y605803D03*
G01X4178694Y605803D03*
G01X4228706Y605803D03*
G01X4278694Y605803D03*
G01X4328706Y605803D03*
G01X4378719Y605803D03*
G54D15*
G01X4443717Y605803D03*
G01X4523702Y605803D03*
G54D18*
G01X3771202Y550812D03*
G01X4636199Y550812D03*
G54D19*
G01X3771202Y130797D03*
G01X4636199Y130797D03*
G54D15*
G01X5344198Y631203D03*
G01X5424208Y631203D03*
G54D17*
G01X5489207Y631203D03*
G01X5539219Y631203D03*
G01X5589207Y631203D03*
G01X5639194Y631203D03*
G01X5689206Y631203D03*
G01X5739194Y631203D03*
G01X5789206Y631203D03*
G01X5839219Y631203D03*
G54D15*
G01X5904217Y631203D03*
G01X5984202Y631203D03*
G54D18*
G01X5231702Y576212D03*
G01X6096699Y576212D03*
G54D19*
G01X5231702Y156197D03*
G01X6096699Y156197D03*
G54D20*
G01X2737587Y1074496D03*
G01X2487600Y1074496D03*
G01X2287600Y1074496D03*
G01X2037613Y1074496D03*
G54D21*
G01X3032608Y195504D03*
G01X1742592Y195504D03*
G54D20*
G01X1315187Y1074496D03*
G01X1065200Y1074496D03*
G01X865200Y1074496D03*
G01X615213Y1074496D03*
G54D21*
G01X1610208Y195504D03*
G01X320192Y195504D03*
G54D22*
G01X5679163Y2696415D03*
G01X5679163Y2776425D03*
G54D23*
G01X5679163Y2841424D03*
G01X5679163Y2891436D03*
G01X5679163Y2941424D03*
G01X5679163Y2991411D03*
G01X5679163Y3041423D03*
G01X5679163Y3091411D03*
G01X5679163Y3141423D03*
G01X5679163Y3191436D03*
G54D22*
G01X5679163Y3256434D03*
G01X5679163Y3336419D03*
G54D24*
G01X5734154Y2583919D03*
G01X5734154Y3448916D03*
G54D25*
G01X6154169Y2583919D03*
G01X6154169Y3448916D03*
G54D10*
G01X5930900Y1009802D03*
G01X5930900Y869798D03*
G04 Pad End*

M02*

