G04 Layer: BoardOutlineLayer*
G04 EasyEDA Pro v3.2.148, 2026-06-28 11:37:26*
G04 Gerber Generator version 0.3*
G04 Scale: 100 percent, Rotated: No, Reflected: No*
G04 Dimensions in millimeters*
G04 Leading zeros omitted, absolute positions, 4 integers and 5 decimals*
G04 Generated by one-click*
G04 Object Configs: Pad,Via,Track,Text,Image,Dimension,BoardOutline,BoardCutout,CopperFilled,SolidRegion,FPCStiffener,Line,PlaneZone,ComponentProperty,ComponentSilkscreen,TearDrop*
G04 Layer Configs: 1,2,3,4,5,6,7,8,9,10,11,13,14,56*
G04 Copper Areas: 0*
%FSLAX45Y45*%
%MOMM*%
%ADD10C,0.1*%
%ADD11C,0.254*%
%ADD12C,0.5889*%
G75*


G04 PolygonModel Start*
G54D10*
G01X610113Y3725242D02*
G02X625293Y3748084I810360J-522086D01*
G01X625293Y3748084D01*
G02X639125Y3767348I445958J-305610D01*
G01X639125Y3767348D01*
G02X651208Y3783053I712407J-535600D01*
G01X651208Y3783053D01*
G02X654974Y3784912I3832J-3016D01*
G01X654974Y3784912D01*
G02X670289Y3771201I205J-15180D01*
G01X670289Y3771201D01*
G02X678946Y3662964I-3166187J-307691D01*
G02X681988Y3554894I-1559704J-97983D01*
G02X674129Y3480000I-384440J2482D01*
G02X671459Y3474539I-11938J2453D01*
G01X669376Y3475248D01*
G01X669376Y3475248D01*
G02X669265Y3496243I231252J11726D01*
G02X671213Y3537500I2886854J-115661D01*
G01X671213Y3537500D01*
G03X672714Y3576608I-1222644J66506D01*
G03X672428Y3607671I-491688J11006D01*
G01X672428Y3607671D01*
G03X670942Y3631588I-563696J-23011D01*
G03X667233Y3635000I-3709J-309D01*
G01X667233Y3635000D01*
G03X640939Y3626058I0J-43131D01*
G03X590583Y3584410I562383J-731245D01*
G03X543172Y3539304I638495J-718586D01*
G03X532711Y3515470I26178J-25703D01*
G02X532140Y3509656I-62238J3176D01*
G01X532140Y3509656D01*
G01X530807Y3507561D01*
G01X529126Y3507916D01*
G01X529126Y3507916D01*
G02X527116Y3511784I19937J12818D01*
G02X526341Y3535994I32249J13150D01*
G02X550413Y3602559I1408393J-471686D01*
G02X580052Y3671257I955782J-371627D01*
G01X580052Y3671257D01*
G02X610113Y3725242I434466J-206562D01*
G01X1905537Y3595455D02*
G02X1901489Y3602958I56939J35559D01*
G02X1899564Y3609258I22291J10255D01*
G02X1899966Y3613349I7898J1290D01*
G02X1902345Y3615000I2380J-889D01*
G02X1909382Y3611537I0J-8879D01*
G02X1917191Y3599235I-63961J-49232D01*
G02X1922584Y3585920I-70795J-36427D01*
G01X1922584Y3585920D01*
G02X1920857Y3579024I-6616J-2007D01*
G01X1920857Y3579024D01*
G01X1918946Y3578930D01*
G01X1918946Y3578930D01*
G02X1915072Y3582566I25313J30850D01*
G01X1915072Y3582566D01*
G02X1910441Y3588183I43697J40741D01*
G02X1905537Y3595455I101044J73440D01*
G01X1857550Y3582500D02*
G02X1865100Y3591122I262445J-222200D01*
G01X1865100Y3591122D01*
G02X1872017Y3598391I150212J-136026D01*
G01X1872017Y3598391D01*
G02X1877983Y3604180I195753J-195744D01*
G01X1877983Y3604180D01*
G01X1880050Y3605000D01*
G01X1880050Y3605000D01*
G02X1882488Y3602894I0J-2464D01*
G02X1881455Y3598738I-5577J-820D01*
G01X1881455Y3598738D01*
G02X1874522Y3590990I-43407J31865D01*
G01X1874522Y3590990D01*
G02X1861000Y3579050I-293692J318970D01*
G01X1838500Y3560000D01*
G01X1857550Y3582500D01*
G01X1766381Y3507500D02*
G01X1731244Y3473691D01*
G01X1731244Y3473691D01*
G03X1727599Y3469309I18025J-18703D01*
G01X1727599Y3469309D01*
G01X1728181Y3468795D01*
G01X1728181Y3468795D01*
G01X1757516Y3494086D01*
G01X1757516Y3494086D01*
G01X1804243Y3534683D01*
G01X1804243Y3534683D01*
G03X1824067Y3552756I-408988J468529D01*
G01X1824067Y3552756D01*
G03X1833199Y3562432I-85736J90064D01*
G01X1833199Y3562432D01*
G03X1832008Y3565000I-1190J1008D01*
G01X1832008Y3565000D01*
G03X1828226Y3563601I0J-5813D01*
G01X1828226Y3563601D01*
G03X1810347Y3548109I1399928J-1633706D01*
G03X1789738Y3529538I656059J-748789D01*
G03X1766381Y3507500I1211008J-1306828D01*
G01X1453500Y3549455D02*
G02X1484863Y3553436I38903J-180970D01*
G01X1484863Y3553436D01*
G02X1526796Y3553573I22795J-559035D01*
G01X1526796Y3553573D01*
G02X1567900Y3551372I-36498J-1066186D01*
G01X1567900Y3551372D01*
G02X1573500Y3545348I-439J-6024D01*
G01X1573500Y3545348D01*
G02X1559428Y3512593I-45157J0D01*
G02X1497182Y3458847I-602693J635082D01*
G01X1497182Y3458847D01*
G02X1416286Y3402038I-575350J733310D01*
G01X1416286Y3402038D01*
G02X1326250Y3351357I-589820J942512D01*
G02X1272304Y3324662I-2022700J4019578D01*
G01X1272304Y3324662D01*
G02X1252243Y3317176I-49031J100769D01*
G01X1252243Y3317176D01*
G02X1248840Y3320933I-737J2753D01*
G02X1255785Y3332500I35173J-13250D01*
G01X1255785Y3332500D01*
G03X1272035Y3355150I-106094J93272D01*
G01X1272035Y3355150D01*
G03X1292935Y3393750I-697412J402564D01*
G03X1313488Y3437315I-762610J386409D01*
G03X1329671Y3478321I-549918J240736D01*
G01X1329671Y3478321D01*
G03X1336098Y3498448I-330493J116609D01*
G01X1336098Y3498448D01*
G03X1338262Y3511462I-55716J15954D01*
G01X1338262Y3511462D01*
G03X1336874Y3520111I-20989J1066D01*
G03X1332087Y3525873I-10971J-4245D01*
G01X1332087Y3525873D01*
G02X1332152Y3529156I1003J1622D01*
G01X1332152Y3529156D01*
G02X1341121Y3532940I20871J-36956D01*
G02X1357508Y3536676I39243J-134323D01*
G01X1357508Y3536676D01*
G02X1379398Y3539696I66925J-404238D01*
G01X1379398Y3539696D01*
G03X1403126Y3542434I-274914J2486288D01*
G01X1403126Y3542434D01*
G03X1425545Y3545258I-239239J1989500D01*
G03X1444445Y3547842I-252628J1918198D01*
G01X1444445Y3547842D01*
G03X1453500Y3549455I-18202J128400D01*
G01X1291625Y3518169D02*
G02X1287458Y3520384I8129J20316D01*
G01X1287286Y3522207D01*
G02X1290203Y3523620I3493J-3493D01*
G01X1290203Y3523620D01*
G02X1297667Y3524211I11543J-98421D01*
G02X1304629Y3524101I2517J-61098D01*
G02X1309428Y3522993I-1168J-16020D01*
G02X1311254Y3521147I-1209J-3021D01*
G01X1311254Y3521147D01*
G01X1310792Y3518958D01*
G02X1307522Y3517026I-5394J5394D01*
G01X1307522Y3517026D01*
G02X1302669Y3516234I-5695J19637D01*
G01X1302669Y3516234D01*
G02X1297094Y3516608I-1066J25853D01*
G02X1291625Y3518169I4836J27307D01*
G01X1186000Y3490091D02*
G02X1199543Y3495469I90744J-208779D01*
G01X1199543Y3495469D01*
G02X1213359Y3499951I76208J-211400D01*
G02X1225618Y3503068I54275J-187807D01*
G01X1225618Y3503068D01*
G02X1233500Y3503819I7015J-31878D01*
G01X1233500Y3503819D01*
G02X1242620Y3503490I-12750J-480461D01*
G01X1242620Y3503490D01*
G01X1243500Y3502569D01*
G01X1242671Y3501362D01*
G01X1242671Y3501362D01*
G02X1233500Y3497911I-225242J584790D01*
G01X1233500Y3497911D01*
G03X1225609Y3494932I161740J-440360D01*
G01X1225609Y3494932D01*
G01X1213359Y3490146D01*
G01X1199543Y3484665D01*
G01X1199543Y3484665D01*
G01X1186000Y3479211D01*
G01X1186000Y3479211D01*
G02X1173533Y3474507I-101356J249731D01*
G02X1163047Y3471356I-40849J116923D01*
G02X1155063Y3469673I-25072J99147D01*
G01X1153500Y3470993D01*
G02X1154879Y3473558I3075J0D01*
G01X1154879Y3473558D01*
G02X1163047Y3478654I100095J-151343D01*
G01X1163047Y3478654D01*
G02X1173546Y3484318I82655J-140652D01*
G02X1186000Y3490091I126139J-255786D01*
G01X1944289Y3479167D02*
G02X1944399Y3486128I61096J2516D01*
G02X1945507Y3490929I16021J-1168D01*
G02X1947353Y3492754I3020J-1209D01*
G01X1947353Y3492754D01*
G01X1949542Y3492292D01*
G01X1949542Y3492292D01*
G02X1951474Y3489022I-5394J-5394D01*
G02X1952266Y3484169I-19636J-5695D01*
G02X1951891Y3478594I-25853J-1064D01*
G01X1951891Y3478594D01*
G02X1950331Y3473125I-27308J4834D01*
G01X1950331Y3473125D01*
G02X1948116Y3468958I-20315J8129D01*
G01X1948116Y3468958D01*
G01X1946293Y3468786D01*
G02X1944880Y3471703I3493J3493D01*
G01X1944880Y3471703D01*
G02X1944289Y3479167I98421J11543D01*
G01X516022Y3440000D02*
G02X516231Y3454384I367690J1857D01*
G01X516231Y3454384D01*
G02X517216Y3463144I56569J-1929D01*
G01X517216Y3463144D01*
G01X518738Y3464162D01*
G01X518738Y3464162D01*
G01X520371Y3462617D01*
G01X520371Y3462617D01*
G02X521810Y3454342I-48505J-12697D01*
G02X522307Y3443696I-127494J-11294D01*
G01X522307Y3443696D01*
G02X521906Y3432547I-136029J-685D01*
G01X521906Y3432547D01*
G02X520572Y3422616I-88468J6824D01*
G02X518934Y3418196I-14098J2710D01*
G01X517442Y3418394D01*
G01X517442Y3418394D01*
G02X516348Y3425711I33293J8717D01*
G01X516348Y3425711D01*
G02X516022Y3440000I401138J16311D01*
G01X1954289Y3439167D02*
G02X1954399Y3446128I61098J2517D01*
G01X1954399Y3446128D01*
G02X1955507Y3450928I16020J-1168D01*
G02X1957353Y3452754I3021J-1209D01*
G01X1959542Y3452292D01*
G02X1961474Y3449022I-5394J-5394D01*
G02X1962266Y3444169I-19636J-5695D01*
G02X1961891Y3438594I-25854J-1064D01*
G01X1961891Y3438594D01*
G02X1960331Y3433125I-27307J4834D01*
G01X1960331Y3433125D01*
G02X1958116Y3428958I-20315J8129D01*
G01X1958116Y3428958D01*
G01X1956293Y3428786D01*
G02X1954880Y3431703I3493J3493D01*
G01X1954880Y3431703D01*
G02X1954289Y3439167I98421J11543D01*
G01X1608266Y3362500D02*
G01X1656820Y3412468D01*
G01X1656820Y3412468D01*
G02X1678664Y3433852I486358J-474976D01*
G01X1678664Y3433852D01*
G02X1690466Y3443777I99459J-106279D01*
G01X1690466Y3443777D01*
G02X1693500Y3442265I1140J-1512D01*
G01X1692730Y3440404D01*
G01X1692730Y3440404D01*
G01X1669266Y3416903D01*
G01X1669266Y3416903D01*
G02X1642630Y3390544I-2539269J2539278D01*
G01X1611000Y3359765D01*
G01X1611000Y3359765D01*
G01X1528500Y3280000D01*
G01X1608266Y3362500D01*
G01X654290Y3419167D02*
G02X654400Y3426129I61098J2517D01*
G01X654400Y3426129D01*
G02X655507Y3430928I16020J-1168D01*
G01X655507Y3430928D01*
G02X657353Y3432754I3020J-1209D01*
G01X659542Y3432292D01*
G01X659542Y3432292D01*
G02X661474Y3429022I-5394J-5394D01*
G01X661474Y3429022D01*
G02X662266Y3424169I-19637J-5695D01*
G01X662266Y3424169D01*
G02X661891Y3418594I-25853J-1064D01*
G01X661891Y3418594D01*
G02X660331Y3413125I-27307J4834D01*
G01X660331Y3413125D01*
G02X658116Y3408958I-20316J8130D01*
G01X658116Y3408958D01*
G01X656293Y3408786D01*
G01X656293Y3408786D01*
G02X654880Y3411703I3493J3493D01*
G01X654880Y3411703D01*
G02X654290Y3419167I98421J11539D01*
G01X999303Y3394488D02*
G02X1018141Y3406137I523029J-824726D01*
G01X1018141Y3406137D01*
G02X1034911Y3415864I296582J-491993D01*
G01X1034911Y3415864D01*
G02X1049222Y3423683I454210J-814415D01*
G01X1049222Y3423683D01*
G02X1052958Y3424412I3053J-5706D01*
G01X1052958Y3424412D01*
G01X1053546Y3423229D01*
G02X1051338Y3420497I-11044J6669D01*
G01X1051338Y3420497D01*
G02X1046516Y3416531I-32323J34384D01*
G01X1046516Y3416531D01*
G02X1039660Y3411912I-82669J115289D01*
G03X1030433Y3405715I107530J-170071D01*
G01X1030433Y3405715D01*
G03X1017812Y3396524I439647J-617045D01*
G01X1017812Y3396524D01*
G03X1004253Y3386220I498225J-669611D01*
G01X1004253Y3386220D01*
G03X991738Y3376256I398637J-513557D01*
G02X980178Y3367571I-113172J138616D01*
G01X980178Y3367571D01*
G02X969514Y3361170I-55897J81030D01*
G02X960822Y3357373I-33234J64235D01*
G01X960822Y3357373D01*
G02X956923Y3358244I-1264J3505D01*
G02X956924Y3361931I1843J1843D01*
G01X956924Y3361931D01*
G02X967008Y3371255I125246J-125331D01*
G01X967008Y3371255D01*
G02X981263Y3382376I130471J-152559D01*
G01X981263Y3382376D01*
G02X999303Y3394488I240809J-339156D01*
G01X1965079Y3385000D02*
G02X1965391Y3393914I127532J0D01*
G02X1966560Y3398984I16620J-1165D01*
G01X1966560Y3398984D01*
G01X1968250Y3399594D01*
G01X1968250Y3399594D01*
G02X1970123Y3397500I-1966J-3643D01*
G01X1970123Y3397500D01*
G02X1971686Y3391800I-23711J-9568D01*
G01X1971686Y3391800D01*
G02X1972203Y3385000I-44437J-6799D01*
G02X1971686Y3378200I-44956J-1D01*
G01X1971686Y3378200D01*
G02X1970123Y3372500I-25274J3868D01*
G02X1968250Y3370406I-3838J1549D01*
G01X1966560Y3371016D01*
G02X1965391Y3376086I15451J6235D01*
G01X1965391Y3376086D01*
G02X1965079Y3385000I127220J8914D01*
G01X516022Y3360000D02*
G02X516231Y3374384I367690J1857D01*
G01X516231Y3374384D01*
G02X517216Y3383144I56569J-1929D01*
G01X517216Y3383144D01*
G01X518738Y3384162D01*
G01X518738Y3384162D01*
G01X520371Y3382617D01*
G01X520371Y3382617D01*
G02X521810Y3374342I-48503J-12697D01*
G01X521810Y3374342D01*
G02X522307Y3363696I-127497J-11294D01*
G02X521906Y3352547I-136029J-685D01*
G02X520572Y3342617I-88466J6825D01*
G01X520572Y3342617D01*
G02X518934Y3338196I-14098J2710D01*
G01X518934Y3338196D01*
G01X517442Y3338394D01*
G02X516348Y3345711I33294J8717D01*
G01X516348Y3345711D01*
G02X516022Y3360000I401131J16311D01*
G01X721000Y3387678D02*
G02X715730Y3389071I1456J16172D01*
G01X715953Y3390381D01*
G01X715953Y3390381D01*
G02X733028Y3391277I20506J-227666D01*
G02X763500Y3391506I30471J-2030684D01*
G02X793972Y3391277I1J-2030895D01*
G02X811047Y3390381I-3431J-228562D01*
G01X811047Y3390381D01*
G01X811270Y3389071D01*
G01X811270Y3389071D01*
G02X806000Y3387678I-6726J14779D01*
G02X786651Y3386485I-30789J341847D01*
G01X786651Y3386485D01*
G02X763500Y3386099I-23155J694144D01*
G01X763500Y3386099D01*
G02X740349Y3386485I4J694537D01*
G02X721000Y3387678I11440J343040D01*
G01X871625Y3378169D02*
G02X867458Y3380384I8130J20315D01*
G01X867458Y3380384D01*
G01X867286Y3382207D01*
G02X870203Y3383620I3493J-3493D01*
G02X877667Y3384211I11543J-98421D01*
G02X884628Y3384101I2516J-61096D01*
G01X884628Y3384101D01*
G02X889428Y3382993I-1168J-16021D01*
G01X889428Y3382993D01*
G02X891254Y3381147I-1209J-3020D01*
G01X891254Y3381147D01*
G01X890792Y3378958D01*
G02X887522Y3377026I-5394J5394D01*
G01X887522Y3377026D01*
G02X882669Y3376234I-5695J19636D01*
G02X877094Y3376608I-1066J25853D01*
G02X871625Y3378169I4834J27308D01*
G01X1975079Y3325000D02*
G02X1975391Y3333914I127532J0D01*
G02X1976561Y3338984I16621J-1165D01*
G01X1978250Y3339594D01*
G02X1980123Y3337500I-1966J-3643D01*
G02X1981686Y3331800I-23711J-9568D01*
G01X1981686Y3331800D01*
G02X1982203Y3325000I-44439J-6799D01*
G02X1981686Y3318200I-44954J-1D01*
G01X1981686Y3318200D01*
G02X1980123Y3312500I-25274J3868D01*
G02X1978250Y3310406I-3839J1549D01*
G01X1978250Y3310406D01*
G01X1976561Y3311016D01*
G01X1976561Y3311016D01*
G02X1975391Y3316086I15450J6235D01*
G01X1975391Y3316086D01*
G02X1975079Y3325000I127220J8914D01*
G01X491741Y3277500D02*
G02X505829Y3291871I559140J-534050D01*
G02X518506Y3303985I314924J-316874D01*
G01X518506Y3303985D01*
G02X529431Y3313818I488065J-531252D01*
G01X529431Y3313818D01*
G02X532559Y3315000I3128J-3547D01*
G01X532559Y3315000D01*
G01X533231Y3313612D01*
G02X524479Y3302817I-419887J331500D01*
G01X524479Y3302817D01*
G02X512840Y3289439I-314147J261550D01*
G02X498029Y3273526I-677770J615969D01*
G01X498029Y3273526D01*
G03X482338Y3256316I380637J-362791D01*
G01X482338Y3256316D01*
G03X474078Y3244893I58479J-50991D01*
G01X474078Y3244893D01*
G03X473879Y3240208I4263J-2528D01*
G01X473879Y3240208D01*
G03X477414Y3238755I2579J1247D01*
G02X487745Y3242163I83081J-234447D01*
G01X487745Y3242163D01*
G02X490434Y3241432I764J-2499D01*
G01X490434Y3241432D01*
G01X490565Y3238942D01*
G01X490565Y3238942D01*
G02X484429Y3231119I-145000J107424D01*
G01X484429Y3231119D01*
G03X479705Y3224320I37294J-30951D01*
G01X479705Y3224320D01*
G03X477999Y3218701I11315J-6504D01*
G03X479176Y3214087I7608J-517D01*
G03X483015Y3210300I10192J6493D01*
G03X494393Y3207210I10897J17632D01*
G03X504508Y3211251I-362J15584D01*
G01X504508Y3211251D01*
G03X509868Y3221169I-11414J12576D01*
G01X509868Y3221169D01*
G03X508589Y3233511I-23801J3772D01*
G01X508589Y3233511D01*
G02X505533Y3242050I212913J81019D01*
G01X505533Y3242050D01*
G01X506135Y3244069D01*
G01X506135Y3244069D01*
G01X508083Y3244002D01*
G02X514351Y3238056I-128556J-141813D01*
G01X514351Y3238056D01*
G02X519546Y3230635I-17958J-18098D01*
G01X519546Y3230635D01*
G02X521320Y3222397I-17544J-8090D01*
G01X521320Y3222397D01*
G02X519649Y3211754I-36503J281D01*
G01X519649Y3211754D01*
G02X514030Y3196279I-176934J55486D01*
G01X514030Y3196279D01*
G02X491605Y3157487I-157922J65413D01*
G02X465379Y3141604I-33549J25801D01*
G01X465379Y3141604D01*
G02X448363Y3152141I-2601J14807D01*
G01X448363Y3152141D01*
G02X446897Y3184485I64589J19133D01*
G03X449324Y3198985I-228749J45748D01*
G03X449043Y3206940I-23341J3156D01*
G03X446323Y3209707I-3511J-731D01*
G03X441804Y3208952I-1336J-5905D01*
G02X437296Y3206531I-22171J35876D01*
G01X437296Y3206531D01*
G01X435395Y3206927D01*
G01X435395Y3206927D01*
G01X435105Y3208946D01*
G01X435105Y3208946D01*
G02X437646Y3213618I43378J-20567D01*
G01X437646Y3213618D01*
G02X441214Y3217590I12805J-7914D01*
G01X441214Y3217590D01*
G02X445872Y3219961I8503J-10942D01*
G01X445872Y3219961D01*
G02X450887Y3220374I3531J-12225D01*
G02X455488Y3218771I-1312J-11171D01*
G01X455488Y3218771D01*
G03X459341Y3217152I7078J11453D01*
G01X461670Y3217981D01*
G03X462386Y3220938I-3068J2308D01*
G01X462386Y3220938D01*
G03X461009Y3226108I-29159J-5000D01*
G01X461009Y3226108D01*
G02X461219Y3233781I9758J3572D01*
G01X461219Y3233781D01*
G02X467939Y3246935I101905J-43766D01*
G01X467939Y3246935D01*
G02X478397Y3262124I123625J-73928D01*
G01X478397Y3262124D01*
G02X491741Y3277500I167726J-132082D01*
G01X811242Y3289006D02*
G02X810187Y3306623I67357J12875D01*
G02X816138Y3313915I8135J-564D01*
G02X827577Y3312117I3744J-13467D01*
G02X845213Y3298450I-80589J-122205D01*
G01X845213Y3298450D01*
G02X857958Y3281602I-38007J-41997D01*
G01X857958Y3281602D01*
G02X862752Y3262147I-41417J-20522D01*
G02X858908Y3242022I-48709J-1126D01*
G02X846950Y3223287I-61382J25994D01*
G01X846950Y3223287D01*
G02X829564Y3211166I-35008J31681D01*
G01X829564Y3211166D01*
G02X805902Y3205631I-29809J74101D01*
G02X782399Y3207518I-5798J75107D01*
G01X782399Y3207518D01*
G02X765500Y3217000I8413J34794D01*
G02X756248Y3233445I24747J24747D01*
G01X756248Y3233445D01*
G02X754006Y3256958I79718J19465D01*
G01X754006Y3256958D01*
G02X758557Y3280172I82185J-4059D01*
G01X758557Y3280172D01*
G02X769389Y3295738I33524J-11777D01*
G02X778465Y3302851I131509J-158464D01*
G01X778465Y3302851D01*
G02X781849Y3303181I1968J-2662D01*
G01X781849Y3303181D01*
G02X783400Y3300412I-1170J-2474D01*
G02X781889Y3289825I-156988J17000D01*
G03X781682Y3281415I27540J-4886D01*
G03X784226Y3274648I15510J1969D01*
G01X784226Y3274648D01*
G03X789529Y3269773I12856J8662D01*
G01X789529Y3269773D01*
G03X797356Y3266868I13296J23831D01*
G03X806916Y3266020I8507J41588D01*
G01X806916Y3266020D01*
G03X811656Y3268719I-143J5762D01*
G03X813204Y3275240I-8832J5540D01*
G01X813204Y3275240D01*
G03X811242Y3289006I-146157J-13800D01*
G01X1118500Y3279720D02*
G02X1152942Y3290555I416439J-1263547D01*
G02X1167319Y3292644I14242J-47517D01*
G01X1167319Y3292644D01*
G02X1168105Y3289629I-4J-1611D01*
G01X1168105Y3289629D01*
G02X1148500Y3279639I-129070J229069D01*
G02X1135547Y3274403I-64257J140336D01*
G01X1135547Y3274403D01*
G02X1121437Y3270031I-64082J181821D01*
G02X1108255Y3267041I-44724J166636D01*
G02X1098500Y3266220I-8976J48272D01*
G01X1098500Y3266220D01*
G02X1095619Y3267808I56J3508D01*
G01X1095619Y3267808D01*
G02X1096125Y3270316I1526J997D01*
G01X1096125Y3270316D01*
G02X1104281Y3274598I23405J-34673D01*
G01X1104281Y3274598D01*
G02X1118500Y3279720I100618J-257031D01*
G01X1984862Y3264500D02*
G01X1985863Y3282687D01*
G01X1985863Y3282687D01*
G01X1986628Y3283652D01*
G01X1986628Y3283652D01*
G01X1987492Y3283126D01*
G01X1990725Y3266220D01*
G01X1990725Y3266220D01*
G02X1991454Y3256287I-43097J-8159D01*
G02X1989979Y3246109I-49727J2015D01*
G01X1989979Y3246109D01*
G02X1986652Y3237211I-41850J10575D01*
G01X1986652Y3237211D01*
G02X1981863Y3231149I-17301J8745D01*
G02X1976999Y3227201I-102172J120908D01*
G01X1976999Y3227201D01*
G02X1974629Y3225986I-4373J5611D01*
G01X1974129Y3226611D01*
G02X1976000Y3229429I18859J-10495D01*
G03X1978983Y3234815I-15311J11997D01*
G03X1981697Y3243679I-87854J31746D01*
G01X1981697Y3243679D01*
G03X1983789Y3254035I-106259J26851D01*
G03X1984862Y3264500I-106477J16209D01*
G01X1080555Y3220280D02*
G02X1070599Y3241269I798305J391528D01*
G01X1070599Y3241269D01*
G02X1062988Y3258926I381842J175049D01*
G01X1062988Y3258926D01*
G02X1057333Y3273399I622041J251393D01*
G01X1058440Y3275000D01*
G02X1065114Y3270931I0J-7509D01*
G02X1088988Y3223827I-3449422J-1777870D01*
G02X1112303Y3176272I-3671366J-1829458D01*
G01X1112303Y3176272D01*
G02X1111118Y3169285I-5513J-2659D01*
G01X1111118Y3169285D01*
G01X1108775Y3169539D01*
G01X1108775Y3169539D01*
G02X1100603Y3182728I443272J283764D01*
G02X1091115Y3199559I311298J186578D01*
G02X1080555Y3220280I668975J353992D01*
G01X1463500Y3210000D02*
G02X1480788Y3227247I824261J-808940D01*
G01X1480788Y3227247D01*
G02X1496160Y3241781I455929J-466794D01*
G02X1509461Y3253782I843919J-922003D01*
G01X1509461Y3253782D01*
G02X1512664Y3255000I3204J-3602D01*
G01X1512664Y3255000D01*
G01X1513310Y3253620D01*
G01X1513310Y3253620D01*
G02X1503222Y3241781I-571790J477011D01*
G01X1503222Y3241781D01*
G02X1490088Y3227265I-382639J333023D01*
G02X1473500Y3210000I-820364J771575D01*
G02X1456212Y3192754I-824249J808940D01*
G02X1440840Y3178219I-455937J466794D01*
G02X1427539Y3166218I-843902J922003D01*
G01X1427539Y3166218D01*
G02X1424336Y3165000I-3204J3602D01*
G01X1424336Y3165000D01*
G01X1423690Y3166380D01*
G01X1423690Y3166380D01*
G02X1433778Y3178219I571778J-477023D01*
G02X1446912Y3192735I382646J-333016D01*
G02X1463500Y3210000I820352J-771575D01*
G01X1927911Y3199448D02*
G02X1941349Y3209860I327035J-408189D01*
G02X1948357Y3213899I20241J-27020D01*
G01X1948357Y3213899D01*
G02X1951843Y3213535I1415J-3322D01*
G01X1951843Y3213535D01*
G02X1953500Y3210352I-2229J-3184D01*
G02X1952374Y3207983I-3055J0D01*
G01X1952374Y3207983D01*
G02X1946891Y3203866I-55204J67820D01*
G01X1946891Y3203866D01*
G02X1939620Y3199315I-53588J77533D01*
G02X1931000Y3194800I-76534J135625D01*
G01X1931000Y3194800D01*
G01X1915448Y3187299D01*
G01X1914363Y3187598D01*
G01X1914531Y3188687D01*
G01X1914531Y3188687D01*
G01X1927911Y3199448D01*
G01X907243Y3197498D02*
G02X940784Y3194632I11189J-66754D01*
G02X966024Y3175853I-17402J-49742D01*
G02X979851Y3141941I-62117J-45102D01*
G01X979851Y3141941D01*
G02X980626Y3096430I-174662J-25736D01*
G01X980626Y3096430D01*
G02X972237Y3061608I-143699J16197D01*
G02X956085Y3035973I-70768J26684D01*
G02X932549Y3020441I-45921J43989D01*
G01X932549Y3020441D01*
G02X902623Y3015000I-29926J79574D01*
G02X857764Y3039730I0J53050D01*
G01X857764Y3039730D01*
G02X840914Y3100872I92466J58375D01*
G02X860271Y3165920I130042J-3292D01*
G01X860271Y3165920D01*
G02X907243Y3197498I58299J-35995D01*
G01X942068Y3176097D02*
G02X948056Y3171588I-24921J-39332D01*
G02X950028Y3167796I-3971J-4474D01*
G01X950028Y3167796D01*
G02X948781Y3164157I-4446J-510D01*
G02X943886Y3160239I-18502J18098D01*
G01X943886Y3160239D01*
G03X939805Y3156407I7398J-11970D01*
G01X939805Y3156407D01*
G03X937165Y3151001I15168J-10754D01*
G03X936340Y3144880I18821J-5652D01*
G01X936340Y3144880D01*
G03X937504Y3138988I17613J420D01*
G02X938900Y3133632I-23228J-8914D01*
G02X938648Y3129109I-11331J-1637D01*
G01X938648Y3129109D01*
G02X936842Y3126142I-5837J1521D01*
G01X936842Y3126142D01*
G02X933860Y3125000I-2981J3320D01*
G01X933860Y3125000D01*
G03X929953Y3123598I0J-6146D01*
G01X929953Y3123598D01*
G03X925631Y3119127I17468J-21208D01*
G03X921595Y3112659I31179J-23951D01*
G01X921595Y3112659D01*
G03X918502Y3105008I48211J-23935D01*
G01X918502Y3105008D01*
G02X914426Y3095287I-56075J17798D01*
G01X914426Y3095287D01*
G02X909686Y3091026I-8172J4325D01*
G02X903281Y3090821I-3484J8716D01*
G02X893486Y3095008I18957J57911D01*
G01X893486Y3095008D01*
G03X877020Y3103145I-133820J-250041D01*
G01X877020Y3103145D01*
G03X869523Y3103911I-4885J-10748D01*
G01X869523Y3103911D01*
G03X864618Y3099825I1555J-6854D01*
G03X860393Y3087500I80341J-34425D01*
G01X860393Y3087500D01*
G02X858582Y3084908I-4410J1153D01*
G01X858582Y3084908D01*
G01X856823Y3085503D01*
G02X855390Y3092668I30402J9806D01*
G01X855390Y3092668D01*
G02X854660Y3105275I252305J20929D01*
G01X854660Y3105275D01*
G02X860854Y3145288I109147J3589D01*
G01X860854Y3145288D01*
G02X881217Y3174119I61294J-21685D01*
G01X881217Y3174119D01*
G02X910587Y3184873I30385J-37501D01*
G01X910587Y3184873D01*
G02X942068Y3176097I1191J-56579D01*
G01X1877911Y3169448D02*
G02X1891349Y3179860I327027J-408189D01*
G01X1891349Y3179860D01*
G02X1898357Y3183899I20242J-27020D01*
G01X1898357Y3183899D01*
G02X1901843Y3183535I1415J-3321D01*
G02X1903500Y3180352I-2229J-3184D01*
G02X1902374Y3177983I-3055J0D01*
G02X1896891Y3173866I-55204J67820D01*
G02X1889620Y3169315I-53591J77533D01*
G01X1889620Y3169315D01*
G02X1881000Y3164800I-76530J135621D01*
G01X1881000Y3164800D01*
G01X1865448Y3157299D01*
G01X1864363Y3157598D01*
G01X1864531Y3158687D01*
G01X1864531Y3158687D01*
G01X1877911Y3169448D01*
G01X701983Y3159198D02*
G01X708068Y3165250D01*
G01X708068Y3165250D01*
G01X713249Y3170333D01*
G01X717893Y3174847D01*
G01X718143Y3174916D01*
G01X718295Y3174731D01*
G01X718295Y3174731D01*
G01X719283Y3148538D01*
G01X719283Y3148538D01*
G01X720339Y3119599D01*
G01X720339Y3119599D01*
G01X721524Y3085238D01*
G01X721524Y3085238D01*
G02X721562Y3025717I-898900J-30340D01*
G02X716129Y2986240I-191201J6206D01*
G01X716129Y2986240D01*
G02X705491Y2963195I-64803J15936D01*
G02X689497Y2955000I-15994J11510D01*
G01X689497Y2955000D01*
G02X668356Y2961609I0J37120D01*
G01X668356Y2961609D01*
G02X644365Y2982496I82199J118633D01*
G01X644365Y2982496D01*
G02X620092Y3014202I162302J149395D01*
G01X620092Y3014202D01*
G02X597928Y3054479I325923J205590D01*
G01X597928Y3054479D01*
G03X581768Y3086449I-657094J-312067D01*
G01X581768Y3086449D01*
G03X569997Y3103395I-79574J-42713D01*
G01X569997Y3103395D01*
G03X558505Y3111964I-25998J-22875D01*
G01X558505Y3111964D01*
G03X544676Y3115000I-13829J-29978D01*
G02X529456Y3117022I-1J58275D01*
G01X529456Y3117022D01*
G02X529413Y3120650I492J1820D01*
G01X529413Y3120650D01*
G02X556406Y3126635I56320J-190158D01*
G01X556406Y3126635D01*
G02X607618Y3133641I306934J-2052758D01*
G01X607618Y3133641D01*
G03X640583Y3138676I-73307J590470D01*
G01X640583Y3138676D01*
G03X668876Y3145063I-61033J336227D01*
G03X690938Y3152118I-67229J248245D01*
G01X690938Y3152118D01*
G03X701983Y3159198I-10655J28780D01*
G01X711688Y3002547D02*
G02X705022Y2987469I-30098J4294D01*
G02X691329Y2977673I-25339J20950D01*
G01X691329Y2977673D01*
G02X675002Y2976147I-10931J28860D01*
G01X675002Y2976147D01*
G02X661110Y2983390I4563J25698D01*
G02X654716Y2995755I16226J16226D01*
G02X657455Y3008259I16811J2869D01*
G02X669477Y3018096I22821J-15624D01*
G01X669477Y3018096D01*
G02X688000Y3022666I23483J-55366D01*
G02X702398Y3023029I10362J-125207D01*
G01X702398Y3023029D01*
G02X709328Y3020356I-362J-11259D01*
G01X709328Y3020356D01*
G02X712275Y3014325I-5423J-6385D01*
G01X712275Y3014325D01*
G02X711688Y3002547I-64123J-2710D01*
G01X1113806Y3150000D02*
G01X1114724Y3152323D01*
G01X1116654Y3152656D01*
G01X1116654Y3152656D01*
G02X1119756Y3150142I-4500J-8724D01*
G01X1119756Y3150142D01*
G02X1123500Y3145000I-44338J-36214D01*
G01X1123500Y3145000D01*
G02X1127210Y3138523I-58600J-37870D01*
G02X1130346Y3131469I-71250J-35898D01*
G01X1130346Y3131469D01*
G02X1132532Y3124873I-64907J-25167D01*
G01X1132532Y3124873D01*
G02X1133194Y3120000I-17605J-4874D01*
G01X1133194Y3120000D01*
G01X1132276Y3117677D01*
G01X1132276Y3117677D01*
G01X1130346Y3117344D01*
G01X1130346Y3117344D01*
G02X1127244Y3119858I4500J8724D01*
G01X1127244Y3119858D01*
G02X1123500Y3125000I44340J36216D01*
G01X1123500Y3125000D01*
G02X1119790Y3131477I58598J37867D01*
G01X1119790Y3131477D01*
G02X1116654Y3138531I71250J35898D01*
G01X1116654Y3138531D01*
G02X1114468Y3145127I64907J25167D01*
G02X1113806Y3150000I17606J4874D01*
G01X1403779Y3140336D02*
G02X1415781Y3154082I280363J-232680D01*
G02X1419278Y3153782I1633J-1500D01*
G02X1419744Y3148551I-4751J-3059D01*
G02X1411164Y3128866I-601220J250331D01*
G01X1411164Y3128866D01*
G02X1406320Y3119599I-87964J40081D01*
G02X1401631Y3113778I-22649J13445D01*
G02X1397981Y3112353I-3617J3881D01*
G01X1397981Y3112353D01*
G02X1395433Y3114202I17J2704D01*
G01X1395433Y3114202D01*
G02X1394842Y3119655I12256J4085D01*
G01X1394842Y3119655D01*
G02X1396307Y3126610I34864J-3712D01*
G02X1399407Y3133877I40048J-12789D01*
G01X1399407Y3133877D01*
G02X1403779Y3140336I35136J-19072D01*
G01X1770803Y3100868D02*
G01X1827069Y3139095D01*
G01X1827069Y3139095D01*
G02X1843537Y3149585I193128J-285023D01*
G01X1843537Y3149585D01*
G02X1850776Y3152481I12694J-21234D01*
G02X1853500Y3150305I492J-2177D01*
G02X1850918Y3145377I-5993J0D01*
G01X1850918Y3145377D01*
G01X1786074Y3100615D01*
G01X1786074Y3100615D01*
G02X1727187Y3060740I-2631485J3822776D01*
G02X1693500Y3040165I-278810J418618D01*
G01X1693500Y3040165D01*
G02X1690965Y3041245I-849J1522D01*
G01X1690965Y3041245D01*
G02X1692169Y3044826I3331J873D01*
G01X1692169Y3044826D01*
G02X1722853Y3067654I453357J-577334D01*
G02X1770803Y3100868I2156890J-3062617D01*
G01X403500Y3102048D02*
G02X403967Y3121451I403091J3D01*
G01X403967Y3121451D01*
G02X406525Y3127872I10623J-512D01*
G01X406525Y3127872D01*
G02X411508Y3129047I3299J-2836D01*
G02X422026Y3123600I-28565J-68027D01*
G01X422026Y3123600D01*
G02X445047Y3101114I-39878J-63855D01*
G01X445047Y3101114D01*
G02X465158Y3063180I-190491J-125286D01*
G02X480099Y3016203I-267419J-110917D01*
G02X487522Y2965691I-324553J-73496D01*
G01X487522Y2965691D01*
G02X488541Y2946667I-610891J-42288D01*
G01X488541Y2946667D01*
G02X486676Y2942263I-5628J-214D01*
G01X486676Y2942263D01*
G02X482852Y2942150I-1979J2203D01*
G02X471781Y2951555I144524J181338D01*
G01X471781Y2951555D01*
G02X450147Y2978178I75591J83526D01*
G01X450147Y2978178D01*
G02X427120Y3022656I417472J244341D01*
G02X408869Y3069094I441573J200348D01*
G01X408869Y3069094D01*
G02X403500Y3102048I98453J32954D01*
G01X449328Y3069560D02*
G02X454545Y3055258I-152621J-63772D01*
G02X457971Y3041593I-115910J-36327D01*
G01X457971Y3041593D01*
G02X459449Y3030164I-95843J-18200D01*
G01X459449Y3030164D01*
G02X457957Y3024122I-10128J-705D01*
G01X457957Y3024122D01*
G03X456495Y3019206I8343J-5156D01*
G01X456495Y3019206D01*
G03X457202Y3012712I24623J-605D01*
G01X457202Y3012712D01*
G03X459825Y3005725I30875J7602D01*
G03X464064Y2999320I31649J16345D01*
G01X464064Y2999320D01*
G02X468381Y2993265I-39053J-32410D01*
G01X468381Y2993265D01*
G02X471189Y2987313I-26743J-16253D01*
G01X471189Y2987313D01*
G02X472217Y2982315I-18244J-6359D01*
G01X472217Y2982315D01*
G02X471066Y2979232I-3955J-279D01*
G02X462638Y2980054I-3876J3876D01*
G01X462638Y2980054D01*
G02X444758Y3009151I353831J237461D01*
G02X428083Y3043053I306491J171803D01*
G02X418784Y3072500I145951J62280D01*
G02X415981Y3098095I127016J26863D01*
G02X423371Y3104874I6744J66D01*
G01X423371Y3104874D01*
G02X435569Y3097093I-1525J-15842D01*
G01X435569Y3097093D01*
G02X449328Y3069560I-196284J-115294D01*
G01X1133806Y3100000D02*
G01X1134724Y3102323D01*
G01X1134724Y3102323D01*
G01X1136654Y3102656D01*
G01X1136654Y3102656D01*
G02X1139756Y3100142I-4500J-8724D01*
G01X1139756Y3100142D01*
G02X1143500Y3095000I-44340J-36216D01*
G02X1147210Y3088523I-58598J-37867D01*
G02X1150346Y3081469I-71250J-35898D01*
G01X1150346Y3081469D01*
G02X1152532Y3074873I-64907J-25167D01*
G02X1153194Y3070000I-17606J-4874D01*
G01X1153194Y3070000D01*
G01X1152276Y3067677D01*
G01X1150346Y3067344D01*
G01X1150346Y3067344D01*
G02X1147244Y3069858I4500J8724D01*
G01X1147244Y3069858D01*
G02X1143500Y3075000I44338J36216D01*
G01X1143500Y3075000D01*
G02X1139790Y3081477I58598J37867D01*
G01X1139790Y3081477D01*
G02X1136654Y3088531I71252J35898D01*
G01X1136654Y3088531D01*
G02X1134468Y3095127I64907J25167D01*
G01X1134468Y3095127D01*
G02X1133806Y3100000I17605J4874D01*
G01X1405257Y3087500D02*
G02X1404369Y3090371I10689J4879D01*
G01X1404369Y3090371D01*
G01X1404523Y3092797D01*
G01X1404523Y3092797D01*
G01X1405669Y3094390D01*
G01X1405669Y3094390D01*
G01X1407566Y3095000D01*
G01X1407566Y3095000D01*
G02X1410830Y3093116I0J-3769D01*
G01X1410830Y3093116D01*
G02X1425195Y3067961I-2532478J-1462878D01*
G02X1441393Y3038240I-986922J-557138D01*
G02X1459528Y3002954I-1886031J-991616D01*
G01X1459528Y3002954D01*
G01X1505756Y2910908D01*
G01X1476461Y2885454D01*
G02X1462450Y2873454I-846881J974693D01*
G01X1444218Y2858169D01*
G01X1425032Y2842304D01*
G02X1407833Y2828314I-1485569J1808767D01*
G01X1407833Y2828314D01*
G01X1368500Y2796628D01*
G01X1427071Y2738314D01*
G01X1427071Y2738314D01*
G03X1448866Y2717365I606606J609286D01*
G01X1448866Y2717365D01*
G03X1465081Y2703739I146445J157818D01*
G01X1465081Y2703739D01*
G03X1472379Y2700208I12404J16330D01*
G03X1474219Y2702500I402J1562D01*
G01X1474219Y2702500D01*
G02X1468306Y2717418I77527J39359D01*
G01X1468306Y2717418D01*
G02X1470880Y2724170I5736J1680D01*
G02X1478562Y2723943I3670J-5889D01*
G02X1491333Y2713167I-57223J-80771D01*
G01X1491333Y2713167D01*
G03X1503581Y2705088I25817J25817D01*
G03X1509730Y2708695I1676J4188D01*
G03X1506961Y2722317I-21294J2764D01*
G01X1506961Y2722317D01*
G03X1494656Y2738769I-79281J-46470D01*
G01X1472400Y2762460D01*
G01X1537950Y2809235D01*
G01X1537950Y2809235D01*
G03X1563078Y2827471I-1127680J1580308D01*
G01X1563078Y2827471D01*
G03X1584245Y2843512I-619629J839609D01*
G01X1584245Y2843512D01*
G01X1602235Y2857624D01*
G03X1603500Y2860238I-2067J2614D01*
G01X1603500Y2860238D01*
G03X1602885Y2863199I-7441J0D01*
G01X1602885Y2863199D01*
G03X1596985Y2876634I-1477263J-640824D01*
G01X1596985Y2876634D01*
G03X1589819Y2892318I-777221J-345606D01*
G01X1589819Y2892318D01*
G03X1581320Y2910118I-1315845J-617346D01*
G01X1581320Y2910118D01*
G01X1559140Y2955772D01*
G01X1588820Y2979585D01*
G01X1588820Y2979585D01*
G02X1615077Y2999298I319415J-398109D01*
G01X1615077Y2999298D01*
G02X1643698Y3018197I348975J-497380D01*
G01X1643698Y3018197D01*
G02X1670120Y3034075I570069J-918700D01*
G02X1673500Y3032130I1131J-1945D01*
G01X1673500Y3032130D01*
G02X1672322Y3029716I-3064J0D01*
G02X1658818Y3019299I-850370J1088391D01*
G01X1658818Y3019299D01*
G02X1642677Y3007412I-377243J495338D01*
G02X1623519Y2994065I-662416J930445D01*
G03X1604366Y2980439I329216J-483021D01*
G01X1604366Y2980439D01*
G03X1588215Y2967686I205213J-276515D01*
G01X1588215Y2967686D01*
G03X1575508Y2956583I272402J-324570D01*
G01X1575508Y2956583D01*
G03X1573519Y2952102I4090J-4496D01*
G01X1573519Y2952102D01*
G03X1574450Y2947149I13468J-33D01*
G01X1574450Y2947149D01*
G03X1579583Y2934611I430486J168916D01*
G03X1586266Y2919758I382079J162991D01*
G01X1586266Y2919758D01*
G03X1594189Y2903650I553490J262217D01*
G02X1606432Y2878306I-577075J-294407D01*
G02X1609430Y2866154I-30718J-14024D01*
G02X1606939Y2856416I-16664J-925D01*
G02X1597507Y2843903I-74320J46208D01*
G01X1597507Y2843903D01*
G02X1587942Y2834689I-71897J65065D01*
G02X1572520Y2822312I-290702J346426D01*
G02X1554688Y2809235I-310095J404176D01*
G02X1536836Y2797354I-258489J369034D01*
G03X1520245Y2786265I206686J-327170D01*
G01X1520245Y2786265D01*
G03X1506250Y2775572I135806J-192255D01*
G01X1506250Y2775572D01*
G03X1495512Y2766173I155680J-188685D01*
G01X1495512Y2766173D01*
G03X1493518Y2761613I4244J-4573D01*
G01X1493518Y2761613D01*
G03X1495186Y2756365I9029J-19D01*
G01X1495186Y2756365D01*
G03X1506724Y2740579I589776J418958D01*
G01X1506724Y2740579D01*
G03X1521260Y2722104I428537J322204D01*
G03X1538500Y2701785I682088J561272D01*
G02X1555744Y2681598I-849188J-742843D01*
G01X1555744Y2681598D01*
G02X1570281Y2663531I-505535J-421654D01*
G02X1582096Y2648020I-854104J-662798D01*
G02X1583500Y2643797I-5649J-4223D01*
G01X1583500Y2643797D01*
G02X1581454Y2640310I-3995J0D01*
G01X1581454Y2640310D01*
G02X1564301Y2631014I-364531J652155D01*
G01X1564301Y2631014D01*
G02X1543193Y2620592I-219143J417281D01*
G02X1518140Y2609472I-362687J783317D01*
G01X1518140Y2609472D01*
G01X1452781Y2581694D01*
G01X1484749Y2548711D01*
G01X1516718Y2515728D01*
G01X1489458Y2505364D01*
G01X1489458Y2505364D01*
G02X1478336Y2501397I-101597J267236D01*
G02X1467459Y2498045I-78089J234053D01*
G01X1467459Y2498045D01*
G02X1458091Y2495611I-60471J213584D01*
G02X1452849Y2495000I-5241J22161D01*
G01X1452849Y2495000D01*
G03X1449167Y2493088I0J-4500D01*
G03X1445874Y2486922I23469J-16499D01*
G03X1443399Y2478033I44480J-17172D01*
G01X1443399Y2478033D01*
G03X1442232Y2467500I81242J-14333D01*
G01X1442232Y2467500D01*
G01X1440729Y2465623D01*
G01X1440729Y2465623D01*
G01X1438925Y2466663D01*
G01X1438925Y2466663D01*
G02X1436011Y2480522I132172J35023D01*
G02X1432754Y2503269I860952J134896D01*
G03X1423008Y2562533I-877486J-113869D01*
G01X1423008Y2562533D01*
G03X1410799Y2605073I-263163J-52505D01*
G01X1410799Y2605073D01*
G03X1394522Y2636957I-152527J-57769D01*
G03X1372437Y2662522I-108439J-71353D01*
G02X1361364Y2673794I79176J88859D01*
G01X1361364Y2673794D01*
G02X1352000Y2686327I86723J74558D01*
G01X1352000Y2686327D01*
G02X1345474Y2698262I78574J50720D01*
G01X1345474Y2698262D01*
G02X1343500Y2707351I19944J9090D01*
G01X1343500Y2707351D01*
G03X1337484Y2730476I-47452J0D01*
G03X1312191Y2772013I-560044J-312556D01*
G01X1312191Y2772013D01*
G03X1281560Y2814034I-481811J-319038D01*
G01X1281560Y2814034D01*
G03X1252354Y2845000I-204717J-163826D01*
G01X1252354Y2845000D01*
G02X1240991Y2857376I59487J66023D01*
G01X1240991Y2857376D01*
G02X1229798Y2874021I142623J107988D01*
G01X1229798Y2874021D01*
G02X1220410Y2892049I156788J93112D01*
G01X1220410Y2892049D01*
G02X1214532Y2908689I94943J42897D01*
G01X1214532Y2908689D01*
G02X1210900Y2923283I669344J174328D01*
G01X1210900Y2923283D01*
G02X1208400Y2934929I268022J63615D01*
G01X1208400Y2934929D01*
G02X1206971Y2943292I202938J38983D01*
G01X1206971Y2943292D01*
G01X1207808Y2943689D01*
G01X1207808Y2943689D01*
G02X1210239Y2940593I-20237J-18394D01*
G01X1210239Y2940593D01*
G01X1238568Y2898593D01*
G01X1238568Y2898593D01*
G01X1270519Y2851068D01*
G01X1270519Y2851068D01*
G01X1307813Y2795351D01*
G01X1307813Y2795351D01*
G01X1345098Y2739666D01*
G01X1345098Y2739666D01*
G01X1377021Y2692245D01*
G01X1377021Y2692245D01*
G01X1405394Y2650259D01*
G01X1405394Y2650259D01*
G03X1407690Y2647477I15681J10602D01*
G03X1415156Y2646036I4798J4798D01*
G03X1437652Y2656588I-142189J332386D01*
G01X1437652Y2656588D01*
G03X1459362Y2668693I-158743J310219D01*
G03X1463500Y2676035I-4444J7342D01*
G03X1461770Y2681032I-8081J0D01*
G01X1461770Y2681032D01*
G03X1447359Y2698996I-951648J-748671D01*
G03X1429608Y2719901I-577382J-472290D01*
G01X1429608Y2719901D01*
G03X1408550Y2743212I-961038J-846947D01*
G01X1353601Y2802564D01*
G01X1423550Y2855743D01*
G01X1423550Y2855743D01*
G03X1450367Y2876364I-1850493J2434132D01*
G01X1450367Y2876364D01*
G03X1472952Y2894258I-992327J1275726D01*
G01X1472952Y2894258D01*
G01X1492512Y2910104D01*
G01X1492512Y2910104D01*
G01X1493500Y2912182D01*
G01X1493500Y2912182D01*
G01X1492935Y2914608D01*
G01X1492935Y2914608D01*
G01X1481042Y2938655D01*
G03X1467348Y2965946I-2846258J-1411133D01*
G01X1467348Y2965946D01*
G01X1451090Y2997722D01*
G01X1451090Y2997722D01*
G01X1434591Y3029793D01*
G01X1434591Y3029793D01*
G01X1420133Y3058034D01*
G01X1420133Y3058034D01*
G01X1407856Y3082113D01*
G01X1407856Y3082113D01*
G02X1405257Y3087500I124783J63535D01*
G01X1153806Y3050000D02*
G01X1154724Y3052323D01*
G01X1154724Y3052323D01*
G01X1156654Y3052656D01*
G01X1156654Y3052656D01*
G02X1159756Y3050142I-4500J-8724D01*
G01X1159756Y3050142D01*
G02X1163500Y3045000I-44340J-36216D01*
G02X1167210Y3038523I-58598J-37867D01*
G01X1167210Y3038523D01*
G02X1170346Y3031469I-71252J-35898D01*
G01X1170346Y3031469D01*
G02X1172532Y3024873I-64907J-25167D01*
G01X1172532Y3024873D01*
G02X1173194Y3020000I-17605J-4874D01*
G01X1173194Y3020000D01*
G01X1172276Y3017677D01*
G01X1172276Y3017677D01*
G01X1170346Y3017344D01*
G01X1170346Y3017344D01*
G02X1167244Y3019858I4500J8724D01*
G01X1167244Y3019858D01*
G02X1163500Y3025000I44340J36214D01*
G01X1163500Y3025000D01*
G02X1159790Y3031477I58597J37870D01*
G01X1159790Y3031477D01*
G02X1156654Y3038531I71250J35898D01*
G02X1154468Y3045127I64910J25167D01*
G02X1153806Y3050000I17605J4874D01*
G01X1183500Y2975590D02*
G02X1184677Y2982983I23808J0D01*
G01X1184677Y2982983D01*
G02X1187915Y2984426I2272J-742D01*
G02X1192447Y2980200I-3822J-8642D01*
G01X1192447Y2980200D01*
G02X1197316Y2969481I-86918J-45942D01*
G01X1197316Y2969481D01*
G02X1199069Y2963683I-38882J-14921D01*
G01X1199069Y2963683D01*
G02X1198757Y2960125I-5744J-1289D01*
G01X1198757Y2960125D01*
G01X1196759Y2958931D01*
G02X1193385Y2960071I771J7846D01*
G01X1193385Y2960071D01*
G02X1189604Y2963106I10410J16842D01*
G02X1186404Y2967150I18100J17613D01*
G01X1186404Y2967150D01*
G02X1184225Y2971539I19450J12389D01*
G01X1184225Y2971539D01*
G02X1183500Y2975590I10952J4051D01*
G01X1000116Y2938817D02*
G02X1012084Y2944676I76784J-141687D01*
G02X1024568Y2949566I66451J-151268D01*
G01X1024568Y2949566D01*
G02X1035845Y2952949I46526J-134625D01*
G02X1043500Y2953810I6930J-27130D01*
G02X1049976Y2953440I-2698J-103977D01*
G01X1049976Y2953440D01*
G01X1051665Y2952267D01*
G01X1051143Y2950722D01*
G01X1051143Y2950722D01*
G02X1046080Y2948404I-28046J54577D01*
G03X1040916Y2944774I5213J-12905D01*
G01X1040916Y2944774D01*
G03X1038754Y2939676I6403J-5723D01*
G01X1038754Y2939676D01*
G03X1039716Y2932370I18163J-1325D01*
G01X1039716Y2932370D01*
G03X1044132Y2921693I94859J32981D01*
G01X1044132Y2921693D01*
G01X1051458Y2906444D01*
G01X1051090Y2905542D01*
G01X1051090Y2905542D01*
G01X1049952Y2905859D01*
G01X1038804Y2919751D01*
G01X1038804Y2919751D01*
G03X1029402Y2930011I-81130J-64902D01*
G01X1029402Y2930011D01*
G03X1022135Y2933731I-9893J-10367D01*
G01X1022135Y2933731D01*
G03X1014150Y2932817I-2506J-13445D01*
G01X1014150Y2932817D01*
G03X1002278Y2926558I36844J-84267D01*
G02X993982Y2921958I-48321J77370D01*
G02X986198Y2918859I-24438J50055D01*
G01X986198Y2918859D01*
G02X979852Y2917443I-11569J36917D01*
G02X976642Y2918525I-515J3777D01*
G01X976642Y2918525D01*
G02X976504Y2921383I1505J1505D01*
G02X981512Y2926511I32797J-27018D01*
G01X981512Y2926511D01*
G02X989582Y2932566I47745J-55230D01*
G01X989582Y2932566D01*
G02X1000116Y2938817I85461J-132006D01*
G01X1063818Y2929386D02*
G01X1065545Y2930942D01*
G02X1069764Y2929391I-1450J-10462D01*
G02X1076451Y2924243I-25349J-39845D01*
G01X1076451Y2924243D01*
G02X1084506Y2916225I-102527J-111043D01*
G01X1084506Y2916225D01*
G02X1092111Y2907142I-81918J-76317D01*
G01X1092111Y2907142D01*
G02X1097546Y2898506I-49577J-37234D01*
G01X1097546Y2898506D01*
G02X1100388Y2891400I-34381J-17873D01*
G02X1099402Y2887569I-3737J-1081D01*
G02X1092298Y2887287I-3704J3705D01*
G02X1079298Y2900301I74846J87767D01*
G01X1079298Y2900301D01*
G02X1067613Y2916558I93275J79372D01*
G01X1067613Y2916558D01*
G02X1063818Y2929386I22832J13730D01*
G01X533500Y2907405D02*
G02X535170Y2912726I9308J0D01*
G02X538832Y2913608I2328J-1622D01*
G02X545916Y2908244I-13215J-24810D01*
G02X559450Y2893583I-389660J-373298D01*
G01X573003Y2878279D01*
G01X573251Y2876619D01*
G01X573251Y2876619D01*
G01X571989Y2876229D01*
G01X571989Y2876229D01*
G01X556000Y2885989D01*
G01X556000Y2885989D01*
G02X547385Y2891837I59908J97515D01*
G02X540109Y2897982I48002J64221D01*
G02X534857Y2903624I43974J46198D01*
G01X534857Y2903624D01*
G02X533500Y2907405I4589J3781D01*
G01X956595Y2879189D02*
G02X966134Y2896525I130967J-60776D01*
G01X966134Y2896525D01*
G02X974955Y2903932I16356J-10521D01*
G01X974955Y2903932D01*
G02X981039Y2901586I1822J-4336D01*
G02X983500Y2890497I-23756J-11089D01*
G01X983500Y2890497D01*
G02X982230Y2884136I-16567J0D01*
G01X982230Y2884136D01*
G02X978359Y2877000I-36466J15162D01*
G01X978359Y2877000D01*
G02X972694Y2870229I-37724J25808D01*
G01X972694Y2870229D01*
G02X966000Y2864917I-28191J28648D01*
G01X966000Y2864917D01*
G03X958308Y2859416I44830J-70823D01*
G01X958308Y2859416D01*
G03X955444Y2855187I5446J-6774D01*
G03X956351Y2851659I3339J-1022D01*
G01X956351Y2851659D01*
G03X961000Y2848586I10480J10803D01*
G01X961000Y2848586D01*
G02X969272Y2842743I-9104J-21663D01*
G02X973179Y2834537I-11588J-10550D01*
G01X973179Y2834537D01*
G02X971145Y2827885I-7956J-1204D01*
G01X971145Y2827885D01*
G02X964570Y2825000I-6575J6049D01*
G01X964570Y2825000D01*
G02X955162Y2829754I0J11687D01*
G01X955162Y2829754D01*
G02X950011Y2842263I22497J16578D01*
G01X950011Y2842263D01*
G02X950422Y2860133I52539J7732D01*
G02X956595Y2879189I81321J-15815D01*
G01X501625Y2888169D02*
G02X497458Y2890384I8129J20316D01*
G01X497286Y2892207D01*
G02X500203Y2893620I3493J-3493D01*
G02X507667Y2894211I11543J-98421D01*
G01X507667Y2894211D01*
G02X514628Y2894101I2516J-61096D01*
G01X514628Y2894101D01*
G02X519428Y2892993I-1168J-16021D01*
G02X521254Y2891147I-1209J-3020D01*
G01X520792Y2888958D01*
G02X517522Y2887026I-5394J5394D01*
G01X517522Y2887026D01*
G02X512669Y2886234I-5695J19636D01*
G02X507094Y2886608I-1066J25853D01*
G02X501625Y2888169I4836J27307D01*
G01X461625Y2878169D02*
G02X457458Y2880384I8130J20315D01*
G01X457458Y2880384D01*
G01X457286Y2882207D01*
G02X460204Y2883620I3493J-3493D01*
G01X460204Y2883620D01*
G02X467667Y2884211I11543J-98417D01*
G02X474628Y2884101I2517J-61098D01*
G01X474628Y2884101D01*
G02X479428Y2882993I-1168J-16020D01*
G02X481254Y2881147I-1209J-3021D01*
G01X481254Y2881147D01*
G01X480792Y2878958D01*
G01X480792Y2878958D01*
G02X477522Y2877026I-5394J5394D01*
G01X477522Y2877026D01*
G02X472669Y2876234I-5695J19636D01*
G02X467094Y2876608I-1066J25853D01*
G01X467094Y2876608D01*
G02X461625Y2878169I4834J27308D01*
G01X413500Y2865000D02*
G02X419977Y2868710I37867J-58598D01*
G01X419977Y2868710D01*
G02X427031Y2871846I35898J-71250D01*
G01X427031Y2871846D01*
G02X433627Y2874032I25167J-64907D01*
G02X438500Y2874694I4874J-17606D01*
G01X438500Y2874694D01*
G01X440823Y2873776D01*
G01X441156Y2871846D01*
G02X438642Y2868744I-8724J4500D01*
G01X438642Y2868744D01*
G02X433500Y2865000I-36214J44338D01*
G01X433500Y2865000D01*
G02X427023Y2861290I-37870J58597D01*
G01X427023Y2861290D01*
G02X419969Y2858154I-35898J71252D01*
G01X419969Y2858154D01*
G02X413373Y2855968I-25167J64907D01*
G02X408500Y2855306I-4874J17605D01*
G01X408500Y2855306D01*
G01X406177Y2856224D01*
G01X405844Y2858154D01*
G01X405844Y2858154D01*
G02X408358Y2861256I8724J-4500D01*
G02X413500Y2865000I36216J-44340D01*
G01X363500Y2845000D02*
G02X369977Y2848710I37870J-58600D01*
G01X369977Y2848710D01*
G02X377031Y2851846I35898J-71250D01*
G01X377031Y2851846D01*
G02X383627Y2854032I25167J-64907D01*
G02X388500Y2854694I4874J-17606D01*
G01X388500Y2854694D01*
G01X390823Y2853776D01*
G01X390823Y2853776D01*
G01X391156Y2851846D01*
G01X391156Y2851846D01*
G02X388642Y2848744I-8724J4500D01*
G01X388642Y2848744D01*
G02X383500Y2845000I-36216J44338D01*
G02X377023Y2841290I-37867J58600D01*
G01X377023Y2841290D01*
G02X369969Y2838154I-35898J71250D01*
G01X369969Y2838154D01*
G02X363373Y2835968I-25167J64907D01*
G01X363373Y2835968D01*
G02X358500Y2835306I-4874J17606D01*
G01X358500Y2835306D01*
G01X356177Y2836224D01*
G01X356177Y2836224D01*
G01X355844Y2838154D01*
G01X355844Y2838154D01*
G02X358358Y2841256I8724J-4500D01*
G02X363500Y2845000I36214J-44338D01*
G01X313500Y2833602D02*
G02X314769Y2837949I8079J0D01*
G01X314769Y2837949D01*
G02X318335Y2841652I10985J-7010D01*
G02X323668Y2844147I10020J-14470D01*
G01X323668Y2844147D01*
G02X329960Y2845000I6291J-22777D01*
G02X335817Y2843376I0J-11371D01*
G02X337049Y2839606I-1560J-2596D01*
G01X337049Y2839606D01*
G02X332397Y2832603I-20705J8708D01*
G01X332397Y2832603D01*
G02X319445Y2820000I-265019J259380D01*
G01X319445Y2820000D01*
G02X308603Y2810448I-195387J210830D01*
G01X308603Y2810448D01*
G02X298342Y2802437I-121765J145408D01*
G02X289545Y2796413I-111765J153780D01*
G01X289545Y2796413D01*
G02X285485Y2795318I-3745J5812D01*
G01X285485Y2795318D01*
G01X284437Y2796636D01*
G01X284437Y2796636D01*
G02X285692Y2799445I6420J-1184D01*
G02X289752Y2803790I25209J-19487D01*
G01X289752Y2803790D01*
G02X296000Y2808920I70152J-79053D01*
G01X296000Y2808920D01*
G03X302696Y2814846I-36045J47483D01*
G01X302696Y2814846D01*
G03X308359Y2821651I-41095J39958D01*
G01X308359Y2821651D01*
G03X312286Y2828299I-37854J26839D01*
G03X313500Y2833602I-10974J5304D01*
G01X1027961Y2834129D02*
G02X1034887Y2843379I55261J-34155D01*
G01X1034887Y2843379D01*
G02X1039610Y2843895I2649J-2379D01*
G01X1039610Y2843895D01*
G02X1042796Y2838336I-4486J-6264D01*
G01X1042796Y2838336D01*
G02X1043500Y2823000I-166727J-15336D01*
G01X1043500Y2823000D01*
G02X1043029Y2812706I-112807J-0D01*
G01X1043029Y2812706D01*
G02X1041000Y2808442I-6803J624D01*
G01X1041000Y2808442D01*
G02X1037636Y2808039I-1944J1990D01*
G01X1037636Y2808039D01*
G02X1032371Y2812129I13633J22987D01*
G01X1032371Y2812129D01*
G02X1028623Y2817198I15055J15055D01*
G01X1028623Y2817198D01*
G02X1026485Y2823182I19395J10300D01*
G01X1026485Y2823182D01*
G02X1026233Y2829137I18870J3783D01*
G02X1027961Y2834129I12014J-1365D01*
G01X963537Y2809167D02*
G02X964989Y2812672I4911J20D01*
G02X967540Y2812520I1207J-1216D01*
G01X967540Y2812520D01*
G02X973734Y2803630I-69321J-54904D01*
G01X973734Y2803630D01*
G01X992579Y2772500D01*
G02X1000807Y2758112I-323271J-194418D01*
G01X1000807Y2758112D01*
G02X1006755Y2746016I-146289J-79441D01*
G02X1010434Y2736794I-123000J-54414D01*
G01X1009169Y2735000D01*
G01X1009169Y2735000D01*
G02X1001775Y2738965I-0J8876D01*
G01X1001775Y2738965D01*
G02X983550Y2767466I811982J539284D01*
G01X983550Y2767466D01*
G02X966942Y2796009I572036J351946D01*
G02X963537Y2809167I24153J13270D01*
G01X356000Y2798377D02*
G03X360817Y2800368I-117516J291225D01*
G01X360817Y2800368D01*
G03X364933Y2802171I-67849J160412D01*
G03X368429Y2803777I-167284J368759D01*
G01X368857Y2804211D01*
G01X368857Y2804211D01*
G01X369002Y2804181D01*
G01X369109Y2799227D01*
G02X369189Y2793316I-467124J-9219D01*
G01X369189Y2793316D01*
G01X369214Y2786136D01*
G02X368337Y2778827I-30872J0D01*
G01X368337Y2778827D01*
G02X365664Y2773843I-10968J2673D01*
G01X365664Y2773843D01*
G02X361514Y2771644I-5203J4802D01*
G01X361514Y2771644D01*
G02X356357Y2772206I-1512J10060D01*
G02X347256Y2777848I10236J26674D01*
G01X347256Y2777848D01*
G02X343970Y2785197I6884J7488D01*
G01X343970Y2785197D01*
G02X347062Y2792593I10064J137D01*
G02X356000Y2798377I19440J-20243D01*
G01X311000Y2718377D02*
G02X308906Y2720250I1549J3838D01*
G01X308906Y2720250D01*
G01X309516Y2721939D01*
G01X309516Y2721939D01*
G02X314586Y2723109I6235J-15451D01*
G02X323500Y2723421I8914J-127220D01*
G01X323500Y2723421D01*
G02X332414Y2723109I0J-127532D01*
G02X337484Y2721939I-1164J-16621D01*
G01X337484Y2721939D01*
G01X338094Y2720250D01*
G01X338094Y2720250D01*
G02X336000Y2718377I-3643J1965D01*
G01X336000Y2718377D01*
G02X330300Y2716814I-9567J23712D01*
G01X330300Y2716814D01*
G02X323500Y2716297I-6801J44437D01*
G02X316700Y2716814I1J44954D01*
G01X316700Y2716814D01*
G02X311000Y2718377I3866J25275D01*
G01X381625Y2708169D02*
G02X377458Y2710384I8130J20316D01*
G01X377458Y2710384D01*
G01X377286Y2712207D01*
G02X380203Y2713620I3493J-3493D01*
G02X387667Y2714210I11539J-98421D01*
G01X387667Y2714210D01*
G02X394628Y2714100I2516J-61096D01*
G01X394628Y2714100D01*
G02X399428Y2712993I-1168J-16021D01*
G01X399428Y2712993D01*
G02X401254Y2711147I-1209J-3020D01*
G01X400792Y2708958D01*
G02X397522Y2707026I-5394J5394D01*
G02X392669Y2706234I-5693J19636D01*
G01X392669Y2706234D01*
G02X387094Y2706609I-1066J25853D01*
G02X381625Y2708169I4834J27307D01*
G01X603653Y2703090D02*
G02X603970Y2712615I196956J-1782D01*
G01X603970Y2712615D01*
G01X605493Y2714358D01*
G01X605493Y2714358D01*
G01X607806Y2713427D01*
G01X607806Y2713427D01*
G02X613500Y2705000I-203219J-143433D01*
G02X620840Y2691808I-96126J-62123D01*
G01X620840Y2691808D01*
G02X622992Y2682223I-20269J-9585D01*
G01X622992Y2682223D01*
G02X619910Y2678665I-3594J-0D01*
G01X619910Y2678665D01*
G02X613500Y2680000I-1367J9495D01*
G02X609680Y2683596I6887J11142D01*
G01X609680Y2683596D01*
G02X606482Y2689332I25504J17976D01*
G01X606482Y2689332D01*
G02X604336Y2696164I33419J14251D01*
G01X604336Y2696164D01*
G02X603653Y2703090I31789J6633D01*
G01X436190Y2698070D02*
G02X432334Y2699833I3090J11858D01*
G01X432509Y2701435D01*
G02X437818Y2702644I6392J-15802D01*
G01X437818Y2702644D01*
G02X448500Y2703050I13258J-208017D01*
G01X448500Y2703050D01*
G02X459301Y2702873I2318J-187632D01*
G01X459301Y2702873D01*
G02X466071Y2701849I-1478J-32681D01*
G01X466071Y2701849D01*
G01X467360Y2700229D01*
G01X467360Y2700229D01*
G01X466190Y2698441D01*
G01X466190Y2698441D01*
G02X460211Y2696856I-9275J22925D01*
G02X452300Y2696277I-8719J64837D01*
G01X452300Y2696277D01*
G02X443866Y2696671I-884J71591D01*
G01X443866Y2696671D01*
G02X436190Y2698070I5517J52025D01*
G01X511000Y2687943D02*
G02X507900Y2689530I1180J6125D01*
G01X508328Y2691003D01*
G01X508328Y2691003D01*
G02X517385Y2692016I10926J-56722D01*
G01X517385Y2692016D01*
G02X533500Y2692276I16113J-498004D01*
G02X549615Y2692016I2J-498257D01*
G01X549615Y2692016D01*
G02X558672Y2691003I-1869J-57736D01*
G01X558672Y2691003D01*
G01X559100Y2689530D01*
G01X559100Y2689530D01*
G02X556000Y2687943I-4280J4538D01*
G02X545753Y2686594I-16471J85523D01*
G01X545753Y2686594D01*
G02X533500Y2686155I-12255J170979D01*
G01X533500Y2686155D01*
G02X521247Y2686594I2J171418D01*
G01X521247Y2686594D01*
G02X511000Y2687943I6224J86874D01*
G01X624906Y2655000D02*
G02X625462Y2660026I22987J0D01*
G01X625462Y2660026D01*
G01X627171Y2660773D01*
G02X629751Y2658035I-3327J-5718D01*
G01X629751Y2658035D01*
G02X633500Y2650000I-128839J-65011D01*
G01X633500Y2650000D01*
G02X636791Y2641244I-92740J-39854D01*
G01X636791Y2641244D01*
G02X639570Y2631469I-133634J-43270D01*
G01X639570Y2631469D01*
G02X641495Y2622160I-125243J-30753D01*
G01X641495Y2622160D01*
G02X642094Y2615000I-42456J-7160D01*
G01X642094Y2615000D01*
G02X641538Y2609973I-22989J-0D01*
G01X641538Y2609973D01*
G01X639829Y2609227D01*
G02X637249Y2611965I3327J5718D01*
G01X637249Y2611965D01*
G02X633500Y2620000I128843J65015D01*
G01X633500Y2620000D01*
G02X630209Y2628756I92738J39851D01*
G02X627430Y2638531I133634J43270D01*
G02X625505Y2647841I125247J30753D01*
G01X625505Y2647841D01*
G02X624906Y2655000I42456J7160D01*
G01X645079Y2565000D02*
G02X645391Y2573914I127532J0D01*
G01X645391Y2573914D01*
G02X646561Y2578984I16621J-1164D01*
G01X646561Y2578984D01*
G01X648250Y2579594D01*
G02X650123Y2577500I-1965J-3643D01*
G01X650123Y2577500D01*
G02X651686Y2571800I-23711J-9568D01*
G01X651686Y2571800D01*
G02X652203Y2565000I-44439J-6799D01*
G01X652203Y2565000D01*
G02X651686Y2558200I-44954J-1D01*
G02X650123Y2552500I-25274J3868D01*
G02X648250Y2550406I-3839J1549D01*
G01X648250Y2550406D01*
G01X646561Y2551016D01*
G02X645391Y2556086I15450J6234D01*
G01X645391Y2556086D01*
G02X645079Y2565000I127220J8914D01*
G01X655820Y2485000D02*
G02X656097Y2497520I282971J-0D01*
G02X657164Y2504578I33805J-1497D01*
G01X657164Y2504578D01*
G01X658710Y2505092D01*
G01X658710Y2505092D01*
G02X660393Y2502500I-3063J-3832D01*
G01X660393Y2502500D01*
G02X661815Y2494527I-49579J-12957D01*
G01X661815Y2494527D01*
G02X662280Y2485000I-97498J-9527D01*
G01X662280Y2485000D01*
G02X661815Y2475473I-97965J-1D01*
G01X661815Y2475473D01*
G02X660393Y2467500I-51001J4984D01*
G02X658710Y2464909I-4746J1240D01*
G01X657164Y2465422D01*
G02X656097Y2472480I32739J8556D01*
G02X655820Y2485000I282700J12520D01*
G01X664290Y2419167D02*
G02X664399Y2426128I61098J2517D01*
G01X664399Y2426128D01*
G02X665507Y2430928I16020J-1168D01*
G01X665507Y2430928D01*
G02X667353Y2432754I3020J-1209D01*
G01X669542Y2432292D01*
G01X669542Y2432292D01*
G02X671474Y2429022I-5394J-5394D01*
G01X671474Y2429022D01*
G02X672266Y2424169I-19636J-5695D01*
G01X672266Y2424169D01*
G02X671891Y2418594I-25854J-1064D01*
G01X671891Y2418594D01*
G02X670331Y2413125I-27307J4834D01*
G01X670331Y2413125D01*
G02X668116Y2408958I-20315J8129D01*
G01X668116Y2408958D01*
G01X666293Y2408786D01*
G02X664880Y2411703I3493J3493D01*
G01X664880Y2411703D01*
G02X664290Y2419167I98421J11543D01*
G01X1420712Y2398223D02*
G02X1424240Y2416896I597388J-103208D01*
G01X1424240Y2416896D01*
G02X1427025Y2424401I25742J-5283D01*
G01X1427025Y2424401D01*
G01X1429387Y2424300D01*
G01X1429387Y2424300D01*
G02X1431418Y2417441I-24342J-10936D01*
G01X1431418Y2417441D01*
G02X1431660Y2406573I-41081J-6353D01*
G01X1431660Y2406573D01*
G02X1429269Y2392263I-127190J13899D01*
G01X1429269Y2392263D01*
G02X1424958Y2377113I-139921J31630D01*
G01X1424958Y2377113D01*
G02X1419203Y2363405I-107708J37154D01*
G01X1419203Y2363405D01*
G03X1413181Y2350182I183799J-91691D01*
G01X1413181Y2350182D01*
G03X1408068Y2336485I194645J-80463D01*
G03X1404430Y2324180I173572J-58011D01*
G01X1404430Y2324180D01*
G03X1403347Y2315964I33125J-8544D01*
G02X1403009Y2307736I-130853J1256D01*
G01X1401505Y2305907D01*
G01X1399252Y2306700D01*
G02X1394597Y2313568I108861J78796D01*
G01X1394597Y2313568D01*
G03X1390287Y2319179I-33190J-21031D01*
G01X1390287Y2319179D01*
G03X1386419Y2321258I-4944J-4560D01*
G03X1382763Y2320245I-726J-4485D01*
G01X1382763Y2320245D01*
G03X1379160Y2316068I11295J-13385D01*
G02X1375660Y2311842I-16953J10478D01*
G01X1375660Y2311842D01*
G02X1370830Y2308284I-19120J20896D01*
G01X1370830Y2308284D01*
G02X1365472Y2305885I-13743J23517D01*
G02X1360410Y2305111I-4913J15188D01*
G02X1358741Y2307379I16J1760D01*
G02X1361545Y2312713I15195J-4584D01*
G01X1361545Y2312713D01*
G02X1369327Y2320978I55215J-44192D01*
G01X1369327Y2320978D01*
G02X1380997Y2330834I151416J-167462D01*
G01X1380997Y2330834D01*
G03X1396511Y2345117I-85203J108107D01*
G01X1396511Y2345117D01*
G03X1407723Y2360136I-63191J58867D01*
G01X1407723Y2360136D01*
G03X1415509Y2377343I-75753J44644D01*
G01X1415509Y2377343D01*
G03X1420712Y2398223I-139895J45946D01*
G01X716161Y2340353D02*
G01X678500Y2376270D01*
G01X725082Y2341920D01*
G03X780174Y2310616I158823J215381D01*
G01X780174Y2310616D01*
G03X833180Y2299252I56559J134505D01*
G01X833180Y2299252D01*
G03X887915Y2307890I3750J153967D01*
G01X887915Y2307890D01*
G03X948260Y2336484I-105353J300307D01*
G02X961306Y2343482I69768J-114408D01*
G01X961306Y2343482D01*
G02X975492Y2349267I65016J-139156D01*
G01X975492Y2349267D01*
G02X988733Y2353157I44332J-126412D01*
G01X988733Y2353157D01*
G02X998500Y2354103I8298J-34777D01*
G01X998500Y2354103D01*
G02X1008403Y2353426I-7501J-182524D01*
G01X1008403Y2353426D01*
G01X1009145Y2351850D01*
G01X1009145Y2351850D01*
G02X1006373Y2349763I-4431J3001D01*
G01X1006373Y2349763D01*
G02X992636Y2345443I-214152J656997D01*
G03X955220Y2330843I74956J-247336D01*
G01X955220Y2330843D01*
G03X931271Y2313215I35199J-72902D01*
G01X931271Y2313215D01*
G03X918046Y2290509I43189J-40361D01*
G01X918046Y2290509D01*
G03X913500Y2260761I95056J-29748D01*
G01X913500Y2260761D01*
G02X912531Y2243384I-156220J0D01*
G01X912531Y2243384D01*
G02X909632Y2225852I-168658J18880D01*
G01X909632Y2225852D01*
G02X905402Y2210599I-142478J31294D01*
G01X905402Y2210599D01*
G02X900332Y2200815I-34198J11515D01*
G01X900332Y2200815D01*
G02X891750Y2190894I-64799J47383D01*
G01X891750Y2190894D01*
G02X885319Y2188783I-5352J5455D01*
G01X885319Y2188783D01*
G02X877589Y2192192I2207J15474D01*
G01X877589Y2192192D01*
G02X861148Y2206404I289497J351526D01*
G02X848400Y2219264I114646J126404D01*
G01X848400Y2219264D01*
G02X842317Y2229270I24175J21547D01*
G01X842317Y2229270D01*
G02X841224Y2238891I18196J6940D01*
G01X841224Y2238891D01*
G02X844521Y2250000I38299J-5322D01*
G01X844521Y2250000D01*
G01X851243Y2264251D01*
G01X851243Y2264251D01*
G01X852238Y2264850D01*
G01X852238Y2264850D01*
G01X852811Y2264134D01*
G01X852811Y2264134D01*
G01X850228Y2249742D01*
G03X850364Y2239926I25088J-4561D01*
G01X850364Y2239926D01*
G03X854112Y2229805I36040J7591D01*
G03X861348Y2219824I43133J23659D01*
G01X861348Y2219824D01*
G03X871780Y2210449I59710J55954D01*
G01X871780Y2210449D01*
G03X883410Y2202132I169349J224509D01*
G03X889724Y2199351I10780J15913D01*
G01X889724Y2199351D01*
G03X892091Y2200915I451J1890D01*
G03X891630Y2205707I-9078J1545D01*
G01X891630Y2205707D01*
G02X881836Y2233426I663794J250125D01*
G01X881836Y2233426D01*
G02X877532Y2251119I107809J35596D01*
G01X877532Y2251119D01*
G02X877710Y2261334I28859J4608D01*
G02X882162Y2265000I4452J-870D01*
G01X882162Y2265000D01*
G02X886299Y2263097I0J-5450D01*
G02X890455Y2256922I-24332J-20860D01*
G02X894010Y2248030I-44580J-22980D01*
G01X894010Y2248030D01*
G02X896338Y2237500I-77076J-22559D01*
G01X896338Y2237500D01*
G03X898304Y2227420I120094J18193D01*
G01X898304Y2227420D01*
G01X899853Y2227339D01*
G01X899853Y2227339D01*
G03X901147Y2233873I-21999J7753D01*
G01X901147Y2233873D01*
G03X902002Y2253570I-1095983J57425D01*
G01X902002Y2253570D01*
G03X902259Y2276903I-499154J17162D01*
G03X900201Y2287684I-31302J-386D01*
G01X900201Y2287684D01*
G03X895455Y2291712I-6040J-2307D01*
G03X887682Y2291070I-2786J-13639D01*
G01X887682Y2291070D01*
G02X880244Y2288741I-22176J57791D01*
G01X880244Y2288741D01*
G02X870876Y2286783I-33179J135350D01*
G01X870876Y2286783D01*
G02X861179Y2285440I-24529J141435D01*
G01X861179Y2285440D01*
G02X852682Y2285000I-8497J81800D01*
G01X852682Y2285000D01*
G03X844182Y2283575I0J-26056D01*
G01X844182Y2283575D01*
G03X838025Y2279465I4763J-13804D01*
G01X838025Y2279465D01*
G03X834231Y2272467I13105J-11632D01*
G01X834231Y2272467D01*
G03X832711Y2262500I41895J-11490D01*
G01X832711Y2262500D01*
G02X832062Y2248293I-674364J23662D01*
G01X830591Y2247326D01*
G01X830591Y2247326D01*
G02X828625Y2249272I1149J3126D01*
G02X822264Y2266339I1588387J601762D01*
G01X822264Y2266339D01*
G03X816176Y2278262I-52201J-19139D01*
G03X807706Y2287597I-36403J-24521D01*
G03X796723Y2294327I-29349J-35572D01*
G01X796723Y2294327D01*
G03X783215Y2298557I-26614J-61300D01*
G01X783215Y2298557D01*
G02X769323Y2303282I11063J55314D01*
G02X751393Y2313260I91601J185699D01*
G02X732738Y2326172I124846J200295D01*
G02X716161Y2340353I122706J160225D01*
G01X1071625Y2348169D02*
G02X1067458Y2350384I8130J20316D01*
G01X1067458Y2350384D01*
G01X1067286Y2352207D01*
G02X1070203Y2353620I3493J-3493D01*
G01X1070203Y2353620D01*
G02X1077667Y2354210I11539J-98421D01*
G01X1077667Y2354210D01*
G02X1084629Y2354100I2517J-61098D01*
G01X1084629Y2354100D01*
G02X1089428Y2352993I-1168J-16020D01*
G01X1089428Y2352993D01*
G02X1091254Y2351147I-1209J-3020D01*
G01X1090792Y2348958D01*
G01X1090792Y2348958D01*
G02X1087522Y2347026I-5393J5394D01*
G01X1087522Y2347026D01*
G02X1082669Y2346234I-5695J19637D01*
G01X1082669Y2346234D01*
G02X1077094Y2346608I-1066J25853D01*
G02X1071625Y2348169I4834J27307D01*
G01X1173500Y2316221D02*
G02X1165471Y2322082I231770J325962D01*
G01X1165471Y2322082D01*
G01X1165449Y2323445D01*
G01X1167421Y2323813D01*
G02X1178500Y2320220I-216050J-685016D01*
G03X1190231Y2317291I24827J74481D01*
G03X1212646Y2313814I138588J819240D01*
G03X1239095Y2310474I126772J897694D01*
G01X1239095Y2310474D01*
G03X1266655Y2307772I116757J1048764D01*
G01X1266655Y2307772D01*
G02X1292048Y2305063I-49961J-588889D01*
G02X1311489Y2301648I-27334J-212636D01*
G02X1323281Y2298112I-18827J-84210D01*
G01X1323281Y2298112D01*
G02X1323575Y2295046I-609J-1605D01*
G01X1323575Y2295046D01*
G03X1317380Y2284419I6878J-11128D01*
G03X1318932Y2262594I100194J-3840D01*
G01X1318932Y2262594D01*
G03X1325465Y2240604I104272J19011D01*
G01X1325465Y2240604D01*
G03X1335679Y2228653I23760J9967D01*
G03X1339121Y2227954I2670J4320D01*
G03X1341148Y2229868I-373J2426D01*
G03X1341156Y2235170I-12509J2668D01*
G03X1338898Y2243748I-86947J-18302D01*
G01X1338898Y2243748D01*
G02X1336885Y2252345I54472J17288D01*
G01X1336885Y2252345D01*
G02X1336986Y2259102I20005J3078D01*
G02X1339098Y2263354I8499J-1571D01*
G02X1342826Y2265000I3728J-3399D01*
G01X1342826Y2265000D01*
G02X1346899Y2263554I-0J-6458D01*
G01X1346899Y2263554D01*
G02X1350365Y2259450I-9107J-11207D01*
G02X1352709Y2253335I-19314J-10912D01*
G01X1352709Y2253335D01*
G02X1353500Y2246108I-32632J-7227D01*
G01X1353500Y2246108D01*
G03X1354941Y2237202I28243J1D01*
G03X1359572Y2225830I88423J29382D01*
G01X1359572Y2225830D01*
G03X1366260Y2214035I96677J47020D01*
G03X1374171Y2203608I78175J51094D01*
G01X1374171Y2203608D01*
G01X1394841Y2180000D01*
G01X1390457Y2205000D01*
G03X1388241Y2215851I-196382J-34446D01*
G01X1388241Y2215851D01*
G03X1385199Y2227797I-297555J-69411D01*
G01X1385199Y2227797D01*
G03X1381849Y2239025I-276749J-76453D01*
G01X1381849Y2239025D01*
G03X1378716Y2247500I-98278J-31518D01*
G02X1376432Y2254667I38831J16321D01*
G01X1376432Y2254667D01*
G02X1376405Y2260209I12731J2835D01*
G02X1378544Y2263652I5831J-1237D01*
G02X1382430Y2265000I3886J-4927D01*
G01X1382430Y2265000D01*
G02X1386654Y2263513I0J-6743D01*
G02X1390248Y2259298I-9293J-11564D01*
G02X1392679Y2253015I-19698J-11234D01*
G01X1392679Y2253015D01*
G02X1393500Y2245590I-33186J-7425D01*
G01X1393500Y2245590D01*
G03X1394243Y2237706I42216J1D01*
G03X1396446Y2230062I42224J8027D01*
G01X1396446Y2230062D01*
G03X1399681Y2223750I32903J12884D01*
G03X1403527Y2219983I10288J6657D01*
G02X1407169Y2216005I-5207J-8424D01*
G01X1407169Y2216005D01*
G02X1408440Y2210479I-10672J-5363D01*
G01X1408440Y2210479D01*
G02X1407132Y2203284I-22111J304D01*
G01X1407132Y2203284D01*
G02X1403175Y2194393I-63009J22712D01*
G02X1396157Y2183237I-82951J44394D01*
G01X1396157Y2183237D01*
G02X1390450Y2180143I-6118J4475D01*
G01X1390450Y2180143D01*
G02X1382873Y2181939I-744J13746D01*
G01X1382873Y2181939D01*
G02X1365648Y2192362I201558J352515D01*
G02X1342663Y2209077I128212J200474D01*
G02X1326672Y2225552I65362J79439D01*
G02X1315794Y2243922I68253J52825D01*
G02X1308449Y2266268I115984J50502D01*
G03X1302831Y2280819I-52990J-12097D01*
G03X1294080Y2289291I-18609J-10469D01*
G01X1294080Y2289291D01*
G03X1278447Y2294482I-23972J-46057D01*
G01X1278447Y2294482D01*
G03X1245476Y2299045I-112455J-691104D01*
G01X1245476Y2299045D01*
G02X1222563Y2302320I46577J407645D01*
G01X1222563Y2302320D01*
G02X1200830Y2306776I58662J341356D01*
G02X1182717Y2311691I70994J297500D01*
G02X1173500Y2316221I9318J30598D01*
G01X1405450Y2270000D02*
G02X1405627Y2280801I187632J2318D01*
G01X1405627Y2280801D01*
G02X1406651Y2287571I32681J-1478D01*
G01X1406651Y2287571D01*
G01X1408271Y2288860D01*
G01X1410059Y2287690D01*
G01X1410059Y2287690D01*
G02X1411644Y2281711I-22925J-9275D01*
G01X1411644Y2281711D01*
G02X1412223Y2273800I-64837J-8719D01*
G02X1411829Y2265366I-71591J-884D01*
G02X1410430Y2257690I-52025J5517D01*
G02X1408666Y2253834I-11858J3091D01*
G01X1408666Y2253834D01*
G01X1407065Y2254009D01*
G01X1407065Y2254009D01*
G02X1405855Y2259318I15801J6393D01*
G02X1405450Y2270000I208023J13253D01*

G04 Rect Start*
G54D11*
G01X-304800Y-12700D02*
G01X-304800Y4229100D01*
G01X6375400Y4229100D01*
G01X6375400Y-12700D01*
G01X-304800Y-12700D01*
G04 Rect End*

M02*

