G04 Layer: TopLayer*
G04 EasyEDA Pro v3.2.148, 2026-06-28 11:37:26*
G04 Gerber Generator version 0.3*
G04 Scale: 100 percent, Rotated: No, Reflected: No*
G04 Dimensions in millimeters*
G04 Leading zeros omitted, absolute positions, 4 integers and 5 decimals*
G04 Generated by one-click*
G04 Object Configs: Pad,Via,Track,Text,Image,Dimension,BoardOutline,BoardCutout,CopperFilled,SolidRegion,FPCStiffener,Line,PlaneZone,ComponentProperty,ComponentSilkscreen,TearDrop*
G04 Layer Configs: 1,2,3,4,5,6,7,8,9,10,11,13,14,56*
G04 Copper Areas: 0*
%FSLAX45Y45*%
%MOMM*%
%ADD10R,0.9X0.8*%
%ADD11R,0.8X0.9*%
%ADD12R,0.80648X0.86401*%
%ADD13R,0.86401X0.80648*%
%ADD14R,1.2X0.25001*%
%ADD15R,0.55001X1.1*%
%ADD16R,0.3X1.1*%
%ADD17O,1.1X2.0*%
%ADD18O,1.2X1.8*%
%ADD19R,1.1224X2.88*%
%ADD20R,1.11999X2.88*%
%ADD21O,1.2X3.09999*%
%ADD22R,1.1X0.55001*%
%ADD23R,1.1X0.3*%
%ADD24O,2.0X1.1*%
%ADD25O,1.8X1.2*%
%ADD26C,0.61*%
%ADD27C,0.22501*%
%ADD28C,0.254*%
G75*


G04 Pad Start*
G54D10*
G01X1333500Y1492402D03*
G01X1333500Y1352398D03*
G01X2768600Y1326998D03*
G01X2768600Y1467002D03*
G01X3975100Y793598D03*
G01X3975100Y933602D03*
G54D11*
G01X3313209Y2952579D03*
G01X3173204Y2952579D03*
G01X3321202Y2743200D03*
G01X3181198Y2743200D03*
G01X2330308Y3149608D03*
G01X2470313Y3149608D03*
G01X3308502Y3187700D03*
G01X3168498Y3187700D03*
G01X2330308Y2755908D03*
G01X2470313Y2755908D03*
G01X2330308Y2959108D03*
G01X2470313Y2959108D03*
G01X5365598Y2743200D03*
G01X5505602Y2743200D03*
G54D12*
G01X5510936Y2895600D03*
G01X5360264Y2895600D03*
G01X5536336Y3225800D03*
G01X5385664Y3225800D03*
G54D13*
G01X4330700Y951636D03*
G01X4330700Y800964D03*
G01X4572000Y951636D03*
G01X4572000Y800964D03*
G01X5448300Y977036D03*
G01X5448300Y826364D03*
G01X5702300Y977036D03*
G01X5702300Y826364D03*
G54D14*
G01X2999410Y2405304D03*
G01X2999410Y2458314D03*
G01X2999410Y2511298D03*
G01X2999410Y2564308D03*
G01X2999410Y2617292D03*
G01X2999410Y2670302D03*
G01X2999410Y2723312D03*
G01X2999410Y2776296D03*
G01X2639390Y2776296D03*
G01X2639390Y2723312D03*
G01X2639390Y2670302D03*
G01X2639390Y2617292D03*
G01X2639390Y2564308D03*
G01X2639390Y2511298D03*
G01X2639390Y2458314D03*
G01X2639390Y2405304D03*
G54D15*
G01X3883698Y605803D03*
G01X3963708Y605803D03*
G54D16*
G01X4028707Y605803D03*
G01X4078719Y605803D03*
G01X4128707Y605803D03*
G01X4178694Y605803D03*
G01X4228706Y605803D03*
G01X4278694Y605803D03*
G01X4328706Y605803D03*
G01X4378719Y605803D03*
G54D15*
G01X4443717Y605803D03*
G01X4523702Y605803D03*
G54D17*
G01X3771202Y550812D03*
G01X4636199Y550812D03*
G54D18*
G01X3771202Y130797D03*
G01X4636199Y130797D03*
G54D15*
G01X5344198Y631203D03*
G01X5424208Y631203D03*
G54D16*
G01X5489207Y631203D03*
G01X5539219Y631203D03*
G01X5589207Y631203D03*
G01X5639194Y631203D03*
G01X5689206Y631203D03*
G01X5739194Y631203D03*
G01X5789206Y631203D03*
G01X5839219Y631203D03*
G54D15*
G01X5904217Y631203D03*
G01X5984202Y631203D03*
G54D17*
G01X5231702Y576212D03*
G01X6096699Y576212D03*
G54D18*
G01X5231702Y156197D03*
G01X6096699Y156197D03*
G54D20*
G01X2737587Y1074496D03*
G01X2487600Y1074496D03*
G01X2287600Y1074496D03*
G01X2037613Y1074496D03*
G54D21*
G01X3032608Y195504D03*
G01X1742592Y195504D03*
G54D20*
G01X1315187Y1074496D03*
G01X1065200Y1074496D03*
G01X865200Y1074496D03*
G01X615213Y1074496D03*
G54D21*
G01X1610208Y195504D03*
G01X320192Y195504D03*
G54D22*
G01X5679163Y2696415D03*
G01X5679163Y2776425D03*
G54D23*
G01X5679163Y2841424D03*
G01X5679163Y2891436D03*
G01X5679163Y2941424D03*
G01X5679163Y2991411D03*
G01X5679163Y3041423D03*
G01X5679163Y3091411D03*
G01X5679163Y3141423D03*
G01X5679163Y3191436D03*
G54D22*
G01X5679163Y3256434D03*
G01X5679163Y3336419D03*
G54D24*
G01X5734154Y2583919D03*
G01X5734154Y3448916D03*
G54D25*
G01X6154169Y2583919D03*
G01X6154169Y3448916D03*
G54D10*
G01X5930900Y1009802D03*
G01X5930900Y869798D03*
G04 Pad End*

G04 Via Start*
G54D26*
G01X4162862Y1010518D03*
G01X4280291Y715289D03*
G01X4899461Y707909D03*
G01X5128060Y555509D03*
G01X5102660Y735519D03*
G01X5610659Y735519D03*
G01X5267760Y2898904D03*
G01X5521759Y2975104D03*
G01X5806168Y2966004D03*
G01X5780768Y3115234D03*
G01X5267760Y2820494D03*
G01X5780768Y2876304D03*
G01X2768604Y1753147D03*
G01X2844804Y1301597D03*
G01X1333497Y1249508D03*
G01X1409697Y1427308D03*
G01X5429359Y2660115D03*
G01X3352803Y933598D03*
G01X3479803Y933598D03*
G04 Via End*

G04 Track Start*
G54D27*
G01X2639395Y2723315D02*
G01X2502895Y2723315D01*
G01X2470305Y2755904D01*
G54D28*
G01X2470305Y2755904D02*
G01X2470305Y2959104D01*
G01X5839218Y631199D02*
G01X5839218Y698899D01*
G01X5711759Y826358D01*
G01X5702299Y826358D01*
G54D27*
G01X2639395Y2776304D02*
G01X2639395Y2980514D01*
G01X2470305Y3149604D01*
G01X2639395Y2776304D02*
G01X2757104Y2776304D01*
G01X3168504Y3187704D01*
G01X2639395Y2405305D02*
G01X2487595Y2253505D01*
G01X2487595Y1074498D01*
G01X2639395Y2458315D02*
G01X2568144Y2458315D01*
G01X2288745Y2178916D01*
G01X2288745Y1075647D01*
G01X2287595Y1074498D01*
G54D28*
G01X4378721Y605799D02*
G01X4378721Y673499D01*
G01X4505721Y800498D01*
G01X4571541Y800498D01*
G01X5679168Y2891434D02*
G01X5611469Y2891434D01*
G01X5586069Y2916834D01*
G01X5586069Y3176074D01*
G01X5536339Y3225804D01*
G54D27*
G01X2639395Y2511305D02*
G01X2222606Y2511305D01*
G01X1079608Y1368307D01*
G01X1079608Y1088908D01*
G01X1065198Y1074498D01*
G01X2639395Y2564315D02*
G01X2228016Y2564315D01*
G01X881818Y1218118D01*
G01X881818Y1091118D01*
G01X865198Y1074498D01*
G54D28*
G01X5539219Y631199D02*
G01X5539219Y735439D01*
G01X5448299Y826358D01*
G01X4078722Y605799D02*
G01X4078722Y698899D01*
G01X4180322Y800498D01*
G01X4330241Y800498D01*
G54D27*
G01X2999414Y2405305D02*
G01X3410763Y1993957D01*
G01X3410763Y739549D01*
G01X3740962Y409350D01*
G01X3994961Y409350D01*
G01X4128712Y543100D01*
G01X4128712Y605799D01*
G54D28*
G01X4128712Y605799D02*
G01X4128712Y673499D01*
G01X4154112Y698899D01*
G01X4204912Y698899D01*
G01X4230312Y673499D01*
G01X4230312Y607399D01*
G01X4228712Y605799D01*
G54D27*
G01X2999414Y2458315D02*
G01X3070664Y2458315D01*
G01X4162862Y1366117D01*
G01X4162862Y1010518D01*
G01X4280291Y537489D02*
G01X4254891Y512090D01*
G01X4204092Y512090D01*
G01X4178692Y537489D01*
G01X4178692Y605799D01*
G54D28*
G01X4280291Y613689D02*
G01X4278691Y605799D01*
G54D27*
G01X2999414Y2511305D02*
G01X3146864Y2511305D01*
G01X4874061Y784108D01*
G01X4874061Y733309D01*
G01X4899461Y707909D01*
G01X5128060Y555509D02*
G01X5128060Y504709D01*
G01X5204260Y428509D01*
G01X5458260Y428509D01*
G01X5585259Y555509D01*
G01X5585259Y627249D01*
G01X5589209Y631199D01*
G54D28*
G01X5589209Y631199D02*
G01X5589209Y563499D01*
G01X5614609Y538099D01*
G01X5665409Y538099D01*
G01X5689209Y561899D01*
G01X5689209Y631199D01*
G54D27*
G01X2999414Y2564315D02*
G01X3273864Y2564315D01*
G01X5102660Y735519D01*
G01X5610659Y735519D02*
G01X5639189Y706989D01*
G54D28*
G01X5639189Y631199D02*
G01X5639189Y698899D01*
G01X5664589Y724299D01*
G01X5715389Y724299D01*
G01X5739189Y700499D01*
G01X5739189Y631199D01*
G54D27*
G01X2999414Y2670305D02*
G01X4975461Y2670305D01*
G01X5521759Y2975104D02*
G01X5521759Y2906425D01*
G01X5510939Y2895604D01*
G54D28*
G01X5806168Y2966004D02*
G01X5780768Y2991404D01*
G01X5679168Y2991404D01*
G01X5780768Y3115234D02*
G01X5780768Y3166034D01*
G01X5755368Y3191434D01*
G01X5679168Y3191434D01*
G54D27*
G01X5780768Y2876304D02*
G01X5780768Y2901704D01*
G01X5741048Y2941424D01*
G01X5679168Y2941424D01*
G54D28*
G01X5780768Y2901704D02*
G01X5831568Y2901704D01*
G01X5882368Y2952504D01*
G01X5882368Y2977903D01*
G01X5818848Y3041424D01*
G01X5679168Y3041424D01*
G54D27*
G01X2999414Y2776304D02*
G01X2999414Y2908254D01*
G01X3121464Y3030304D01*
G01X3223064Y3030304D01*
G01X3321203Y2932165D02*
G01X3321203Y2743205D01*
G54D28*
G01X3299264Y2954104D02*
G01X3311683Y2954104D01*
G01X3313203Y2952584D01*
G01X3223064Y3030304D02*
G01X3223064Y3102264D01*
G01X3308503Y3187704D01*
G54D27*
G01X2999414Y2776304D02*
G01X2928164Y2776304D01*
G01X2775764Y2623905D01*
G01X2646005Y2623905D01*
G01X2639395Y2617295D01*
G01X2468915Y2617295D01*
G01X2330305Y2755904D01*
G54D28*
G01X2330305Y2755904D02*
G01X2330305Y2959104D01*
G01X2330305Y3149604D01*
G54D27*
G01X2775764Y2623905D02*
G01X2775764Y1760306D01*
G01X2768604Y1753147D01*
G01X2844804Y1301597D02*
G01X2794004Y1301597D01*
G01X2768604Y1326997D01*
G54D28*
G01X2768604Y1326997D02*
G01X2768604Y1105518D01*
G01X2737585Y1074498D01*
G01X2737585Y517798D01*
G01X3016984Y238399D01*
G01X3016984Y211120D02*
G01X3032604Y195500D01*
G01X3771202Y550809D02*
G01X3828712Y550809D01*
G01X3883702Y605799D01*
G01X3883702Y702199D01*
G01X3975102Y793598D01*
G01X3771202Y130800D02*
G01X4244302Y130800D01*
G01X4574501Y460999D01*
G01X4574501Y554999D02*
G01X4523701Y605799D01*
G01X4574501Y537199D02*
G01X4622591Y537199D01*
G01X4636201Y550809D01*
G01X4636201Y158710D02*
G01X5229190Y158710D01*
G01X5231700Y156200D01*
G01X5231700Y576209D02*
G01X5289209Y576209D01*
G01X5344199Y631199D01*
G01X5229190Y158710D02*
G01X5660989Y158710D01*
G01X5889588Y387309D01*
G01X5940388Y387309D02*
G01X6034998Y481919D01*
G01X6034998Y580399D02*
G01X5984198Y631199D01*
G01X6034998Y558119D02*
G01X6078608Y558119D01*
G01X6096698Y576209D01*
G01X5914988Y387309D02*
G01X5914988Y337909D01*
G01X6096698Y156200D01*
G01X5984198Y631199D02*
G01X6009598Y656599D01*
G01X6009598Y931098D01*
G01X5930898Y1009798D01*
G01X3016984Y231999D02*
G01X1779086Y231999D01*
G01X1742587Y195500D01*
G01X1610207Y195500D02*
G01X1610207Y363199D01*
G01X1330807Y642599D01*
G01X1330807Y1058878D01*
G01X1315187Y1074498D01*
G01X1315187Y1231198D01*
G01X1333497Y1249508D01*
G01X1409697Y1427308D02*
G01X1398587Y1427308D01*
G01X1333497Y1492397D01*
G01X1330807Y642599D02*
G01X767288Y642599D01*
G01X320189Y195500D01*
G01X5930898Y1009798D02*
G01X5930898Y2501475D01*
G01X5816598Y2501475D02*
G01X5734158Y2583915D01*
G01X5734158Y2641425D01*
G01X5679168Y2696415D01*
G01X5429359Y2660115D02*
G01X5429359Y2679445D01*
G01X5365599Y2743205D01*
G01X5365599Y2890264D01*
G01X5360259Y2895604D01*
G01X5360259Y3200404D01*
G01X5385659Y3225804D01*
G01X5385659Y3276603D01*
G01X5461859Y3352803D01*
G01X5662778Y3352803D01*
G01X5679168Y3336413D01*
G01X5662778Y3352803D02*
G01X5662778Y3377533D01*
G01X5734158Y3448913D01*
G01X5734158Y2583915D02*
G01X6154167Y2583915D01*
G01X5734158Y3448913D02*
G01X6154167Y3448913D01*
G54D27*
G01X2999414Y2723315D02*
G01X3070664Y2723315D01*
G01X3090554Y2743205D01*
G54D28*
G01X3166754Y2743205D02*
G01X3166754Y2946135D01*
G01X3173204Y2952584D01*
G54D27*
G01X2999414Y2723315D02*
G01X2928164Y2723315D01*
G01X2826564Y2621715D01*
G01X2826564Y1524956D01*
G01X2768604Y1466997D01*
G54D28*
G01X2768604Y1466997D02*
G01X2579305Y1277697D01*
G01X2579305Y922098D01*
G01X2553905Y896698D01*
G01X2215406Y896698D01*
G01X2037606Y1074498D01*
G01X1611397Y1074498D01*
G01X1333497Y1352397D01*
G01X1155698Y1174598D01*
G01X1155698Y920598D01*
G01X1130298Y895198D01*
G01X794508Y895198D01*
G01X615209Y1074498D01*
G01X2768604Y1466997D02*
G01X2819404Y1466997D01*
G01X3352803Y933598D01*
G01X3479803Y933598D02*
G01X3975102Y933598D01*
G01X3975102Y933598D02*
G01X4051302Y857398D01*
G01X4051302Y741374D01*
G01X3963712Y653784D01*
G01X3963712Y605799D01*
G01X4051302Y857398D02*
G01X4236462Y857398D01*
G01X4330701Y951638D01*
G01X4572001Y951638D01*
G01X4572001Y926238D01*
G01X4648201Y850038D01*
G01X4648201Y748439D01*
G01X4597401Y697639D01*
G01X4484761Y697639D01*
G01X4443721Y656599D01*
G01X4443721Y605799D01*
G01X4648201Y748439D02*
G01X4749801Y646839D01*
G01X5130800Y646839D01*
G01X5207000Y723039D01*
G01X5410199Y723039D02*
G01X5424209Y709029D01*
G01X5424209Y631199D01*
G01X5384799Y723039D02*
G01X5359399Y748439D01*
G01X5359399Y888138D01*
G01X5448299Y977038D01*
G01X5702299Y977038D02*
G01X5803898Y875438D01*
G01X5925258Y875438D02*
G01X5930898Y869798D01*
G01X5905498Y875438D02*
G01X5905498Y632479D01*
G01X5904218Y631199D01*
G01X5626099Y977038D02*
G01X5619899Y983238D01*
G01X5530999Y2685035D02*
G01X5505599Y2710435D01*
G01X5622389Y2776424D02*
G01X5679168Y2776424D01*
G01X5505599Y2735835D02*
G01X5429399Y2812034D01*
G01X5429399Y2939034D01*
G01X5454799Y2964434D01*
G01X5454799Y3281833D01*
G01X5480199Y3307233D01*
G01X5581799Y3307233D01*
G01X5632599Y3256433D01*
G01X5679168Y3256433D01*
G54D27*
G01X4280291Y715289D02*
G01X4280291Y613689D01*
G01X4280291Y537489D01*
G01X5639189Y706989D02*
G01X5639189Y698899D01*
G01X3223064Y3030304D02*
G01X3299264Y2954104D01*
G01X3321203Y2932165D01*
G54D28*
G01X3016984Y238399D02*
G01X3016984Y231999D01*
G01X3016984Y211120D01*
G01X4574501Y460999D02*
G01X4574501Y537199D01*
G01X4574501Y554999D01*
G01X4636201Y550809D02*
G01X4636201Y158710D01*
G01X4636201Y130800D01*
G01X5889588Y387309D02*
G01X5914988Y387309D01*
G01X5940388Y387309D01*
G01X6034998Y481919D02*
G01X6034998Y558119D01*
G01X6034998Y580399D01*
G54D27*
G01X3090554Y2743205D02*
G01X3166754Y2743205D01*
G01X3181204Y2743205D01*
G54D28*
G01X5207000Y723039D02*
G01X5384799Y723039D01*
G01X5410199Y723039D01*
G01X5626099Y977038D02*
G01X5702299Y977038D01*
G01X5803898Y875438D02*
G01X5905498Y875438D01*
G01X5925258Y875438D01*
G01X5505599Y2710435D02*
G01X5505599Y2735835D01*
G01X5505599Y2743205D01*
G54D27*
G01X2999414Y2617295D02*
G01X5064560Y2617295D01*
G01X5267760Y2820494D01*
G01X4975461Y2670305D02*
G01X5204060Y2898904D01*
G01X5267760Y2898904D01*
G54D28*
G01X5930898Y2501475D02*
G01X5912938Y2519435D01*
G01X5834559Y2519435D01*
G01X5816598Y2501475D01*
G01X5619899Y983238D02*
G01X5619899Y2535936D01*
G01X5594499Y2561336D01*
G01X5594499Y2654300D01*
G01X5576538Y2672260D01*
G01X5543773Y2672260D01*
G01X5530999Y2685035D01*
G01X5448299Y977038D02*
G01X5626099Y977038D01*
G01X5530999Y2685035D02*
G01X5622389Y2776424D01*
G04 Track End*

M02*

