G04 Layer: TopPasteMaskLayer*
G04 EasyEDA Pro v3.2.148, 2026-06-28 11:37:26*
G04 Gerber Generator version 0.3*
G04 Scale: 100 percent, Rotated: No, Reflected: No*
G04 Dimensions in millimeters*
G04 Leading zeros omitted, absolute positions, 4 integers and 5 decimals*
G04 Generated by one-click*
G04 Object Configs: Pad,Via,Track,Text,Image,Dimension,BoardOutline,BoardCutout,CopperFilled,SolidRegion,FPCStiffener,Line,PlaneZone,ComponentProperty,ComponentSilkscreen,TearDrop*
G04 Layer Configs: 1,2,3,4,5,6,7,8,9,10,11,13,14,56*
G04 Copper Areas: 0*
%FSLAX45Y45*%
%MOMM*%
%ADD10R,0.9X0.8*%
%ADD11R,0.8X0.9*%
%ADD12R,1.2X0.25001*%
%ADD13C,0.9162*%
G75*


G04 PolygonModel Start*
G36*
G01X5555102Y2940599D02*
G01X5560101Y2935597D01*
G01X5560101Y2855598D01*
G01X5555102Y2850599D01*
G01X5475102Y2850599D01*
G01X5470101Y2855598D01*
G01X5470101Y2879801D01*
G01X5507101Y2879801D01*
G01X5507101Y2912801D01*
G01X5470101Y2912801D01*
G01X5470101Y2935597D01*
G01X5475102Y2940599D01*
G01X5555102Y2940599D01*
G37*
G36*
G01X5316098Y2850601D02*
G01X5311099Y2855603D01*
G01X5311099Y2935602D01*
G01X5316098Y2940601D01*
G01X5396098Y2940601D01*
G01X5401099Y2935602D01*
G01X5401099Y2911399D01*
G01X5364099Y2911399D01*
G01X5364099Y2878399D01*
G01X5401099Y2878399D01*
G01X5401099Y2855603D01*
G01X5396098Y2850601D01*
G01X5316098Y2850601D01*
G37*
G36*
G01X5580502Y3270799D02*
G01X5585501Y3265797D01*
G01X5585501Y3185798D01*
G01X5580502Y3180799D01*
G01X5500502Y3180799D01*
G01X5495501Y3185798D01*
G01X5495501Y3210001D01*
G01X5532501Y3210001D01*
G01X5532501Y3243001D01*
G01X5495501Y3243001D01*
G01X5495501Y3265797D01*
G01X5500502Y3270799D01*
G01X5580502Y3270799D01*
G37*
G36*
G01X5341498Y3180801D02*
G01X5336499Y3185803D01*
G01X5336499Y3265802D01*
G01X5341498Y3270801D01*
G01X5421498Y3270801D01*
G01X5426499Y3265802D01*
G01X5426499Y3241599D01*
G01X5389499Y3241599D01*
G01X5389499Y3208599D01*
G01X5426499Y3208599D01*
G01X5426499Y3185803D01*
G01X5421498Y3180801D01*
G01X5341498Y3180801D01*
G37*
G36*
G01X4285701Y995802D02*
G01X4290703Y1000801D01*
G01X4370702Y1000801D01*
G01X4375701Y995802D01*
G01X4375701Y915802D01*
G01X4370702Y910801D01*
G01X4346499Y910801D01*
G01X4346499Y947801D01*
G01X4313499Y947801D01*
G01X4313499Y910801D01*
G01X4290703Y910801D01*
G01X4285701Y915802D01*
G01X4285701Y995802D01*
G37*
G36*
G01X4375699Y756798D02*
G01X4370697Y751799D01*
G01X4290698Y751799D01*
G01X4285699Y756798D01*
G01X4285699Y836798D01*
G01X4290698Y841799D01*
G01X4314901Y841799D01*
G01X4314901Y804799D01*
G01X4347901Y804799D01*
G01X4347901Y841799D01*
G01X4370697Y841799D01*
G01X4375699Y836798D01*
G01X4375699Y756798D01*
G37*
G36*
G01X4527001Y995802D02*
G01X4532003Y1000801D01*
G01X4612002Y1000801D01*
G01X4617001Y995802D01*
G01X4617001Y915802D01*
G01X4612002Y910801D01*
G01X4587799Y910801D01*
G01X4587799Y947801D01*
G01X4554799Y947801D01*
G01X4554799Y910801D01*
G01X4532003Y910801D01*
G01X4527001Y915802D01*
G01X4527001Y995802D01*
G37*
G36*
G01X4616999Y756798D02*
G01X4611997Y751799D01*
G01X4531998Y751799D01*
G01X4526999Y756798D01*
G01X4526999Y836798D01*
G01X4531998Y841799D01*
G01X4556201Y841799D01*
G01X4556201Y804799D01*
G01X4589201Y804799D01*
G01X4589201Y841799D01*
G01X4611997Y841799D01*
G01X4616999Y836798D01*
G01X4616999Y756798D01*
G37*
G36*
G01X5403301Y1021202D02*
G01X5408303Y1026201D01*
G01X5488302Y1026201D01*
G01X5493301Y1021202D01*
G01X5493301Y941202D01*
G01X5488302Y936201D01*
G01X5464099Y936201D01*
G01X5464099Y973201D01*
G01X5431099Y973201D01*
G01X5431099Y936201D01*
G01X5408303Y936201D01*
G01X5403301Y941202D01*
G01X5403301Y1021202D01*
G37*
G36*
G01X5493299Y782198D02*
G01X5488297Y777199D01*
G01X5408298Y777199D01*
G01X5403299Y782198D01*
G01X5403299Y862198D01*
G01X5408298Y867199D01*
G01X5432501Y867199D01*
G01X5432501Y830199D01*
G01X5465501Y830199D01*
G01X5465501Y867199D01*
G01X5488297Y867199D01*
G01X5493299Y862198D01*
G01X5493299Y782198D01*
G37*
G36*
G01X5657301Y1021202D02*
G01X5662303Y1026201D01*
G01X5742302Y1026201D01*
G01X5747301Y1021202D01*
G01X5747301Y941202D01*
G01X5742302Y936201D01*
G01X5718099Y936201D01*
G01X5718099Y973201D01*
G01X5685099Y973201D01*
G01X5685099Y936201D01*
G01X5662303Y936201D01*
G01X5657301Y941202D01*
G01X5657301Y1021202D01*
G37*
G36*
G01X5747299Y782198D02*
G01X5742297Y777199D01*
G01X5662298Y777199D01*
G01X5657299Y782198D01*
G01X5657299Y862198D01*
G01X5662298Y867199D01*
G01X5686501Y867199D01*
G01X5686501Y830199D01*
G01X5719501Y830199D01*
G01X5719501Y867199D01*
G01X5742297Y867199D01*
G01X5747299Y862198D01*
G01X5747299Y782198D01*
G37*
G36*
G01X4343707Y550804D02*
G01X4313705Y550804D01*
G01X4313705Y660804D01*
G01X4343707Y660804D01*
G01X4343707Y550804D01*
G37*
G36*
G01X4363717Y660804D02*
G01X4393720Y660804D01*
G01X4393720Y550804D01*
G01X4363717Y550804D01*
G01X4363717Y660804D01*
G37*
G36*
G01X3853698Y660804D02*
G01X3913698Y660804D01*
G01X3913698Y550804D01*
G01X3853698Y550804D01*
G01X3853698Y660804D01*
G37*
G36*
G01X4293695Y550804D02*
G01X4263692Y550804D01*
G01X4263692Y660804D01*
G01X4293695Y660804D01*
G01X4293695Y550804D01*
G37*
G36*
G01X4413717Y660804D02*
G01X4473717Y660804D01*
G01X4473717Y550804D01*
G01X4413717Y550804D01*
G01X4413717Y660804D01*
G37*
G36*
G01X4553702Y550804D02*
G01X4493702Y550804D01*
G01X4493702Y660804D01*
G01X4553702Y660804D01*
G01X4553702Y550804D01*
G37*
G36*
G01X4243708Y550804D02*
G01X4213705Y550804D01*
G01X4213705Y660804D01*
G01X4243708Y660804D01*
G01X4243708Y550804D01*
G37*
G36*
G01X4193695Y550804D02*
G01X4163692Y550804D01*
G01X4163692Y660804D01*
G01X4193695Y660804D01*
G01X4193695Y550804D01*
G37*
G36*
G01X3933708Y660804D02*
G01X3993708Y660804D01*
G01X3993708Y550804D01*
G01X3933708Y550804D01*
G01X3933708Y660804D01*
G37*
G36*
G01X4143708Y550804D02*
G01X4113705Y550804D01*
G01X4113705Y660804D01*
G01X4143708Y660804D01*
G01X4143708Y550804D01*
G37*
G36*
G01X4093721Y550804D02*
G01X4063718Y550804D01*
G01X4063718Y660804D01*
G01X4093721Y660804D01*
G01X4093721Y550804D01*
G37*
G36*
G01X4043708Y550804D02*
G01X4013705Y550804D01*
G01X4013705Y660804D01*
G01X4043708Y660804D01*
G01X4043708Y550804D01*
G37*
G36*
G01X4640682Y650644D02*
G01X4643658Y650347D01*
G01X4646618Y649900D01*
G01X4649549Y649308D01*
G01X4652449Y648569D01*
G01X4655307Y647687D01*
G01X4658119Y646664D01*
G01X4660875Y645503D01*
G01X4663572Y644205D01*
G01X4666198Y642772D01*
G01X4668751Y641213D01*
G01X4671223Y639529D01*
G01X4673608Y637720D01*
G01X4675899Y635798D01*
G01X4678093Y633763D01*
G01X4680181Y631622D01*
G01X4682162Y629379D01*
G01X4684027Y627040D01*
G01X4685772Y624611D01*
G01X4687395Y622097D01*
G01X4688891Y619506D01*
G01X4690257Y616844D01*
G01X4691487Y614119D01*
G01X4692579Y611332D01*
G01X4693534Y608498D01*
G01X4694344Y605617D01*
G01X4695010Y602701D01*
G01X4695528Y599755D01*
G01X4695901Y596786D01*
G01X4696125Y593801D01*
G01X4696198Y590812D01*
G01X4696198Y510812D01*
G01X4696125Y507822D01*
G01X4695901Y504838D01*
G01X4695528Y501868D01*
G01X4695010Y498922D01*
G01X4694344Y496006D01*
G01X4693534Y493126D01*
G01X4692579Y490291D01*
G01X4691487Y487505D01*
G01X4690257Y484779D01*
G01X4688891Y482117D01*
G01X4687395Y479527D01*
G01X4685772Y477012D01*
G01X4684027Y474584D01*
G01X4682162Y472244D01*
G01X4680181Y470002D01*
G01X4678093Y467860D01*
G01X4675899Y465826D01*
G01X4673608Y463903D01*
G01X4671223Y462095D01*
G01X4668751Y460411D01*
G01X4666198Y458851D01*
G01X4663572Y457418D01*
G01X4660875Y456121D01*
G01X4658119Y454960D01*
G01X4655307Y453936D01*
G01X4652449Y453055D01*
G01X4649549Y452316D01*
G01X4646618Y451724D01*
G01X4643658Y451277D01*
G01X4640682Y450980D01*
G01X4637695Y450830D01*
G01X4634702Y450830D01*
G01X4631715Y450980D01*
G01X4628739Y451277D01*
G01X4625779Y451724D01*
G01X4622848Y452316D01*
G01X4619948Y453055D01*
G01X4617090Y453936D01*
G01X4614278Y454960D01*
G01X4611522Y456121D01*
G01X4608825Y457418D01*
G01X4606199Y458851D01*
G01X4603646Y460411D01*
G01X4601174Y462095D01*
G01X4598789Y463903D01*
G01X4596498Y465826D01*
G01X4594304Y467860D01*
G01X4592216Y470002D01*
G01X4590235Y472244D01*
G01X4588370Y474584D01*
G01X4586625Y477012D01*
G01X4585002Y479527D01*
G01X4583506Y482117D01*
G01X4582140Y484779D01*
G01X4580910Y487505D01*
G01X4579818Y490291D01*
G01X4578863Y493126D01*
G01X4578053Y496006D01*
G01X4577387Y498922D01*
G01X4576869Y501868D01*
G01X4576496Y504838D01*
G01X4576272Y507822D01*
G01X4576199Y510812D01*
G01X4576199Y590812D01*
G01X4576272Y593801D01*
G01X4576496Y596786D01*
G01X4576869Y599755D01*
G01X4577387Y602701D01*
G01X4578053Y605617D01*
G01X4578863Y608498D01*
G01X4579818Y611332D01*
G01X4580910Y614119D01*
G01X4582140Y616844D01*
G01X4583506Y619506D01*
G01X4585002Y622097D01*
G01X4586625Y624611D01*
G01X4588370Y627040D01*
G01X4590235Y629379D01*
G01X4592216Y631622D01*
G01X4594304Y633763D01*
G01X4596498Y635798D01*
G01X4598789Y637720D01*
G01X4601174Y639529D01*
G01X4603646Y641213D01*
G01X4606199Y642772D01*
G01X4608825Y644205D01*
G01X4611522Y645503D01*
G01X4614278Y646664D01*
G01X4617090Y647687D01*
G01X4619948Y648569D01*
G01X4622848Y649308D01*
G01X4625779Y649900D01*
G01X4628739Y650347D01*
G01X4631715Y650644D01*
G01X4634702Y650794D01*
G01X4637695Y650794D01*
G01X4640682Y650644D01*
G37*
G36*
G01X3769705Y650794D02*
G01X3772698Y650794D01*
G01X3775685Y650644D01*
G01X3778661Y650347D01*
G01X3781621Y649900D01*
G01X3784552Y649308D01*
G01X3787452Y648569D01*
G01X3790310Y647687D01*
G01X3793122Y646664D01*
G01X3795878Y645503D01*
G01X3798575Y644205D01*
G01X3801201Y642772D01*
G01X3803754Y641213D01*
G01X3806226Y639529D01*
G01X3808611Y637720D01*
G01X3810902Y635798D01*
G01X3813096Y633763D01*
G01X3815184Y631622D01*
G01X3817165Y629379D01*
G01X3819030Y627040D01*
G01X3820775Y624611D01*
G01X3822398Y622097D01*
G01X3823894Y619506D01*
G01X3825260Y616844D01*
G01X3826490Y614119D01*
G01X3827582Y611332D01*
G01X3828537Y608498D01*
G01X3829347Y605617D01*
G01X3830013Y602701D01*
G01X3830531Y599755D01*
G01X3830904Y596786D01*
G01X3831128Y593801D01*
G01X3831201Y590812D01*
G01X3831201Y510812D01*
G01X3831128Y507822D01*
G01X3830904Y504838D01*
G01X3830531Y501868D01*
G01X3830013Y498922D01*
G01X3829347Y496006D01*
G01X3828537Y493126D01*
G01X3827582Y490291D01*
G01X3826490Y487505D01*
G01X3825260Y484779D01*
G01X3823894Y482117D01*
G01X3822398Y479527D01*
G01X3820775Y477012D01*
G01X3819030Y474584D01*
G01X3817165Y472244D01*
G01X3815184Y470002D01*
G01X3813096Y467860D01*
G01X3810902Y465826D01*
G01X3808611Y463903D01*
G01X3806226Y462095D01*
G01X3803754Y460411D01*
G01X3801201Y458851D01*
G01X3798575Y457418D01*
G01X3795878Y456121D01*
G01X3793122Y454960D01*
G01X3790310Y453936D01*
G01X3787452Y453055D01*
G01X3784552Y452316D01*
G01X3781621Y451724D01*
G01X3778661Y451277D01*
G01X3775685Y450980D01*
G01X3772698Y450830D01*
G01X3769705Y450830D01*
G01X3766718Y450980D01*
G01X3763742Y451277D01*
G01X3760782Y451724D01*
G01X3757851Y452316D01*
G01X3754951Y453055D01*
G01X3752093Y453936D01*
G01X3749281Y454960D01*
G01X3746525Y456121D01*
G01X3743828Y457418D01*
G01X3741202Y458851D01*
G01X3738649Y460411D01*
G01X3736177Y462095D01*
G01X3733792Y463903D01*
G01X3731501Y465826D01*
G01X3729307Y467860D01*
G01X3727219Y470002D01*
G01X3725238Y472244D01*
G01X3723373Y474584D01*
G01X3721628Y477012D01*
G01X3720005Y479527D01*
G01X3718509Y482117D01*
G01X3717143Y484779D01*
G01X3715913Y487505D01*
G01X3714821Y490291D01*
G01X3713866Y493126D01*
G01X3713056Y496006D01*
G01X3712390Y498922D01*
G01X3711872Y501868D01*
G01X3711499Y504838D01*
G01X3711275Y507822D01*
G01X3711202Y510812D01*
G01X3711202Y590812D01*
G01X3711275Y593801D01*
G01X3711499Y596786D01*
G01X3711872Y599755D01*
G01X3712390Y602701D01*
G01X3713056Y605617D01*
G01X3713866Y608498D01*
G01X3714821Y611332D01*
G01X3715913Y614119D01*
G01X3717143Y616844D01*
G01X3718509Y619506D01*
G01X3720005Y622097D01*
G01X3721628Y624611D01*
G01X3723373Y627040D01*
G01X3725238Y629379D01*
G01X3727219Y631622D01*
G01X3729307Y633763D01*
G01X3731501Y635798D01*
G01X3733792Y637720D01*
G01X3736177Y639529D01*
G01X3738649Y641213D01*
G01X3741202Y642772D01*
G01X3743828Y644205D01*
G01X3746525Y645503D01*
G01X3749281Y646664D01*
G01X3752093Y647687D01*
G01X3754951Y648569D01*
G01X3757851Y649308D01*
G01X3760782Y649900D01*
G01X3763742Y650347D01*
G01X3766718Y650644D01*
G01X3769705Y650794D01*
G37*
G36*
G01X3775685Y205628D02*
G01X3778661Y205331D01*
G01X3781621Y204884D01*
G01X3784552Y204292D01*
G01X3787452Y203553D01*
G01X3790310Y202672D01*
G01X3793122Y201648D01*
G01X3795878Y200487D01*
G01X3798575Y199189D01*
G01X3801201Y197757D01*
G01X3803754Y196197D01*
G01X3806226Y194513D01*
G01X3808611Y192705D01*
G01X3810902Y190782D01*
G01X3813096Y188747D01*
G01X3815184Y186606D01*
G01X3817165Y184363D01*
G01X3819030Y182024D01*
G01X3820775Y179596D01*
G01X3822398Y177081D01*
G01X3823894Y174490D01*
G01X3825260Y171828D01*
G01X3826490Y169103D01*
G01X3827582Y166317D01*
G01X3828537Y163482D01*
G01X3829347Y160602D01*
G01X3830013Y157686D01*
G01X3830531Y154739D01*
G01X3830904Y151770D01*
G01X3831128Y148786D01*
G01X3831201Y145796D01*
G01X3831201Y115796D01*
G01X3831128Y112806D01*
G01X3830904Y109822D01*
G01X3830531Y106853D01*
G01X3830013Y103906D01*
G01X3829347Y100990D01*
G01X3828537Y98110D01*
G01X3827582Y95275D01*
G01X3826490Y92489D01*
G01X3825260Y89764D01*
G01X3823894Y87102D01*
G01X3822398Y84511D01*
G01X3820775Y81996D01*
G01X3819030Y79568D01*
G01X3817165Y77229D01*
G01X3815184Y74986D01*
G01X3813096Y72845D01*
G01X3810902Y70810D01*
G01X3808611Y68887D01*
G01X3806226Y67079D01*
G01X3803754Y65395D01*
G01X3801201Y63835D01*
G01X3798575Y62403D01*
G01X3795878Y61105D01*
G01X3793122Y59944D01*
G01X3790310Y58920D01*
G01X3787452Y58039D01*
G01X3784552Y57300D01*
G01X3781621Y56708D01*
G01X3778661Y56261D01*
G01X3775685Y55964D01*
G01X3772698Y55814D01*
G01X3769705Y55814D01*
G01X3766718Y55964D01*
G01X3763742Y56261D01*
G01X3760782Y56708D01*
G01X3757851Y57300D01*
G01X3754951Y58039D01*
G01X3752093Y58920D01*
G01X3749281Y59944D01*
G01X3746525Y61105D01*
G01X3743828Y62403D01*
G01X3741202Y63835D01*
G01X3738649Y65395D01*
G01X3736177Y67079D01*
G01X3733792Y68887D01*
G01X3731501Y70810D01*
G01X3729307Y72845D01*
G01X3727219Y74986D01*
G01X3725238Y77229D01*
G01X3723373Y79568D01*
G01X3721628Y81996D01*
G01X3720005Y84511D01*
G01X3718509Y87102D01*
G01X3717143Y89764D01*
G01X3715913Y92489D01*
G01X3714821Y95275D01*
G01X3713866Y98110D01*
G01X3713056Y100990D01*
G01X3712390Y103906D01*
G01X3711872Y106853D01*
G01X3711499Y109822D01*
G01X3711275Y112806D01*
G01X3711202Y115796D01*
G01X3711202Y145796D01*
G01X3711275Y148786D01*
G01X3711499Y151770D01*
G01X3711872Y154739D01*
G01X3712390Y157686D01*
G01X3713056Y160602D01*
G01X3713866Y163482D01*
G01X3714821Y166317D01*
G01X3715913Y169103D01*
G01X3717143Y171828D01*
G01X3718509Y174490D01*
G01X3720005Y177081D01*
G01X3721628Y179596D01*
G01X3723373Y182024D01*
G01X3725238Y184363D01*
G01X3727219Y186606D01*
G01X3729307Y188747D01*
G01X3731501Y190782D01*
G01X3733792Y192705D01*
G01X3736177Y194513D01*
G01X3738649Y196197D01*
G01X3741202Y197757D01*
G01X3743828Y199189D01*
G01X3746525Y200487D01*
G01X3749281Y201648D01*
G01X3752093Y202672D01*
G01X3754951Y203553D01*
G01X3757851Y204292D01*
G01X3760782Y204884D01*
G01X3763742Y205331D01*
G01X3766718Y205628D01*
G01X3769705Y205778D01*
G01X3772698Y205778D01*
G01X3775685Y205628D01*
G37*
G36*
G01X4634702Y205778D02*
G01X4637695Y205778D01*
G01X4640682Y205628D01*
G01X4643658Y205331D01*
G01X4646618Y204884D01*
G01X4649549Y204292D01*
G01X4652449Y203553D01*
G01X4655307Y202672D01*
G01X4658119Y201648D01*
G01X4660875Y200487D01*
G01X4663572Y199189D01*
G01X4666198Y197757D01*
G01X4668751Y196197D01*
G01X4671223Y194513D01*
G01X4673608Y192705D01*
G01X4675899Y190782D01*
G01X4678093Y188747D01*
G01X4680181Y186606D01*
G01X4682162Y184363D01*
G01X4684027Y182024D01*
G01X4685772Y179596D01*
G01X4687395Y177081D01*
G01X4688891Y174490D01*
G01X4690257Y171828D01*
G01X4691487Y169103D01*
G01X4692579Y166317D01*
G01X4693534Y163482D01*
G01X4694344Y160602D01*
G01X4695010Y157686D01*
G01X4695528Y154739D01*
G01X4695901Y151770D01*
G01X4696125Y148786D01*
G01X4696198Y145796D01*
G01X4696198Y115796D01*
G01X4696125Y112806D01*
G01X4695901Y109822D01*
G01X4695528Y106853D01*
G01X4695010Y103906D01*
G01X4694344Y100990D01*
G01X4693534Y98110D01*
G01X4692579Y95275D01*
G01X4691487Y92489D01*
G01X4690257Y89764D01*
G01X4688891Y87102D01*
G01X4687395Y84511D01*
G01X4685772Y81996D01*
G01X4684027Y79568D01*
G01X4682162Y77229D01*
G01X4680181Y74986D01*
G01X4678093Y72845D01*
G01X4675899Y70810D01*
G01X4673608Y68887D01*
G01X4671223Y67079D01*
G01X4668751Y65395D01*
G01X4666198Y63835D01*
G01X4663572Y62403D01*
G01X4660875Y61105D01*
G01X4658119Y59944D01*
G01X4655307Y58920D01*
G01X4652449Y58039D01*
G01X4649549Y57300D01*
G01X4646618Y56708D01*
G01X4643658Y56261D01*
G01X4640682Y55964D01*
G01X4637695Y55814D01*
G01X4634702Y55814D01*
G01X4631715Y55964D01*
G01X4628739Y56261D01*
G01X4625779Y56708D01*
G01X4622848Y57300D01*
G01X4619948Y58039D01*
G01X4617090Y58920D01*
G01X4614278Y59944D01*
G01X4611522Y61105D01*
G01X4608825Y62403D01*
G01X4606199Y63835D01*
G01X4603646Y65395D01*
G01X4601174Y67079D01*
G01X4598789Y68887D01*
G01X4596498Y70810D01*
G01X4594304Y72845D01*
G01X4592216Y74986D01*
G01X4590235Y77229D01*
G01X4588370Y79568D01*
G01X4586625Y81996D01*
G01X4585002Y84511D01*
G01X4583506Y87102D01*
G01X4582140Y89764D01*
G01X4580910Y92489D01*
G01X4579818Y95275D01*
G01X4578863Y98110D01*
G01X4578053Y100990D01*
G01X4577387Y103906D01*
G01X4576869Y106853D01*
G01X4576496Y109822D01*
G01X4576272Y112806D01*
G01X4576199Y115796D01*
G01X4576199Y145796D01*
G01X4576272Y148786D01*
G01X4576496Y151770D01*
G01X4576869Y154739D01*
G01X4577387Y157686D01*
G01X4578053Y160602D01*
G01X4578863Y163482D01*
G01X4579818Y166317D01*
G01X4580910Y169103D01*
G01X4582140Y171828D01*
G01X4583506Y174490D01*
G01X4585002Y177081D01*
G01X4586625Y179596D01*
G01X4588370Y182024D01*
G01X4590235Y184363D01*
G01X4592216Y186606D01*
G01X4594304Y188747D01*
G01X4596498Y190782D01*
G01X4598789Y192705D01*
G01X4601174Y194513D01*
G01X4603646Y196197D01*
G01X4606199Y197757D01*
G01X4608825Y199189D01*
G01X4611522Y200487D01*
G01X4614278Y201648D01*
G01X4617090Y202672D01*
G01X4619948Y203553D01*
G01X4622848Y204292D01*
G01X4625779Y204884D01*
G01X4628739Y205331D01*
G01X4631715Y205628D01*
G01X4634702Y205778D01*
G37*
G36*
G01X5804207Y576204D02*
G01X5774205Y576204D01*
G01X5774205Y686204D01*
G01X5804207Y686204D01*
G01X5804207Y576204D01*
G37*
G36*
G01X5824217Y686204D02*
G01X5854220Y686204D01*
G01X5854220Y576204D01*
G01X5824217Y576204D01*
G01X5824217Y686204D01*
G37*
G36*
G01X5314198Y686204D02*
G01X5374198Y686204D01*
G01X5374198Y576204D01*
G01X5314198Y576204D01*
G01X5314198Y686204D01*
G37*
G36*
G01X5754195Y576204D02*
G01X5724192Y576204D01*
G01X5724192Y686204D01*
G01X5754195Y686204D01*
G01X5754195Y576204D01*
G37*
G36*
G01X5874217Y686204D02*
G01X5934217Y686204D01*
G01X5934217Y576204D01*
G01X5874217Y576204D01*
G01X5874217Y686204D01*
G37*
G36*
G01X6014202Y576204D02*
G01X5954202Y576204D01*
G01X5954202Y686204D01*
G01X6014202Y686204D01*
G01X6014202Y576204D01*
G37*
G36*
G01X5704208Y576204D02*
G01X5674205Y576204D01*
G01X5674205Y686204D01*
G01X5704208Y686204D01*
G01X5704208Y576204D01*
G37*
G36*
G01X5654195Y576204D02*
G01X5624192Y576204D01*
G01X5624192Y686204D01*
G01X5654195Y686204D01*
G01X5654195Y576204D01*
G37*
G36*
G01X5394208Y686204D02*
G01X5454208Y686204D01*
G01X5454208Y576204D01*
G01X5394208Y576204D01*
G01X5394208Y686204D01*
G37*
G36*
G01X5604208Y576204D02*
G01X5574205Y576204D01*
G01X5574205Y686204D01*
G01X5604208Y686204D01*
G01X5604208Y576204D01*
G37*
G36*
G01X5554221Y576204D02*
G01X5524218Y576204D01*
G01X5524218Y686204D01*
G01X5554221Y686204D01*
G01X5554221Y576204D01*
G37*
G36*
G01X5504208Y576204D02*
G01X5474205Y576204D01*
G01X5474205Y686204D01*
G01X5504208Y686204D01*
G01X5504208Y576204D01*
G37*
G36*
G01X6101182Y676044D02*
G01X6104158Y675747D01*
G01X6107118Y675300D01*
G01X6110049Y674708D01*
G01X6112949Y673969D01*
G01X6115807Y673087D01*
G01X6118619Y672064D01*
G01X6121375Y670903D01*
G01X6124072Y669605D01*
G01X6126698Y668172D01*
G01X6129251Y666613D01*
G01X6131723Y664929D01*
G01X6134108Y663120D01*
G01X6136399Y661198D01*
G01X6138593Y659163D01*
G01X6140681Y657022D01*
G01X6142662Y654779D01*
G01X6144527Y652440D01*
G01X6146272Y650011D01*
G01X6147895Y647497D01*
G01X6149391Y644906D01*
G01X6150757Y642244D01*
G01X6151987Y639519D01*
G01X6153079Y636732D01*
G01X6154034Y633898D01*
G01X6154844Y631017D01*
G01X6155510Y628101D01*
G01X6156028Y625155D01*
G01X6156401Y622186D01*
G01X6156625Y619201D01*
G01X6156698Y616212D01*
G01X6156698Y536212D01*
G01X6156625Y533222D01*
G01X6156401Y530238D01*
G01X6156028Y527268D01*
G01X6155510Y524322D01*
G01X6154844Y521406D01*
G01X6154034Y518526D01*
G01X6153079Y515691D01*
G01X6151987Y512905D01*
G01X6150757Y510179D01*
G01X6149391Y507517D01*
G01X6147895Y504927D01*
G01X6146272Y502412D01*
G01X6144527Y499984D01*
G01X6142662Y497644D01*
G01X6140681Y495402D01*
G01X6138593Y493260D01*
G01X6136399Y491226D01*
G01X6134108Y489303D01*
G01X6131723Y487495D01*
G01X6129251Y485811D01*
G01X6126698Y484251D01*
G01X6124072Y482818D01*
G01X6121375Y481521D01*
G01X6118619Y480360D01*
G01X6115807Y479336D01*
G01X6112949Y478455D01*
G01X6110049Y477716D01*
G01X6107118Y477124D01*
G01X6104158Y476677D01*
G01X6101182Y476380D01*
G01X6098195Y476230D01*
G01X6095202Y476230D01*
G01X6092215Y476380D01*
G01X6089239Y476677D01*
G01X6086279Y477124D01*
G01X6083348Y477716D01*
G01X6080448Y478455D01*
G01X6077590Y479336D01*
G01X6074778Y480360D01*
G01X6072022Y481521D01*
G01X6069325Y482818D01*
G01X6066699Y484251D01*
G01X6064146Y485811D01*
G01X6061674Y487495D01*
G01X6059289Y489303D01*
G01X6056998Y491226D01*
G01X6054804Y493260D01*
G01X6052716Y495402D01*
G01X6050735Y497644D01*
G01X6048870Y499984D01*
G01X6047125Y502412D01*
G01X6045502Y504927D01*
G01X6044006Y507517D01*
G01X6042640Y510179D01*
G01X6041410Y512905D01*
G01X6040318Y515691D01*
G01X6039363Y518526D01*
G01X6038553Y521406D01*
G01X6037887Y524322D01*
G01X6037369Y527268D01*
G01X6036996Y530238D01*
G01X6036772Y533222D01*
G01X6036699Y536212D01*
G01X6036699Y616212D01*
G01X6036772Y619201D01*
G01X6036996Y622186D01*
G01X6037369Y625155D01*
G01X6037887Y628101D01*
G01X6038553Y631017D01*
G01X6039363Y633898D01*
G01X6040318Y636732D01*
G01X6041410Y639519D01*
G01X6042640Y642244D01*
G01X6044006Y644906D01*
G01X6045502Y647497D01*
G01X6047125Y650011D01*
G01X6048870Y652440D01*
G01X6050735Y654779D01*
G01X6052716Y657022D01*
G01X6054804Y659163D01*
G01X6056998Y661198D01*
G01X6059289Y663120D01*
G01X6061674Y664929D01*
G01X6064146Y666613D01*
G01X6066699Y668172D01*
G01X6069325Y669605D01*
G01X6072022Y670903D01*
G01X6074778Y672064D01*
G01X6077590Y673087D01*
G01X6080448Y673969D01*
G01X6083348Y674708D01*
G01X6086279Y675300D01*
G01X6089239Y675747D01*
G01X6092215Y676044D01*
G01X6095202Y676194D01*
G01X6098195Y676194D01*
G01X6101182Y676044D01*
G37*
G36*
G01X5230205Y676194D02*
G01X5233198Y676194D01*
G01X5236185Y676044D01*
G01X5239161Y675747D01*
G01X5242121Y675300D01*
G01X5245052Y674708D01*
G01X5247952Y673969D01*
G01X5250810Y673087D01*
G01X5253622Y672064D01*
G01X5256378Y670903D01*
G01X5259075Y669605D01*
G01X5261701Y668172D01*
G01X5264254Y666613D01*
G01X5266726Y664929D01*
G01X5269111Y663120D01*
G01X5271402Y661198D01*
G01X5273596Y659163D01*
G01X5275684Y657022D01*
G01X5277665Y654779D01*
G01X5279530Y652440D01*
G01X5281275Y650011D01*
G01X5282898Y647497D01*
G01X5284394Y644906D01*
G01X5285760Y642244D01*
G01X5286990Y639519D01*
G01X5288082Y636732D01*
G01X5289037Y633898D01*
G01X5289847Y631017D01*
G01X5290513Y628101D01*
G01X5291031Y625155D01*
G01X5291404Y622186D01*
G01X5291628Y619201D01*
G01X5291701Y616212D01*
G01X5291701Y536212D01*
G01X5291628Y533222D01*
G01X5291404Y530238D01*
G01X5291031Y527268D01*
G01X5290513Y524322D01*
G01X5289847Y521406D01*
G01X5289037Y518526D01*
G01X5288082Y515691D01*
G01X5286990Y512905D01*
G01X5285760Y510179D01*
G01X5284394Y507517D01*
G01X5282898Y504927D01*
G01X5281275Y502412D01*
G01X5279530Y499984D01*
G01X5277665Y497644D01*
G01X5275684Y495402D01*
G01X5273596Y493260D01*
G01X5271402Y491226D01*
G01X5269111Y489303D01*
G01X5266726Y487495D01*
G01X5264254Y485811D01*
G01X5261701Y484251D01*
G01X5259075Y482818D01*
G01X5256378Y481521D01*
G01X5253622Y480360D01*
G01X5250810Y479336D01*
G01X5247952Y478455D01*
G01X5245052Y477716D01*
G01X5242121Y477124D01*
G01X5239161Y476677D01*
G01X5236185Y476380D01*
G01X5233198Y476230D01*
G01X5230205Y476230D01*
G01X5227218Y476380D01*
G01X5224242Y476677D01*
G01X5221282Y477124D01*
G01X5218351Y477716D01*
G01X5215451Y478455D01*
G01X5212593Y479336D01*
G01X5209781Y480360D01*
G01X5207025Y481521D01*
G01X5204328Y482818D01*
G01X5201702Y484251D01*
G01X5199149Y485811D01*
G01X5196677Y487495D01*
G01X5194292Y489303D01*
G01X5192001Y491226D01*
G01X5189807Y493260D01*
G01X5187719Y495402D01*
G01X5185738Y497644D01*
G01X5183873Y499984D01*
G01X5182128Y502412D01*
G01X5180505Y504927D01*
G01X5179009Y507517D01*
G01X5177643Y510179D01*
G01X5176413Y512905D01*
G01X5175321Y515691D01*
G01X5174366Y518526D01*
G01X5173556Y521406D01*
G01X5172890Y524322D01*
G01X5172372Y527268D01*
G01X5171999Y530238D01*
G01X5171775Y533222D01*
G01X5171702Y536212D01*
G01X5171702Y616212D01*
G01X5171775Y619201D01*
G01X5171999Y622186D01*
G01X5172372Y625155D01*
G01X5172890Y628101D01*
G01X5173556Y631017D01*
G01X5174366Y633898D01*
G01X5175321Y636732D01*
G01X5176413Y639519D01*
G01X5177643Y642244D01*
G01X5179009Y644906D01*
G01X5180505Y647497D01*
G01X5182128Y650011D01*
G01X5183873Y652440D01*
G01X5185738Y654779D01*
G01X5187719Y657022D01*
G01X5189807Y659163D01*
G01X5192001Y661198D01*
G01X5194292Y663120D01*
G01X5196677Y664929D01*
G01X5199149Y666613D01*
G01X5201702Y668172D01*
G01X5204328Y669605D01*
G01X5207025Y670903D01*
G01X5209781Y672064D01*
G01X5212593Y673087D01*
G01X5215451Y673969D01*
G01X5218351Y674708D01*
G01X5221282Y675300D01*
G01X5224242Y675747D01*
G01X5227218Y676044D01*
G01X5230205Y676194D01*
G37*
G36*
G01X5236185Y231028D02*
G01X5239161Y230731D01*
G01X5242121Y230284D01*
G01X5245052Y229692D01*
G01X5247952Y228953D01*
G01X5250810Y228072D01*
G01X5253622Y227048D01*
G01X5256378Y225887D01*
G01X5259075Y224589D01*
G01X5261701Y223157D01*
G01X5264254Y221597D01*
G01X5266726Y219913D01*
G01X5269111Y218105D01*
G01X5271402Y216182D01*
G01X5273596Y214147D01*
G01X5275684Y212006D01*
G01X5277665Y209763D01*
G01X5279530Y207424D01*
G01X5281275Y204996D01*
G01X5282898Y202481D01*
G01X5284394Y199890D01*
G01X5285760Y197228D01*
G01X5286990Y194503D01*
G01X5288082Y191717D01*
G01X5289037Y188882D01*
G01X5289847Y186002D01*
G01X5290513Y183086D01*
G01X5291031Y180139D01*
G01X5291404Y177170D01*
G01X5291628Y174186D01*
G01X5291701Y171196D01*
G01X5291701Y141196D01*
G01X5291628Y138206D01*
G01X5291404Y135222D01*
G01X5291031Y132253D01*
G01X5290513Y129306D01*
G01X5289847Y126390D01*
G01X5289037Y123510D01*
G01X5288082Y120675D01*
G01X5286990Y117889D01*
G01X5285760Y115164D01*
G01X5284394Y112502D01*
G01X5282898Y109911D01*
G01X5281275Y107396D01*
G01X5279530Y104968D01*
G01X5277665Y102629D01*
G01X5275684Y100386D01*
G01X5273596Y98245D01*
G01X5271402Y96210D01*
G01X5269111Y94287D01*
G01X5266726Y92479D01*
G01X5264254Y90795D01*
G01X5261701Y89235D01*
G01X5259075Y87803D01*
G01X5256378Y86505D01*
G01X5253622Y85344D01*
G01X5250810Y84320D01*
G01X5247952Y83439D01*
G01X5245052Y82700D01*
G01X5242121Y82108D01*
G01X5239161Y81661D01*
G01X5236185Y81364D01*
G01X5233198Y81214D01*
G01X5230205Y81214D01*
G01X5227218Y81364D01*
G01X5224242Y81661D01*
G01X5221282Y82108D01*
G01X5218351Y82700D01*
G01X5215451Y83439D01*
G01X5212593Y84320D01*
G01X5209781Y85344D01*
G01X5207025Y86505D01*
G01X5204328Y87803D01*
G01X5201702Y89235D01*
G01X5199149Y90795D01*
G01X5196677Y92479D01*
G01X5194292Y94287D01*
G01X5192001Y96210D01*
G01X5189807Y98245D01*
G01X5187719Y100386D01*
G01X5185738Y102629D01*
G01X5183873Y104968D01*
G01X5182128Y107396D01*
G01X5180505Y109911D01*
G01X5179009Y112502D01*
G01X5177643Y115164D01*
G01X5176413Y117889D01*
G01X5175321Y120675D01*
G01X5174366Y123510D01*
G01X5173556Y126390D01*
G01X5172890Y129306D01*
G01X5172372Y132253D01*
G01X5171999Y135222D01*
G01X5171775Y138206D01*
G01X5171702Y141196D01*
G01X5171702Y171196D01*
G01X5171775Y174186D01*
G01X5171999Y177170D01*
G01X5172372Y180139D01*
G01X5172890Y183086D01*
G01X5173556Y186002D01*
G01X5174366Y188882D01*
G01X5175321Y191717D01*
G01X5176413Y194503D01*
G01X5177643Y197228D01*
G01X5179009Y199890D01*
G01X5180505Y202481D01*
G01X5182128Y204996D01*
G01X5183873Y207424D01*
G01X5185738Y209763D01*
G01X5187719Y212006D01*
G01X5189807Y214147D01*
G01X5192001Y216182D01*
G01X5194292Y218105D01*
G01X5196677Y219913D01*
G01X5199149Y221597D01*
G01X5201702Y223157D01*
G01X5204328Y224589D01*
G01X5207025Y225887D01*
G01X5209781Y227048D01*
G01X5212593Y228072D01*
G01X5215451Y228953D01*
G01X5218351Y229692D01*
G01X5221282Y230284D01*
G01X5224242Y230731D01*
G01X5227218Y231028D01*
G01X5230205Y231178D01*
G01X5233198Y231178D01*
G01X5236185Y231028D01*
G37*
G36*
G01X6095202Y231178D02*
G01X6098195Y231178D01*
G01X6101182Y231028D01*
G01X6104158Y230731D01*
G01X6107118Y230284D01*
G01X6110049Y229692D01*
G01X6112949Y228953D01*
G01X6115807Y228072D01*
G01X6118619Y227048D01*
G01X6121375Y225887D01*
G01X6124072Y224589D01*
G01X6126698Y223157D01*
G01X6129251Y221597D01*
G01X6131723Y219913D01*
G01X6134108Y218105D01*
G01X6136399Y216182D01*
G01X6138593Y214147D01*
G01X6140681Y212006D01*
G01X6142662Y209763D01*
G01X6144527Y207424D01*
G01X6146272Y204996D01*
G01X6147895Y202481D01*
G01X6149391Y199890D01*
G01X6150757Y197228D01*
G01X6151987Y194503D01*
G01X6153079Y191717D01*
G01X6154034Y188882D01*
G01X6154844Y186002D01*
G01X6155510Y183086D01*
G01X6156028Y180139D01*
G01X6156401Y177170D01*
G01X6156625Y174186D01*
G01X6156698Y171196D01*
G01X6156698Y141196D01*
G01X6156625Y138206D01*
G01X6156401Y135222D01*
G01X6156028Y132253D01*
G01X6155510Y129306D01*
G01X6154844Y126390D01*
G01X6154034Y123510D01*
G01X6153079Y120675D01*
G01X6151987Y117889D01*
G01X6150757Y115164D01*
G01X6149391Y112502D01*
G01X6147895Y109911D01*
G01X6146272Y107396D01*
G01X6144527Y104968D01*
G01X6142662Y102629D01*
G01X6140681Y100386D01*
G01X6138593Y98245D01*
G01X6136399Y96210D01*
G01X6134108Y94287D01*
G01X6131723Y92479D01*
G01X6129251Y90795D01*
G01X6126698Y89235D01*
G01X6124072Y87803D01*
G01X6121375Y86505D01*
G01X6118619Y85344D01*
G01X6115807Y84320D01*
G01X6112949Y83439D01*
G01X6110049Y82700D01*
G01X6107118Y82108D01*
G01X6104158Y81661D01*
G01X6101182Y81364D01*
G01X6098195Y81214D01*
G01X6095202Y81214D01*
G01X6092215Y81364D01*
G01X6089239Y81661D01*
G01X6086279Y82108D01*
G01X6083348Y82700D01*
G01X6080448Y83439D01*
G01X6077590Y84320D01*
G01X6074778Y85344D01*
G01X6072022Y86505D01*
G01X6069325Y87803D01*
G01X6066699Y89235D01*
G01X6064146Y90795D01*
G01X6061674Y92479D01*
G01X6059289Y94287D01*
G01X6056998Y96210D01*
G01X6054804Y98245D01*
G01X6052716Y100386D01*
G01X6050735Y102629D01*
G01X6048870Y104968D01*
G01X6047125Y107396D01*
G01X6045502Y109911D01*
G01X6044006Y112502D01*
G01X6042640Y115164D01*
G01X6041410Y117889D01*
G01X6040318Y120675D01*
G01X6039363Y123510D01*
G01X6038553Y126390D01*
G01X6037887Y129306D01*
G01X6037369Y132253D01*
G01X6036996Y135222D01*
G01X6036772Y138206D01*
G01X6036699Y141196D01*
G01X6036699Y171196D01*
G01X6036772Y174186D01*
G01X6036996Y177170D01*
G01X6037369Y180139D01*
G01X6037887Y183086D01*
G01X6038553Y186002D01*
G01X6039363Y188882D01*
G01X6040318Y191717D01*
G01X6041410Y194503D01*
G01X6042640Y197228D01*
G01X6044006Y199890D01*
G01X6045502Y202481D01*
G01X6047125Y204996D01*
G01X6048870Y207424D01*
G01X6050735Y209763D01*
G01X6052716Y212006D01*
G01X6054804Y214147D01*
G01X6056998Y216182D01*
G01X6059289Y218105D01*
G01X6061674Y219913D01*
G01X6064146Y221597D01*
G01X6066699Y223157D01*
G01X6069325Y224589D01*
G01X6072022Y225887D01*
G01X6074778Y227048D01*
G01X6077590Y228072D01*
G01X6080448Y228953D01*
G01X6083348Y229692D01*
G01X6086279Y230284D01*
G01X6089239Y230731D01*
G01X6092215Y231028D01*
G01X6095202Y231178D01*
G37*
G36*
G01X1682593Y290505D02*
G02X1802592Y290505I60000J0D01*
G01X1802592Y100503D01*
G02X1682593Y100503I-60000J0D01*
G01X1682593Y290505D01*
G37*
G36*
G01X2972608Y290505D02*
G02X3092607Y290505I60000J0D01*
G01X3092607Y100503D01*
G02X2972608Y100503I-60000J0D01*
G01X2972608Y290505D01*
G37*
G36*
G01X2681600Y1218496D02*
G01X2793599Y1218496D01*
G01X2793599Y930496D01*
G01X2681600Y930496D01*
G01X2681600Y1218496D01*
G37*
G36*
G01X2431600Y1218496D02*
G01X2543599Y1218496D01*
G01X2543599Y930496D01*
G01X2431600Y930496D01*
G01X2431600Y1218496D01*
G37*
G36*
G01X2231601Y1218496D02*
G01X2343600Y1218496D01*
G01X2343600Y930496D01*
G01X2231601Y930496D01*
G01X2231601Y1218496D01*
G37*
G36*
G01X1981601Y1218496D02*
G01X2093600Y1218496D01*
G01X2093600Y930496D01*
G01X1981601Y930496D01*
G01X1981601Y1218496D01*
G37*
G36*
G01X260193Y290505D02*
G02X380192Y290505I60000J0D01*
G01X380192Y100503D01*
G02X260193Y100503I-60000J0D01*
G01X260193Y290505D01*
G37*
G36*
G01X1550208Y290505D02*
G02X1670207Y290505I60000J0D01*
G01X1670207Y100503D01*
G02X1550208Y100503I-60000J0D01*
G01X1550208Y290505D01*
G37*
G36*
G01X1259200Y1218496D02*
G01X1371199Y1218496D01*
G01X1371199Y930496D01*
G01X1259200Y930496D01*
G01X1259200Y1218496D01*
G37*
G36*
G01X1009200Y1218496D02*
G01X1121199Y1218496D01*
G01X1121199Y930496D01*
G01X1009200Y930496D01*
G01X1009200Y1218496D01*
G37*
G36*
G01X809201Y1218496D02*
G01X921200Y1218496D01*
G01X921200Y930496D01*
G01X809201Y930496D01*
G01X809201Y1218496D01*
G37*
G36*
G01X559201Y1218496D02*
G01X671200Y1218496D01*
G01X671200Y930496D01*
G01X559201Y930496D01*
G01X559201Y1218496D01*
G37*
G36*
G01X5734162Y3156424D02*
G01X5734162Y3126422D01*
G01X5624162Y3126422D01*
G01X5624162Y3156424D01*
G01X5734162Y3156424D01*
G37*
G36*
G01X5624162Y3176435D02*
G01X5624162Y3206437D01*
G01X5734162Y3206437D01*
G01X5734162Y3176435D01*
G01X5624162Y3176435D01*
G37*
G36*
G01X5624162Y2666415D02*
G01X5624162Y2726415D01*
G01X5734162Y2726415D01*
G01X5734162Y2666415D01*
G01X5624162Y2666415D01*
G37*
G36*
G01X5734162Y3106412D02*
G01X5734162Y3076409D01*
G01X5624162Y3076409D01*
G01X5624162Y3106412D01*
G01X5734162Y3106412D01*
G37*
G36*
G01X5624162Y3226434D02*
G01X5624162Y3286434D01*
G01X5734162Y3286434D01*
G01X5734162Y3226434D01*
G01X5624162Y3226434D01*
G37*
G36*
G01X5734162Y3366419D02*
G01X5734162Y3306419D01*
G01X5624162Y3306419D01*
G01X5624162Y3366419D01*
G01X5734162Y3366419D01*
G37*
G36*
G01X5734162Y3056425D02*
G01X5734162Y3026422D01*
G01X5624162Y3026422D01*
G01X5624162Y3056425D01*
G01X5734162Y3056425D01*
G37*
G36*
G01X5734162Y3006412D02*
G01X5734162Y2976410D01*
G01X5624162Y2976410D01*
G01X5624162Y3006412D01*
G01X5734162Y3006412D01*
G37*
G36*
G01X5624162Y2746425D02*
G01X5624162Y2806425D01*
G01X5734162Y2806425D01*
G01X5734162Y2746425D01*
G01X5624162Y2746425D01*
G37*
G36*
G01X5734162Y2956425D02*
G01X5734162Y2926422D01*
G01X5624162Y2926422D01*
G01X5624162Y2956425D01*
G01X5734162Y2956425D01*
G37*
G36*
G01X5734162Y2906438D02*
G01X5734162Y2876435D01*
G01X5624162Y2876435D01*
G01X5624162Y2906438D01*
G01X5734162Y2906438D01*
G37*
G36*
G01X5734162Y2856425D02*
G01X5734162Y2826423D01*
G01X5624162Y2826423D01*
G01X5624162Y2856425D01*
G01X5734162Y2856425D01*
G37*
G36*
G01X5634322Y3453399D02*
G01X5634619Y3456376D01*
G01X5635066Y3459335D01*
G01X5635658Y3462266D01*
G01X5636397Y3465167D01*
G01X5637279Y3468024D01*
G01X5638302Y3470836D01*
G01X5639463Y3473592D01*
G01X5640761Y3476289D01*
G01X5642193Y3478916D01*
G01X5643753Y3481468D01*
G01X5645437Y3483940D01*
G01X5647246Y3486325D01*
G01X5649168Y3488616D01*
G01X5651203Y3490810D01*
G01X5653344Y3492898D01*
G01X5655587Y3494879D01*
G01X5657926Y3496744D01*
G01X5660354Y3498489D01*
G01X5662869Y3500112D01*
G01X5665460Y3501608D01*
G01X5668122Y3502974D01*
G01X5670847Y3504204D01*
G01X5673634Y3505296D01*
G01X5676468Y3506251D01*
G01X5679349Y3507061D01*
G01X5682264Y3507727D01*
G01X5685211Y3508245D01*
G01X5688180Y3508618D01*
G01X5691165Y3508842D01*
G01X5694154Y3508916D01*
G01X5774154Y3508916D01*
G01X5777144Y3508842D01*
G01X5780128Y3508618D01*
G01X5783097Y3508245D01*
G01X5786044Y3507727D01*
G01X5788960Y3507061D01*
G01X5791840Y3506251D01*
G01X5794675Y3505296D01*
G01X5797461Y3504204D01*
G01X5800187Y3502974D01*
G01X5802848Y3501608D01*
G01X5805439Y3500112D01*
G01X5807954Y3498489D01*
G01X5810382Y3496744D01*
G01X5812721Y3494879D01*
G01X5814964Y3492898D01*
G01X5817105Y3490810D01*
G01X5819140Y3488616D01*
G01X5821063Y3486325D01*
G01X5822871Y3483940D01*
G01X5824555Y3481468D01*
G01X5826115Y3478916D01*
G01X5827547Y3476289D01*
G01X5828845Y3473592D01*
G01X5830006Y3470836D01*
G01X5831030Y3468024D01*
G01X5831911Y3465167D01*
G01X5832650Y3462266D01*
G01X5833242Y3459335D01*
G01X5833689Y3456376D01*
G01X5833986Y3453399D01*
G01X5834136Y3450412D01*
G01X5834136Y3447420D01*
G01X5833986Y3444433D01*
G01X5833689Y3441456D01*
G01X5833242Y3438497D01*
G01X5832650Y3435565D01*
G01X5831911Y3432665D01*
G01X5831030Y3429807D01*
G01X5830006Y3426995D01*
G01X5828845Y3424240D01*
G01X5827547Y3421542D01*
G01X5826115Y3418916D01*
G01X5824555Y3416363D01*
G01X5822871Y3413892D01*
G01X5821063Y3411507D01*
G01X5819140Y3409215D01*
G01X5817105Y3407021D01*
G01X5814964Y3404933D01*
G01X5812721Y3402952D01*
G01X5810382Y3401087D01*
G01X5807954Y3399342D01*
G01X5805439Y3397719D01*
G01X5802848Y3396223D01*
G01X5800187Y3394857D01*
G01X5797461Y3393627D01*
G01X5794675Y3392535D01*
G01X5791840Y3391580D01*
G01X5788960Y3390770D01*
G01X5786044Y3390104D01*
G01X5783097Y3389586D01*
G01X5780128Y3389213D01*
G01X5777144Y3388989D01*
G01X5774154Y3388916D01*
G01X5694154Y3388916D01*
G01X5691165Y3388989D01*
G01X5688180Y3389213D01*
G01X5685211Y3389586D01*
G01X5682264Y3390104D01*
G01X5679349Y3390770D01*
G01X5676468Y3391580D01*
G01X5673634Y3392535D01*
G01X5670847Y3393627D01*
G01X5668122Y3394857D01*
G01X5665460Y3396223D01*
G01X5662869Y3397719D01*
G01X5660354Y3399342D01*
G01X5657926Y3401087D01*
G01X5655587Y3402952D01*
G01X5653344Y3404933D01*
G01X5651203Y3407021D01*
G01X5649168Y3409215D01*
G01X5647246Y3411507D01*
G01X5645437Y3413892D01*
G01X5643753Y3416363D01*
G01X5642193Y3418916D01*
G01X5640761Y3421542D01*
G01X5639463Y3424240D01*
G01X5638302Y3426995D01*
G01X5637279Y3429807D01*
G01X5636397Y3432665D01*
G01X5635658Y3435565D01*
G01X5635066Y3438497D01*
G01X5634619Y3441456D01*
G01X5634322Y3444433D01*
G01X5634172Y3447420D01*
G01X5634172Y3450412D01*
G01X5634322Y3453399D01*
G37*
G36*
G01X5634172Y2582423D02*
G01X5634172Y2585415D01*
G01X5634322Y2588402D01*
G01X5634619Y2591379D01*
G01X5635066Y2594338D01*
G01X5635658Y2597269D01*
G01X5636397Y2600170D01*
G01X5637279Y2603027D01*
G01X5638302Y2605839D01*
G01X5639463Y2608595D01*
G01X5640761Y2611292D01*
G01X5642193Y2613919D01*
G01X5643753Y2616471D01*
G01X5645437Y2618943D01*
G01X5647246Y2621328D01*
G01X5649168Y2623619D01*
G01X5651203Y2625813D01*
G01X5653344Y2627901D01*
G01X5655587Y2629882D01*
G01X5657926Y2631747D01*
G01X5660354Y2633492D01*
G01X5662869Y2635115D01*
G01X5665460Y2636611D01*
G01X5668122Y2637977D01*
G01X5670847Y2639207D01*
G01X5673634Y2640299D01*
G01X5676468Y2641254D01*
G01X5679349Y2642064D01*
G01X5682264Y2642730D01*
G01X5685211Y2643248D01*
G01X5688180Y2643621D01*
G01X5691165Y2643845D01*
G01X5694154Y2643919D01*
G01X5774154Y2643919D01*
G01X5777144Y2643845D01*
G01X5780128Y2643621D01*
G01X5783097Y2643248D01*
G01X5786044Y2642730D01*
G01X5788960Y2642064D01*
G01X5791840Y2641254D01*
G01X5794675Y2640299D01*
G01X5797461Y2639207D01*
G01X5800187Y2637977D01*
G01X5802848Y2636611D01*
G01X5805439Y2635115D01*
G01X5807954Y2633492D01*
G01X5810382Y2631747D01*
G01X5812721Y2629882D01*
G01X5814964Y2627901D01*
G01X5817105Y2625813D01*
G01X5819140Y2623619D01*
G01X5821063Y2621328D01*
G01X5822871Y2618943D01*
G01X5824555Y2616471D01*
G01X5826115Y2613919D01*
G01X5827547Y2611292D01*
G01X5828845Y2608595D01*
G01X5830006Y2605839D01*
G01X5831030Y2603027D01*
G01X5831911Y2600170D01*
G01X5832650Y2597269D01*
G01X5833242Y2594338D01*
G01X5833689Y2591379D01*
G01X5833986Y2588402D01*
G01X5834136Y2585415D01*
G01X5834136Y2582423D01*
G01X5833986Y2579436D01*
G01X5833689Y2576459D01*
G01X5833242Y2573500D01*
G01X5832650Y2570568D01*
G01X5831911Y2567668D01*
G01X5831030Y2564810D01*
G01X5830006Y2561998D01*
G01X5828845Y2559243D01*
G01X5827547Y2556545D01*
G01X5826115Y2553919D01*
G01X5824555Y2551366D01*
G01X5822871Y2548895D01*
G01X5821063Y2546510D01*
G01X5819140Y2544218D01*
G01X5817105Y2542024D01*
G01X5814964Y2539936D01*
G01X5812721Y2537955D01*
G01X5810382Y2536090D01*
G01X5807954Y2534345D01*
G01X5805439Y2532722D01*
G01X5802848Y2531226D01*
G01X5800187Y2529860D01*
G01X5797461Y2528630D01*
G01X5794675Y2527538D01*
G01X5791840Y2526583D01*
G01X5788960Y2525773D01*
G01X5786044Y2525107D01*
G01X5783097Y2524589D01*
G01X5780128Y2524216D01*
G01X5777144Y2523992D01*
G01X5774154Y2523919D01*
G01X5694154Y2523919D01*
G01X5691165Y2523992D01*
G01X5688180Y2524216D01*
G01X5685211Y2524589D01*
G01X5682264Y2525107D01*
G01X5679349Y2525773D01*
G01X5676468Y2526583D01*
G01X5673634Y2527538D01*
G01X5670847Y2528630D01*
G01X5668122Y2529860D01*
G01X5665460Y2531226D01*
G01X5662869Y2532722D01*
G01X5660354Y2534345D01*
G01X5657926Y2536090D01*
G01X5655587Y2537955D01*
G01X5653344Y2539936D01*
G01X5651203Y2542024D01*
G01X5649168Y2544218D01*
G01X5647246Y2546510D01*
G01X5645437Y2548895D01*
G01X5643753Y2551366D01*
G01X5642193Y2553919D01*
G01X5640761Y2556545D01*
G01X5639463Y2559243D01*
G01X5638302Y2561998D01*
G01X5637279Y2564810D01*
G01X5636397Y2567668D01*
G01X5635658Y2570568D01*
G01X5635066Y2573500D01*
G01X5634619Y2576459D01*
G01X5634322Y2579436D01*
G01X5634172Y2582423D01*
G37*
G36*
G01X6079338Y2588402D02*
G01X6079635Y2591379D01*
G01X6080082Y2594338D01*
G01X6080674Y2597269D01*
G01X6081413Y2600170D01*
G01X6082294Y2603027D01*
G01X6083318Y2605839D01*
G01X6084479Y2608595D01*
G01X6085777Y2611292D01*
G01X6087209Y2613919D01*
G01X6088769Y2616471D01*
G01X6090453Y2618943D01*
G01X6092261Y2621328D01*
G01X6094184Y2623619D01*
G01X6096218Y2625813D01*
G01X6098360Y2627901D01*
G01X6100602Y2629882D01*
G01X6102942Y2631747D01*
G01X6105370Y2633492D01*
G01X6107885Y2635115D01*
G01X6110475Y2636611D01*
G01X6113137Y2637977D01*
G01X6115863Y2639207D01*
G01X6118649Y2640299D01*
G01X6121484Y2641254D01*
G01X6124364Y2642064D01*
G01X6127280Y2642730D01*
G01X6130227Y2643248D01*
G01X6133196Y2643621D01*
G01X6136180Y2643845D01*
G01X6139170Y2643919D01*
G01X6169170Y2643919D01*
G01X6172159Y2643845D01*
G01X6175144Y2643621D01*
G01X6178113Y2643248D01*
G01X6181060Y2642730D01*
G01X6183975Y2642064D01*
G01X6186856Y2641254D01*
G01X6189690Y2640299D01*
G01X6192477Y2639207D01*
G01X6195202Y2637977D01*
G01X6197864Y2636611D01*
G01X6200455Y2635115D01*
G01X6202970Y2633492D01*
G01X6205398Y2631747D01*
G01X6207737Y2629882D01*
G01X6209980Y2627901D01*
G01X6212121Y2625813D01*
G01X6214156Y2623619D01*
G01X6216079Y2621328D01*
G01X6217887Y2618943D01*
G01X6219571Y2616471D01*
G01X6221131Y2613919D01*
G01X6222563Y2611292D01*
G01X6223861Y2608595D01*
G01X6225022Y2605839D01*
G01X6226045Y2603027D01*
G01X6226927Y2600170D01*
G01X6227666Y2597269D01*
G01X6228258Y2594338D01*
G01X6228705Y2591379D01*
G01X6229002Y2588402D01*
G01X6229152Y2585415D01*
G01X6229152Y2582423D01*
G01X6229002Y2579436D01*
G01X6228705Y2576459D01*
G01X6228258Y2573500D01*
G01X6227666Y2570568D01*
G01X6226927Y2567668D01*
G01X6226045Y2564810D01*
G01X6225022Y2561998D01*
G01X6223861Y2559243D01*
G01X6222563Y2556545D01*
G01X6221131Y2553919D01*
G01X6219571Y2551366D01*
G01X6217887Y2548895D01*
G01X6216079Y2546510D01*
G01X6214156Y2544218D01*
G01X6212121Y2542024D01*
G01X6209980Y2539936D01*
G01X6207737Y2537955D01*
G01X6205398Y2536090D01*
G01X6202970Y2534345D01*
G01X6200455Y2532722D01*
G01X6197864Y2531226D01*
G01X6195202Y2529860D01*
G01X6192477Y2528630D01*
G01X6189690Y2527538D01*
G01X6186856Y2526583D01*
G01X6183975Y2525773D01*
G01X6181060Y2525107D01*
G01X6178113Y2524589D01*
G01X6175144Y2524216D01*
G01X6172159Y2523992D01*
G01X6169170Y2523919D01*
G01X6139170Y2523919D01*
G01X6136180Y2523992D01*
G01X6133196Y2524216D01*
G01X6130227Y2524589D01*
G01X6127280Y2525107D01*
G01X6124364Y2525773D01*
G01X6121484Y2526583D01*
G01X6118649Y2527538D01*
G01X6115863Y2528630D01*
G01X6113137Y2529860D01*
G01X6110475Y2531226D01*
G01X6107885Y2532722D01*
G01X6105370Y2534345D01*
G01X6102942Y2536090D01*
G01X6100602Y2537955D01*
G01X6098360Y2539936D01*
G01X6096218Y2542024D01*
G01X6094184Y2544218D01*
G01X6092261Y2546510D01*
G01X6090453Y2548895D01*
G01X6088769Y2551366D01*
G01X6087209Y2553919D01*
G01X6085777Y2556545D01*
G01X6084479Y2559243D01*
G01X6083318Y2561998D01*
G01X6082294Y2564810D01*
G01X6081413Y2567668D01*
G01X6080674Y2570568D01*
G01X6080082Y2573500D01*
G01X6079635Y2576459D01*
G01X6079338Y2579436D01*
G01X6079188Y2582423D01*
G01X6079188Y2585415D01*
G01X6079338Y2588402D01*
G37*
G36*
G01X6079188Y3447420D02*
G01X6079188Y3450412D01*
G01X6079338Y3453399D01*
G01X6079635Y3456376D01*
G01X6080082Y3459335D01*
G01X6080674Y3462266D01*
G01X6081413Y3465167D01*
G01X6082294Y3468024D01*
G01X6083318Y3470836D01*
G01X6084479Y3473592D01*
G01X6085777Y3476289D01*
G01X6087209Y3478916D01*
G01X6088769Y3481468D01*
G01X6090453Y3483940D01*
G01X6092261Y3486325D01*
G01X6094184Y3488616D01*
G01X6096218Y3490810D01*
G01X6098360Y3492898D01*
G01X6100602Y3494879D01*
G01X6102942Y3496744D01*
G01X6105370Y3498489D01*
G01X6107885Y3500112D01*
G01X6110475Y3501608D01*
G01X6113137Y3502974D01*
G01X6115863Y3504204D01*
G01X6118649Y3505296D01*
G01X6121484Y3506251D01*
G01X6124364Y3507061D01*
G01X6127280Y3507727D01*
G01X6130227Y3508245D01*
G01X6133196Y3508618D01*
G01X6136180Y3508842D01*
G01X6139170Y3508916D01*
G01X6169170Y3508916D01*
G01X6172159Y3508842D01*
G01X6175144Y3508618D01*
G01X6178113Y3508245D01*
G01X6181060Y3507727D01*
G01X6183975Y3507061D01*
G01X6186856Y3506251D01*
G01X6189690Y3505296D01*
G01X6192477Y3504204D01*
G01X6195202Y3502974D01*
G01X6197864Y3501608D01*
G01X6200455Y3500112D01*
G01X6202970Y3498489D01*
G01X6205398Y3496744D01*
G01X6207737Y3494879D01*
G01X6209980Y3492898D01*
G01X6212121Y3490810D01*
G01X6214156Y3488616D01*
G01X6216079Y3486325D01*
G01X6217887Y3483940D01*
G01X6219571Y3481468D01*
G01X6221131Y3478916D01*
G01X6222563Y3476289D01*
G01X6223861Y3473592D01*
G01X6225022Y3470836D01*
G01X6226045Y3468024D01*
G01X6226927Y3465167D01*
G01X6227666Y3462266D01*
G01X6228258Y3459335D01*
G01X6228705Y3456376D01*
G01X6229002Y3453399D01*
G01X6229152Y3450412D01*
G01X6229152Y3447420D01*
G01X6229002Y3444433D01*
G01X6228705Y3441456D01*
G01X6228258Y3438497D01*
G01X6227666Y3435565D01*
G01X6226927Y3432665D01*
G01X6226045Y3429807D01*
G01X6225022Y3426995D01*
G01X6223861Y3424240D01*
G01X6222563Y3421542D01*
G01X6221131Y3418916D01*
G01X6219571Y3416363D01*
G01X6217887Y3413892D01*
G01X6216079Y3411507D01*
G01X6214156Y3409215D01*
G01X6212121Y3407021D01*
G01X6209980Y3404933D01*
G01X6207737Y3402952D01*
G01X6205398Y3401087D01*
G01X6202970Y3399342D01*
G01X6200455Y3397719D01*
G01X6197864Y3396223D01*
G01X6195202Y3394857D01*
G01X6192477Y3393627D01*
G01X6189690Y3392535D01*
G01X6186856Y3391580D01*
G01X6183975Y3390770D01*
G01X6181060Y3390104D01*
G01X6178113Y3389586D01*
G01X6175144Y3389213D01*
G01X6172159Y3388989D01*
G01X6169170Y3388916D01*
G01X6139170Y3388916D01*
G01X6136180Y3388989D01*
G01X6133196Y3389213D01*
G01X6130227Y3389586D01*
G01X6127280Y3390104D01*
G01X6124364Y3390770D01*
G01X6121484Y3391580D01*
G01X6118649Y3392535D01*
G01X6115863Y3393627D01*
G01X6113137Y3394857D01*
G01X6110475Y3396223D01*
G01X6107885Y3397719D01*
G01X6105370Y3399342D01*
G01X6102942Y3401087D01*
G01X6100602Y3402952D01*
G01X6098360Y3404933D01*
G01X6096218Y3407021D01*
G01X6094184Y3409215D01*
G01X6092261Y3411507D01*
G01X6090453Y3413892D01*
G01X6088769Y3416363D01*
G01X6087209Y3418916D01*
G01X6085777Y3421542D01*
G01X6084479Y3424240D01*
G01X6083318Y3426995D01*
G01X6082294Y3429807D01*
G01X6081413Y3432665D01*
G01X6080674Y3435565D01*
G01X6080082Y3438497D01*
G01X6079635Y3441456D01*
G01X6079338Y3444433D01*
G01X6079188Y3447420D01*
G37*

G04 Pad Start*
G54D10*
G01X1333500Y1492402D03*
G01X1333500Y1352398D03*
G01X2768600Y1326998D03*
G01X2768600Y1467002D03*
G01X3975100Y793598D03*
G01X3975100Y933602D03*
G54D11*
G01X3313209Y2952579D03*
G01X3173204Y2952579D03*
G01X3321202Y2743200D03*
G01X3181198Y2743200D03*
G01X2330308Y3149608D03*
G01X2470313Y3149608D03*
G01X3308502Y3187700D03*
G01X3168498Y3187700D03*
G01X2330308Y2755908D03*
G01X2470313Y2755908D03*
G01X2330308Y2959108D03*
G01X2470313Y2959108D03*
G01X5365598Y2743200D03*
G01X5505602Y2743200D03*
G54D12*
G01X2999410Y2405304D03*
G01X2999410Y2458314D03*
G01X2999410Y2511298D03*
G01X2999410Y2564308D03*
G01X2999410Y2617292D03*
G01X2999410Y2670302D03*
G01X2999410Y2723312D03*
G01X2999410Y2776296D03*
G01X2639390Y2776296D03*
G01X2639390Y2723312D03*
G01X2639390Y2670302D03*
G01X2639390Y2617292D03*
G01X2639390Y2564308D03*
G01X2639390Y2511298D03*
G01X2639390Y2458314D03*
G01X2639390Y2405304D03*
G54D10*
G01X5930900Y1009802D03*
G01X5930900Y869798D03*
G04 Pad End*

M02*

